<?xml version="1.0" standalone="no"?>
<!DOCTYPE svg PUBLIC "-//W3C//DTD SVG 1.1//EN" "http://www.w3.org/Graphics/SVG/1.1/DTD/svg11.dtd" >
<svg xmlns="http://www.w3.org/2000/svg">
<metadata></metadata>
<defs>
<font id="ciderscript" horiz-adv-x="641" >
<font-face units-per-em="2048" ascent="1536" descent="-512" />
<missing-glyph horiz-adv-x="450" />
<glyph unicode="&#xfb01;" horiz-adv-x="843" d="M-88 -293q0 142 51.5 355t138.5 448q-22 64 -22 111q0 36 32.5 64t75.5 42q124 296 231 465.5t181 169.5q44 0 93.5 -29t49.5 -65q0 -70 -21.5 -138t-52.5 -121.5t-85.5 -115.5t-99 -104.5t-115.5 -104.5q-12 -24 -27 -51q41 -88 61 -240q20 6 41 15t55 28.5t62 43.5 t57 63t46 84q47 122 91.5 211.5t67.5 89.5q60 0 96.5 -24.5t36.5 -55.5q0 -38 -24 -84q-84 -155 -160 -349t-90 -311q57 2 120.5 45.5t100.5 114.5q9 0 18 -5.5t9 -14.5q-15 -34 -47.5 -76t-75.5 -82t-98.5 -67t-106.5 -27t-72.5 26.5t-21.5 61.5q0 111 86 369 q-32 -38 -85 -75.5t-99 -54.5q4 -86 4 -143q0 -138 -21 -253.5t-56 -193t-81 -132t-95 -79t-98 -24.5q-85 0 -118 56t-33 157zM90 -248q0 -46 8.5 -70t32.5 -24q31 0 65.5 39.5t64 106.5t48.5 166t19 206q0 32 -1.5 62t-2.5 44l-2 15q-70 -5 -103 22q-129 -389 -129 -567z M272 446q0 -5 11 -17t21 -21l11 -9q-5 70 -24 121q-3 -11 -7 -27.5t-7.5 -30.5t-4.5 -16zM451 870q64 44 123 129.5t59 135.5q-24 -5 -81 -84.5t-101 -180.5zM893 1067q0 43 31.5 71.5t76.5 28.5t77 -28.5t32 -71.5t-32 -71.5t-77 -28.5t-76.5 28.5t-31.5 71.5z" />
<glyph unicode="&#xfb02;" horiz-adv-x="866" d="M-88 -293q0 142 51.5 355t138.5 448q-22 64 -22 111q0 36 32.5 64t75.5 42q81 193 173 367.5t179 290.5t136 116q44 0 93.5 -29t49.5 -65q0 -86 -42 -189t-110.5 -200t-144 -181t-153.5 -153q-12 -24 -27 -51q41 -88 61 -240q41 12 121 87.5t125 133.5q53 156 110.5 295 t118.5 256t122 185.5t110 68.5q45 0 99.5 -29.5t54.5 -64.5q0 -87 -43 -187.5t-110 -188.5t-133.5 -158.5t-129.5 -120.5q-43 -79 -105.5 -282.5t-62.5 -289.5q65 2 136.5 47t117.5 119q24 0 24 -22q-61 -98 -157.5 -174t-196.5 -76q-42 0 -72 25t-30 71q0 104 98 383 q-30 -36 -88 -85t-102 -67q4 -86 4 -143q0 -138 -21 -253.5t-56 -193t-81 -132t-95 -79t-98 -24.5q-85 0 -118 56t-33 157zM90 -248q0 -46 8.5 -70t32.5 -24q31 0 65.5 39.5t64 106.5t48.5 166t19 206q0 32 -1.5 62t-2.5 44l-2 15q-70 -5 -103 22q-129 -389 -129 -567z M272 446q0 -5 11 -17t21 -21l11 -9q-5 70 -24 121q-3 -11 -7 -27.5t-7.5 -30.5t-4.5 -16zM451 870q63 43 160.5 198t97.5 206q-22 -5 -117 -152t-141 -252zM909 805q56 44 150 191.5t94 195.5q-22 -5 -109.5 -143t-134.5 -244z" />
<glyph horiz-adv-x="2048" />
<glyph horiz-adv-x="2048" />
<glyph unicode="&#xd;" horiz-adv-x="2048" />
<glyph unicode=" "  horiz-adv-x="450" />
<glyph unicode="&#x09;" horiz-adv-x="450" />
<glyph unicode="&#xa0;" horiz-adv-x="450" />
<glyph unicode="!" horiz-adv-x="399" d="M59 98q0 46 33.5 76.5t81.5 30.5t81.5 -30.5t33.5 -76.5t-33.5 -76t-81.5 -30t-81.5 30t-33.5 76zM190 389q0 117 73.5 340t172 403.5t158.5 180.5q45 0 99.5 -29.5t54.5 -64.5q0 -21 -32.5 -69.5t-85.5 -121.5t-111.5 -163t-120.5 -220t-103 -266q-17 -60 -64 -60 q-16 0 -28.5 23t-12.5 47z" />
<glyph unicode="&#x22;" horiz-adv-x="561" d="M451 1051q0 49 38.5 155.5t79.5 106.5q46 0 74.5 -16t28.5 -40q0 -30 -60 -141.5t-77 -111.5q-29 0 -56.5 12.5t-27.5 34.5zM651 1028q0 49 39 155.5t80 106.5q46 0 74 -15.5t28 -39.5q0 -30 -60 -142t-77 -112q-29 0 -56.5 12.5t-27.5 34.5z" />
<glyph unicode="#" horiz-adv-x="477" d="M-78 -186q0 9 25 68t76 178t90 216q-29 0 -48.5 13t-19.5 28q0 22 94 25q3 8 26 62t30 85q-31 0 -52.5 13t-21.5 28q0 22 98 27q26 72 60 167t55.5 156.5t43.5 120t35 87t19 28.5q29 0 48.5 -9t19.5 -24q0 -10 -31.5 -79.5t-91.5 -202.5t-107 -244q85 0 156 -8 q26 71 60.5 169.5t56 159t44 121t35.5 89t19 28.5q28 0 47 -9t19 -24q0 -9 -32.5 -82t-92.5 -207.5t-107 -250.5q51 -7 51 -19q0 -88 -47 -88q-5 0 -45 8q-4 -11 -19.5 -50.5t-23.5 -61.5q60 -10 60 -21q0 -38 -12 -63t-36 -25q-12 0 -45 10q-15 -41 -35.5 -99.5t-33.5 -95 t-29 -81t-27 -71.5t-22 -52t-20 -36t-15 -11q-17 0 -31 7t-14 20q0 8 21.5 61t72 171t84.5 200q-97 23 -145 28q-19 -54 -51.5 -146t-49.5 -139t-38 -101.5t-34.5 -77.5t-23.5 -23q-17 0 -31 7t-14 20zM190 344q74 0 154 -6q25 58 47 119q-78 23 -149 28q-37 -72 -52 -141z " />
<glyph unicode="$" horiz-adv-x="696" d="M39 131q0 58 30 85.5t72 27.5q0 -32 18 -66.5t52 -54.5q92 192 170 409q-28 39 -43 63.5t-28 62t-13 75.5q0 71 50.5 127t162.5 66q7 25 20 68q25 85 35.5 115t18.5 30q28 0 46.5 -9t18.5 -24q0 -5 -7.5 -22.5t-29.5 -65.5t-41 -92q13 0 37 -4q68 200 82 200 q29 0 47.5 -8.5t18.5 -23.5q0 -8 -88 -187q80 -41 80 -115q0 -58 -30.5 -85t-72.5 -27q0 62 -35 108q-86 -189 -129 -303q24 -32 34.5 -48t27 -47.5t23.5 -64t7 -71.5q0 -105 -66 -172t-192 -82q-69 -203 -90 -203q-17 0 -31 7t-14 20q0 8 70 172h-6q-21 0 -31 2 q-70 -184 -94 -184q-17 0 -31 7t-14 19q0 5 80 168q-54 15 -84.5 49t-30.5 78zM256 104q5 0 15.5 -1t15.5 -1h10q84 196 141 342q-15 25 -37 58q-26 -70 -74.5 -205t-70.5 -193zM352 111q65 17 99 64t34 95q0 75 -30 140zM383 721q0 -59 25 -117q46 132 71 221 q-53 -8 -74.5 -38.5t-21.5 -65.5zM426 565q15 -27 35 -57q24 65 63 176t47 133q-18 9 -41 12q-47 -110 -104 -264z" />
<glyph unicode="%" horiz-adv-x="1173" d="M61 418q0 139 59 258t150.5 185.5t188.5 66.5q53 0 145.5 -33t161.5 -33q47 0 94 19.5t75 39t30 19.5q14 0 27.5 -15t13.5 -30q0 -10 -54.5 -74t-156 -183t-177.5 -216q-65 -83 -168 -224t-155.5 -206.5t-69.5 -65.5t-31 7t-14 20q0 11 58 79.5t163.5 192.5t182.5 224 q56 73 116 155.5t115 160t74 103.5q-115 -37 -203 -37q-35 0 -69 6t-70.5 17t-38.5 12v-4q57 -22 57 -110q0 -78 -25.5 -165t-69 -162t-109 -124t-136.5 -49q-79 0 -121.5 45.5t-42.5 120.5zM211 444q0 -102 65 -102q57 0 110 56.5t86.5 150.5t33.5 196q0 40 -15 60t-36 20 q-33 0 -74.5 -28t-79.5 -76t-64 -122t-26 -155zM672 158q0 98 34.5 191t88 157.5t118.5 103.5t125 39q52 0 92.5 -40.5t40.5 -116.5q0 -78 -25 -165t-67.5 -162t-107 -124t-135.5 -49q-79 0 -121.5 45.5t-42.5 120.5zM821 184q0 -102 66 -102q87 0 154 115t67 270 q0 40 -15 60t-36 20q-33 0 -73 -26.5t-77 -71.5t-61.5 -115.5t-24.5 -149.5z" />
<glyph unicode="&#x26;" horiz-adv-x="800" d="M4 186q0 82 71 160.5t189 142.5q-59 64 -59 162q0 62 33 116.5t81.5 88t99 53t89.5 19.5q65 0 112.5 -38.5t47.5 -107.5q0 -46 -23 -84t-60.5 -64.5t-74.5 -45.5t-76.5 -37t-54.5 -29q33 -33 70 -84t82.5 -120t68.5 -101q83 67 141 158q11 0 19 -11.5t8 -19.5 q-58 -96 -135 -170q81 -98 135 -98q0 -37 -33 -70t-88 -33q-68 0 -129 109q-145 -90 -291 -90q-112 0 -167.5 43t-55.5 151zM174 250q0 -152 154 -152q74 0 159 43q-8 16 -30 64t-34.5 73t-34 63.5t-44 67.5t-47.5 52q-123 -103 -123 -211zM311 657q0 -66 51 -114 q156 89 156 184q0 59 -57 59q-53 0 -101.5 -38t-48.5 -91z" />
<glyph unicode="'" horiz-adv-x="356" d="M451 1051q0 49 38.5 155.5t79.5 106.5q46 0 74.5 -16t28.5 -40q0 -30 -60 -141.5t-77 -111.5q-29 0 -56.5 12.5t-27.5 34.5z" />
<glyph unicode="(" horiz-adv-x="616" d="M35 274q0 139 42 268.5t114 230.5t166.5 185.5t200 139.5t214.5 85.5t209 30.5q27 0 46.5 -21.5t19.5 -53.5q-58 0 -127 -22t-141 -65t-142 -102.5t-131.5 -139.5t-108.5 -170.5t-74.5 -201t-27.5 -225.5q0 -158 63 -238.5t201 -80.5q0 -39 -26.5 -58.5t-69.5 -19.5 q-75 0 -150 31.5t-137.5 88t-101.5 145t-39 193.5z" />
<glyph unicode=")" horiz-adv-x="739" d="M-199 -106q68 0 150 30.5t166 85.5t162 139t139 183t98 226t37 261q0 158 -63 239t-201 81q0 39 26.5 58.5t69.5 19.5q83 0 159.5 -31.5t136.5 -88.5t96 -145t36 -194q0 -139 -42 -268.5t-114 -230.5t-166.5 -185.5t-200 -139.5t-214.5 -85.5t-209 -30.5q-27 0 -46.5 22 t-19.5 54z" />
<glyph unicode="*" horiz-adv-x="706" d="M408 946q0 21 58 45.5t118.5 36t66.5 0.5q9 -15 -88.5 -90.5t-124.5 -75.5q-11 0 -20.5 31t-9.5 53zM422 1200q0 26 23 43t49 17q20 0 61 -49t70.5 -101t21.5 -61q-12 -13 -118.5 59t-106.5 92zM642.5 920q3.5 96 19.5 100q17 4 54.5 -106t37.5 -148q-96 0 -105 29 q-10 29 -6.5 125zM666 1040q-18 6 15 133t58 127q32 0 51 -21.5t19 -49.5q0 -27 -62.5 -111t-80.5 -78zM682 1030q1 12 68.5 20t134.5 5t67 -17q0 -88 -49 -88q-22 0 -75.5 14t-100 34t-45.5 32z" />
<glyph unicode="+" horiz-adv-x="567" d="M90 453q0 26 146 26q7 0 28.5 -1t36.5 -1q14 85 31.5 150t27.5 65q89 0 89 -47q0 -8 -7.5 -31.5t-22.5 -66.5t-26 -78q207 -21 207 -41q0 -88 -47 -88q-8 0 -32 5.5t-71 17t-79 18.5q-19 -97 -19 -152q0 -29 -13 -48t-28 -19q-26 0 -26 145q0 35 6 90q-88 15 -133 15 q-29 0 -48.5 13t-19.5 28z" />
<glyph unicode="," horiz-adv-x="356" d="M-39 -178q0 4 32 16t71.5 27t77 46t46.5 69q-4 23 -27.5 42t-45 30t-21.5 16q0 43 30.5 90t76.5 47q62 0 97.5 -31.5t35.5 -81.5t-41.5 -105t-98.5 -94.5t-114.5 -65.5t-91.5 -26q-27 0 -27 21z" />
<glyph unicode="-" horiz-adv-x="466" d="M53 453q0 26 146 26q82 0 171 -8t89 -25q0 -88 -47 -88q-4 0 -108.5 27t-182.5 27q-29 0 -48.5 13t-19.5 28z" />
<glyph unicode="." horiz-adv-x="356" d="M100 98q0 46 33.5 76.5t81.5 30.5t81.5 -30.5t33.5 -76.5t-33.5 -76t-81.5 -30t-81.5 30t-33.5 76z" />
<glyph unicode="/" horiz-adv-x="436" d="M-223 -256q0 11 69 109.5t202.5 289t238.5 349.5q91 138 232 357.5t203.5 312.5t72.5 93q28 0 46.5 -8.5t18.5 -23.5q0 -10 -70.5 -105.5t-207.5 -284.5t-252 -364q-84 -127 -225 -348.5t-203.5 -312.5t-79.5 -91t-31 7t-14 20z" />
<glyph unicode="0" horiz-adv-x="749" d="M86 227q0 147 51.5 281.5t130.5 224t173 142.5t180 53q69 0 117 -54.5t48 -156.5q0 -73 -16.5 -155t-45.5 -162.5t-73 -154t-95.5 -130t-116.5 -90t-132 -33.5q-109 0 -165 63.5t-56 171.5zM272 252q0 -76 22.5 -113t76.5 -37q81 0 164 98t133.5 235t50.5 253 q0 123 -78 123q-48 0 -110.5 -41t-120.5 -111t-98 -179t-40 -228z" />
<glyph unicode="1" horiz-adv-x="403" d="M59 80q0 144 108.5 378.5t201.5 354.5h-4q-40 -36 -66.5 -56.5t-67 -39.5t-77.5 -19q-16 0 -28.5 14.5t-12.5 41.5q53 11 99.5 34.5t76.5 49t55.5 49t47.5 38.5t42 15q39 0 73 -22t34 -48q0 -11 -3.5 -22t-7 -18t-10 -17.5t-8.5 -13.5q-279 -474 -279 -723 q0 -40 -24.5 -62t-54.5 -22q-51 0 -73 26.5t-22 61.5z" />
<glyph unicode="2" horiz-adv-x="716" d="M35 98q0 38 33 78t85.5 76.5t116 74.5t127 77.5t116 78.5t85.5 83.5t33 88.5q0 52 -39.5 90.5t-112.5 38.5q-70 0 -120 -33t-50 -75q-46 0 -74 21t-28 57q0 66 86.5 120t226.5 54q94 0 170 -62.5t76 -160.5q0 -60 -39 -120t-98 -107.5t-131.5 -95.5t-137 -84.5t-117 -74 t-69.5 -65.5q37 6 138 16t194 10q60 0 95.5 -23t35.5 -59q0 -47 -26.5 -83.5t-67.5 -36.5q-52 41 -443 41q-25 0 -45 20t-20 55z" />
<glyph unicode="3" horiz-adv-x="675" d="M-147 -158q0 50 28.5 75.5t65.5 25.5q0 -154 141 -154q69 0 137 27.5t125.5 79.5t93 137t35.5 190q0 71 -38.5 110.5t-90.5 39.5q-44 0 -76.5 -10.5t-46.5 -22.5t-29 -22.5t-28 -10.5q-24 0 -40.5 20.5t-16.5 53.5q0 34 54.5 81.5t121.5 87.5t127.5 86.5t70.5 76.5 q-31 78 -305 78q0 137 135 137q174 0 268.5 -46t94.5 -118q0 -31 -44 -66t-101.5 -64t-125.5 -72t-104 -83q86 35 146 35q87 0 142.5 -57.5t55.5 -159.5t-37.5 -195t-101 -161.5t-144 -119t-169 -76.5t-174.5 -26q-83 0 -126.5 36t-43.5 87z" />
<glyph unicode="4" horiz-adv-x="792" d="M18 213q0 22 171 202t356.5 352.5t218.5 172.5q39 0 72.5 -22t33.5 -48q0 -34 -28 -71q-170 -256 -310 -584q211 -25 211 -43q0 -37 -20.5 -81t-36.5 -44q-7 0 -32 6t-73.5 17t-99.5 20q-69 -188 -69 -287q0 -40 -25 -62t-55 -22q-51 0 -72.5 26.5t-21.5 61.5 q0 97 86 304q-111 12 -256 12q-20 0 -35 31.5t-15 58.5zM158 244q102 0 215 -11q77 163 171.5 329.5t153.5 250.5h-4q-46 -20 -178 -151t-245 -262.5t-113 -155.5z" />
<glyph unicode="5" horiz-adv-x="659" d="M-172 -158q0 50 28.5 75.5t65.5 25.5q0 -65 33.5 -107.5t112.5 -42.5q70 0 132.5 15.5t117.5 49t95.5 83t63.5 122.5t23 162t-56 143t-127 54q-45 0 -82.5 -10.5t-56.5 -23.5t-34.5 -23.5t-22.5 -10.5q-24 0 -41 15.5t-17 40.5q0 12 42.5 91t91.5 190.5t61 195.5 q2 17 15 33t34 16q20 0 109 -13.5t166 -13.5q25 0 50 15t25 34q26 0 49 -22t23 -55q0 -49 -40 -85t-101 -36q-56 0 -151.5 22t-133.5 37q-21 -63 -69 -179.5t-70 -152.5h4q27 25 86.5 49.5t114.5 24.5q54 0 101 -15t87 -45.5t63 -82.5t23 -121q0 -123 -58 -233t-150.5 -184 t-207.5 -117.5t-229 -43.5q-83 0 -126.5 36t-43.5 87z" />
<glyph unicode="6" horiz-adv-x="708" d="M82 260q0 98 34 203.5t89.5 196.5t128 173.5t148.5 141t151.5 93t136.5 34.5q45 0 71.5 -35.5t26.5 -91.5q-132 -15 -248.5 -61.5t-196 -109t-132 -131t-70.5 -134.5h4q45 80 122 132t165 52q79 0 133.5 -53t54.5 -176q0 -52 -13.5 -114.5t-45.5 -132t-77 -125.5 t-115.5 -93t-153.5 -37q-101 0 -157 66t-56 202zM248 231q0 -133 117 -133q75 0 140 68t99.5 160.5t34.5 175.5q0 69 -28 105t-68 36q-45 0 -96 -30t-96 -82t-74 -131.5t-29 -168.5z" />
<glyph unicode="7" horiz-adv-x="645" d="M-66 -184q0 89 46 185t115.5 175.5t154.5 160t160 140t135 114t76 83.5q-20 20 -48.5 39.5t-78.5 43.5t-126 39t-165 15q0 137 135 137q171 0 283 -64t112 -141q0 -31 -48.5 -96t-121.5 -142.5t-158.5 -178.5t-158.5 -198.5t-121.5 -207.5t-48.5 -201q-54 0 -98 25 t-44 72z" />
<glyph unicode="8" horiz-adv-x="749" d="M74 178q0 65 25 118.5t88 105t102.5 77.5t132.5 79q9 6 14 8.5t13 7t14 8.5q-35 59 -52 89.5t-36 86.5t-19 104q0 97 73.5 168.5t188.5 71.5q80 0 136.5 -49t56.5 -125q0 -174 -195 -310q93 -171 93 -303q0 -100 -54.5 -174.5t-142.5 -111.5t-195 -37q-63 0 -112.5 18 t-76.5 47t-40.5 59.5t-13.5 61.5zM195 213q0 -59 33.5 -106.5t109.5 -47.5q91 0 153 66t62 178q0 105 -68 238q-68 -39 -113.5 -70t-89.5 -72t-65.5 -87.5t-21.5 -98.5zM522 840q0 -14 1.5 -27t7 -28t8.5 -24t12 -26.5t12.5 -23.5t15 -25.5t13.5 -23.5q71 51 110 103.5 t39 117.5q0 47 -24 74.5t-70 27.5q-56 0 -90.5 -38.5t-34.5 -106.5z" />
<glyph unicode="9" horiz-adv-x="749" d="M-172 -158q0 50 28.5 75.5t65.5 25.5q0 -32 4.5 -56.5t16.5 -49.5t39.5 -38.5t68.5 -13.5q73 0 151 34t141 85.5t116.5 111t86 113.5t42.5 90h-4q-42 -68 -109 -98.5t-137 -30.5q-104 0 -164.5 71.5t-60.5 172.5q0 122 44 234t114 189.5t156.5 124t170.5 46.5 q80 0 134 -62.5t54 -197.5t-33 -262.5t-90 -230.5t-134 -189.5t-164.5 -144.5t-181.5 -90t-185 -32q-83 0 -126.5 36t-43.5 87zM295 360q0 -85 29 -124t92 -39q83 0 153.5 59t110 154t39.5 200q0 92 -35.5 133t-89.5 41q-43 0 -95 -34.5t-97.5 -90.5t-76 -136t-30.5 -163z " />
<glyph unicode=":" horiz-adv-x="356" d="M100 98q0 46 33.5 76.5t81.5 30.5t81.5 -30.5t33.5 -76.5t-33.5 -76t-81.5 -30t-81.5 30t-33.5 76zM313 745q0 46 33.5 76.5t81.5 30.5t81.5 -30.5t33.5 -76.5t-33.5 -76t-81.5 -30t-81.5 30t-33.5 76z" />
<glyph unicode=";" horiz-adv-x="356" d="M-39 -178q0 4 32 16t71.5 27t77 46t46.5 69q-4 23 -27.5 42t-45 30t-21.5 16q0 43 30.5 90t76.5 47q62 0 97.5 -31.5t35.5 -81.5t-41.5 -105t-98.5 -94.5t-114.5 -65.5t-91.5 -26q-27 0 -27 21zM313 745q0 46 33.5 76.5t81.5 30.5t81.5 -30.5t33.5 -76.5t-33.5 -76 t-81.5 -30t-81.5 30t-33.5 76z" />
<glyph unicode="&#x3c;" horiz-adv-x="471" d="M106 436q48 51 151 118t142 67q20 0 37 -26.5t17 -53.5q0 -8 -40.5 -27.5t-98 -48t-85.5 -49.5q27 -35 61 -73.5t51 -58t17 -26.5q0 -25 -33.5 -45t-62.5 -20q-14 0 -37 44t-56 106t-63 93z" />
<glyph unicode="=" horiz-adv-x="567" d="M66 387q0 27 145 27q74 0 219 -17.5t145 -34.5q0 -88 -47 -88q-4 0 -160.5 36t-234.5 36q-29 0 -48 13t-19 28zM164 559q0 27 145 27q75 0 220 -17t145 -34q0 -89 -47 -89q-4 0 -161 36t-235 36q-29 0 -48 13t-19 28z" />
<glyph unicode="&#x3e;" horiz-adv-x="471" d="M102 283q0 8 40.5 27.5t98 48t85.5 49.5q-27 35 -61 73t-51 57.5t-17 26.5q0 25 33.5 45.5t62.5 20.5q14 0 37 -44t56 -106.5t63 -93.5q-47 -51 -150.5 -117.5t-142.5 -66.5q-20 0 -37 26.5t-17 53.5z" />
<glyph unicode="?" horiz-adv-x="716" d="M59 98q0 46 33.5 76.5t81.5 30.5t81.5 -30.5t33.5 -76.5t-33.5 -76t-81.5 -30t-81.5 30t-33.5 76zM195 350q0 42 30.5 81t80 72t109 67t118.5 72t108.5 80.5t80 99.5t30.5 122q0 54 -40 97.5t-112 43.5q-77 0 -129.5 -42t-52.5 -87q-46 0 -74.5 21t-28.5 57 q0 69 82.5 132t220.5 63q109 0 190 -60.5t81 -167.5q0 -64 -28.5 -123.5t-73.5 -105t-100 -87t-110 -77.5t-100 -69.5t-73.5 -69t-28.5 -70.5q0 -68 -30.5 -96.5t-78.5 -28.5q-30 0 -50.5 20t-20.5 56z" />
<glyph unicode="@" horiz-adv-x="1165" d="M-4 143q0 147 48 292t127.5 263t184 220t217.5 171.5t228 108.5t215 39q144 0 225.5 -55.5t81.5 -128.5q0 -56 -43 -187q-38 -114 -113.5 -290.5t-124.5 -301t-49 -176.5q57 2 123 48.5t111 119.5q26 0 26 -18q-61 -105 -148.5 -180.5t-186.5 -75.5q-50 0 -76.5 29.5 t-26.5 66.5q0 29 4.5 61.5t9 50.5t13.5 51.5t10 37.5h-4q-154 -297 -324 -297q-47 0 -88 40t-41 109q0 98 36.5 211t97 213t132 183t147.5 131.5t138 48.5q96 0 96 -107h7q86 201 86 260q0 31 -16.5 53t-37.5 27q-75 0 -168 -37t-188.5 -103t-185.5 -164t-160.5 -212.5 t-113 -257.5t-42.5 -289q0 -407 365 -407q0 -41 -40.5 -71t-96.5 -30q-86 0 -167 38t-145.5 107t-103.5 175.5t-39 232.5zM578 199q0 -33 15.5 -50.5t35.5 -17.5q56 0 147.5 129t159.5 282.5t68 225.5q0 41 -35 41q-46 0 -114.5 -66t-129 -158.5t-104 -200.5t-43.5 -185z " />
<glyph unicode="A" horiz-adv-x="1107" d="M-418 195q0 95 54.5 145.5t123.5 50.5q53 0 77 -28t24 -68q-27 0 -53 -7.5t-50.5 -24.5t-39.5 -48.5t-15 -73.5q0 -68 45.5 -116t134.5 -48q203 0 451 330q-25 27 -43.5 64.5t-18.5 72.5q0 43 15.5 84t45.5 76.5t81 57.5t116 22q24 0 64 -10q91 133 175.5 235t181 192.5 t197.5 139.5t198 49q62 0 102.5 -28t40.5 -70q0 -36 -22 -59t-54 -23q-27 0 -47 19t-20 49q-97 0 -197 -74q-71 -121 -141 -345.5t-70 -428.5q64 31 100.5 71t36.5 74q0 26 -21.5 41.5t-58.5 15.5q0 33 25.5 57.5t58.5 24.5q25 0 46.5 -22t21.5 -60q0 -69 -54 -140 t-155 -120q2 -150 38 -215t128 -65q0 -36 -36 -76.5t-77 -40.5q-49 0 -86 20.5t-58 52.5t-34 79t-17.5 92.5t-4.5 101.5q-96 -22 -207 -22q-53 0 -111 14q-126 -142 -262 -220.5t-295 -78.5q-164 0 -249 77.5t-85 203.5zM354 420q0 -24 21 -58q77 105 119 166q-11 1 -21 1 q-41 0 -75 -22q-44 -28 -44 -87zM518 266q52 -10 111 -10q89 0 162 18q0 65 -35.5 114.5t-87.5 80.5q-73 -108 -150 -203zM758 602q52 -43 96 -104q13 105 62 241t98 238h-4q-38 -44 -80 -106t-95.5 -148t-76.5 -121z" />
<glyph unicode="B" horiz-adv-x="1404" d="M-119 29q0 42 44.5 70t117.5 28q38 0 78.5 -9t64 -18t71.5 -30.5t65 -28.5q187 122 376 530q-22 22 -22 66q0 75 90 98q76 208 137 324t127 190q-14 2 -43 2q-97 0 -182 -18.5t-141.5 -47t-97.5 -63t-60 -66.5t-19 -57q0 -57 36 -79.5t147 -22.5q0 -46 -33.5 -86.5 t-75.5 -40.5q-58 0 -110 57.5t-52 141.5q0 61 44.5 121.5t126.5 110.5t214.5 81t292.5 31h10q111 106 242 106q113 0 113 -41q0 -13 -15 -18.5t-57 -5.5q-71 0 -133 -64q125 -36 203 -111t78 -180q0 -113 -72 -210.5t-197 -163.5q62 -43 101 -114.5t39 -164.5 q0 -193 -200 -312.5t-544 -119.5q-167 0 -297 29q-137 -58 -285 -58q-80 0 -131 43.5t-51 100.5zM39 -2q0 -4 4.5 -8t22 -8.5t45.5 -4.5q35 0 84 11q-84 26 -129 26q-27 0 -27 -16zM457 0q62 -8 100 -8q129 0 232 18.5t170.5 49.5t112.5 74t64 90t19 100q0 82 -28.5 141.5 t-73.5 89.5q-73 -16 -172 -23q-81 -193 -182 -324.5t-242 -207.5zM903 598q26 2 68 16q-12 9 -51 17zM958 735q113 -19 181 -49q192 97 192 297q0 49 -14 87.5t-42.5 66.5t-47 41t-51.5 32q-56 -83 -106.5 -187t-111.5 -288z" />
<glyph unicode="C" horiz-adv-x="978" d="M-119 901q0 65 37.5 95t69.5 30q75 0 75 -80q-83 0 -83 -74q0 -42 32.5 -79t104.5 -60q80 170 222.5 303.5t310.5 205t331 71.5q121 0 191.5 -40.5t70.5 -111.5q0 -81 -58.5 -156.5t-152 -132t-210 -101t-233.5 -71t-222 -34.5q-72 -169 -72 -355q0 -147 57.5 -233 t177.5 -86q93 0 168.5 46t115.5 116.5t40 146.5q0 58 -30.5 92.5t-65.5 34.5q-47 0 -71.5 -29.5t-24.5 -58.5q-41 0 -73 13.5t-32 33.5q0 50 48.5 95.5t125.5 45.5q89 0 147 -59t58 -150q0 -176 -131 -290.5t-342 -114.5q-198 0 -313 121.5t-115 337.5q0 161 61 311 q-95 26 -155 84t-60 133zM389 721q152 17 312 80t270 156.5t110 183.5q0 32 -16.5 55t-48.5 23q-92 0 -219 -75t-239.5 -191t-168.5 -232z" />
<glyph unicode="D" horiz-adv-x="1599" d="M-119 29q0 42 44.5 70t117.5 28q38 0 78.5 -9t64 -18t71.5 -30.5t65 -28.5q165 107 333 451q-74 53 -116.5 138.5t-42.5 196.5q0 214 161 350t420 136h10q111 106 242 106q113 0 113 -41q0 -13 -15 -18.5t-57 -5.5q-71 0 -133 -64q72 -21 144.5 -67.5t136 -114.5 t103.5 -165t40 -204q0 -130 -34 -242.5t-92 -195.5t-138 -149.5t-170.5 -110.5t-191.5 -73t-197.5 -41.5t-192.5 -12.5q-167 0 -297 29q-137 -58 -285 -58q-80 0 -131 43.5t-51 100.5zM39 -2q0 -4 4.5 -8t22 -8.5t45.5 -4.5q35 0 84 11q-84 26 -129 26q-27 0 -27 -16zM457 0 q62 -8 100 -8q121 0 240.5 27t234 87.5t201 148t139.5 219t53 290.5q0 158 -73 277t-176 169q-100 -150 -211 -456q-40 -117 -80 -197q74 -14 180 -14q0 -52 -54 -88.5t-120 -36.5q-37 0 -72 6q-159 -296 -362 -424zM582 877q0 -178 133 -261q38 86 86 209q107 276 229 424 q-14 2 -43 2q-179 0 -292 -98t-113 -276z" />
<glyph unicode="E" horiz-adv-x="978" d="M23 270q0 148 99.5 267.5t268.5 183.5q-23 55 -26 113q-66 15 -130.5 48t-110.5 81.5t-46 97.5q0 65 37 95t69 30q76 0 76 -80q-84 0 -84 -74q0 -39 59 -84.5t130 -60.5q10 82 50.5 153t99.5 120.5t133 84.5t150.5 51.5t151.5 16.5q122 0 198.5 -58.5t76.5 -138.5 q0 -75 -53 -131t-146 -89t-201.5 -50t-236.5 -21q0 -31 6 -55q57 8 137 8q178 0 178 -112q0 -58 -63 -94.5t-178 -36.5q-61 0 -120 25t-102 73q-180 -135 -180 -354q0 -139 67.5 -223.5t182.5 -84.5q163 0 264 84t101 201q0 56 -29 87.5t-70 31.5q-40 0 -70 -26.5t-30 -61.5 q-41 0 -72.5 13.5t-31.5 33.5q0 51 49.5 94t138.5 43q82 0 140.5 -55.5t58.5 -139.5q0 -113 -66 -200.5t-179 -134.5t-253 -47q-216 0 -330 104t-114 272zM590 877q528 8 528 208q0 59 -48 86t-122 27q-142 0 -243.5 -81.5t-114.5 -239.5zM616 715q49 -74 136 -74 q40 0 65.5 9.5t32 19t6.5 18.5q0 20 -26.5 32.5t-73.5 12.5q-70 0 -140 -18z" />
<glyph unicode="F" horiz-adv-x="1228" d="M-141 207q0 95 55 148t123 53q53 0 76.5 -30t23.5 -71q-62 0 -107.5 -33.5t-45.5 -113.5q0 -33 12.5 -65.5t37.5 -62.5t69 -48.5t100 -18.5q147 0 250.5 92.5t179.5 255.5q-20 -4 -37 -4q-53 0 -89 29.5t-36 101.5q0 108 98 200.5t236 117.5q77 196 143 289 q-10 2 -89.5 38.5t-171.5 68.5t-152 32q-127 0 -188.5 -51t-61.5 -134q0 -69 69.5 -115t182.5 -46q0 -46 -33.5 -86.5t-75.5 -40.5q-33 0 -69.5 15t-70 42.5t-55.5 75.5t-22 106q0 155 118 264t310 109q87 0 172.5 -22.5t152 -55t127 -64.5t120 -55t108.5 -24q63 0 117.5 35 t54.5 86q0 85 -84 128.5t-233 43.5q0 55 44.5 95t100.5 40q105 0 185.5 -65.5t80.5 -184.5q0 -128 -125.5 -202t-322.5 -74q-54 -82 -125 -256q126 -27 195 -102.5t69 -172.5q0 -95 -58.5 -149t-127.5 -54q-53 0 -77 28.5t-24 68.5q28 0 54 6.5t52 22t42 46t16 72.5 q0 56 -41.5 100.5t-126.5 65.5q-96 -247 -148 -348q-131 -253 -312 -354q-141 -78 -326 -78q-162 0 -251 88.5t-89 216.5zM641 518q0 -13 9 -24t22 -11q19 0 43.5 44.5t64.5 162.5q-49 -12 -82.5 -46t-45 -66t-11.5 -60z" />
<glyph unicode="G" horiz-adv-x="1226" d="M-125 -178q0 95 54.5 145.5t123.5 50.5q53 0 77 -28t24 -68q-62 0 -108 -33.5t-46 -113.5q0 -71 56 -127t165 -56q85 0 161.5 32t131 80t99 110.5t70.5 117t42 105.5q-78 -45 -164 -45q-67 0 -116 8t-93.5 30.5t-71.5 62t-43 103t-16 152.5q0 61 21 163.5t49 172.5 q-93 26 -153 84t-60 133q0 65 36.5 95t69.5 30q76 0 76 -80q-84 0 -84 -74q0 -96 137 -139q78 168 228 303t321.5 206t329.5 71q118 0 185 -38t67 -110q0 -87 -58 -165t-151.5 -134.5t-211 -100t-235.5 -68t-227 -31.5q-78 -183 -78 -363q0 -62 14 -106.5t39 -67t51.5 -32 t57.5 -9.5t57 10t36 20l10 11q27 109 92.5 247.5t140.5 240.5t121 102q44 0 93.5 -28t49.5 -64q0 -100 -42.5 -206.5t-115.5 -191.5t-157 -123q-100 -277 -283 -427t-424 -150q-164 0 -256 83.5t-92 209.5zM586 721q113 11 234 46t229.5 88.5t178.5 131.5t70 164 q0 35 -26 57.5t-72 22.5q-78 0 -194 -65t-235.5 -186t-184.5 -259zM956 195q49 20 118 116.5t69 190.5q-19 -13 -94 -131t-93 -176z" />
<glyph unicode="H" horiz-adv-x="1673" d="M-272 -285q0 70 50 142.5t131.5 135t190 122t219 105.5t226.5 83q36 87 92.5 251.5t107 282t115.5 210.5q-10 2 -88 38.5t-168.5 68.5t-150.5 32q-127 0 -188.5 -51t-61.5 -134q0 -69 69.5 -115t182.5 -46q0 -46 -33.5 -86.5t-75.5 -40.5q-33 0 -69.5 15t-70 42.5 t-55.5 75.5t-22 106q0 155 118 264t310 109q75 0 151.5 -17.5t125 -38.5t91 -41t52.5 -22q37 59 98 89t103 30q34 0 53.5 -17t19.5 -44q0 -40 -21 -79.5t-53.5 -69t-62.5 -49.5t-57 -32q-70 -107 -123.5 -226.5t-103.5 -263t-60 -169.5q106 34 227 76q54 202 179.5 402.5 t280.5 330t284 129.5q67 0 114.5 -37t47.5 -115q0 -86 -38 -169t-100.5 -152t-151.5 -136t-181.5 -119t-200.5 -102q-47 -162 -47 -319q0 -115 43 -175.5t106 -60.5q55 0 102.5 31.5t75.5 77.5t44 92t16 80q0 153 -90 153q-45 0 -76 -30.5t-31 -59.5q-41 0 -72.5 13.5 t-31.5 33.5q0 54 50.5 108t133.5 54q89 0 143 -59.5t54 -155.5q0 -58 -17.5 -117t-52 -112t-81.5 -94t-111.5 -65.5t-137.5 -24.5q-49 0 -97 20.5t-91.5 62t-70.5 117.5t-27 176q0 75 14 144q-42 -18 -128 -54t-128 -53q-174 -398 -346 -567.5t-404 -169.5q-245 0 -245 186z M-115 -309q0 -57 26.5 -84t86.5 -27q229 0 500 598q-179 -80 -301.5 -149.5t-189.5 -128.5t-94.5 -108.5t-27.5 -100.5zM1251 549q64 27 132.5 62t151.5 90.5t146.5 114t106.5 133t43 147.5q0 61 -68 61q-115 0 -270 -180t-242 -428z" />
<glyph unicode="I" horiz-adv-x="849" d="M-223 207q0 95 55 148t123 53q53 0 76.5 -30t23.5 -71q-62 0 -107.5 -33.5t-45.5 -113.5q0 -33 12.5 -65.5t37.5 -62.5t69 -48.5t100 -18.5q95 0 173.5 41.5t134.5 114t101.5 162t84.5 196t74 204t79.5 197.5t91.5 167q-10 2 -88 38.5t-168.5 68.5t-150.5 32 q-127 0 -188.5 -51t-61.5 -134q0 -69 69.5 -115t182.5 -46q0 -46 -33.5 -86.5t-75.5 -40.5q-33 0 -69.5 15t-70 42.5t-55.5 75.5t-22 106q0 155 118 264t310 109q75 0 151.5 -17.5t125 -38.5t91 -41t52.5 -22q37 59 84 83t88 24q33 0 54.5 -23t21.5 -51q0 -41 -17 -76 t-45 -60t-53 -41t-53 -28q-37 -56 -75.5 -143.5t-69.5 -174t-73 -186t-85 -187t-106 -170t-135.5 -141.5t-174 -94.5t-221.5 -35.5q-162 0 -251 88.5t-89 216.5z" />
<glyph unicode="J" horiz-adv-x="849" d="M-453 -166q0 95 55.5 148t123.5 53q53 0 76.5 -30t23.5 -71q-62 0 -108 -33.5t-46 -113.5q0 -33 12.5 -65.5t37.5 -62.5t69 -48.5t100 -18.5q84 0 162.5 41.5t142 111t127 169.5t115 207.5t107.5 235t103 241t104 237t108 212.5q-10 2 -88 38.5t-168.5 68.5t-150.5 32 q-127 0 -188.5 -51t-61.5 -134q0 -69 69.5 -115t182.5 -46q0 -46 -33.5 -86.5t-75.5 -40.5q-33 0 -69.5 15t-70 42.5t-55.5 75.5t-22 106q0 155 118 264t310 109q75 0 151.5 -17.5t125 -38.5t91 -41t52.5 -22q37 59 84 83t88 24q33 0 54.5 -23t21.5 -51q0 -41 -17 -76 t-45 -60t-53 -41t-53 -28q-56 -103 -117.5 -240t-107.5 -255t-105 -250.5t-114.5 -238.5t-131.5 -206t-159 -167t-194.5 -107.5t-240.5 -40.5q-162 0 -251 88.5t-89 216.5z" />
<glyph unicode="K" horiz-adv-x="1447" d="M-223 207q0 95 55 148t123 53q53 0 76.5 -30t23.5 -71q-62 0 -107.5 -33.5t-45.5 -113.5q0 -33 12.5 -65.5t37.5 -62.5t69 -48.5t100 -18.5q60 0 113 17t94.5 44t81 72.5t68 89.5t59.5 108.5t52 116t48 124.5q-33 23 -51.5 55t-18.5 57q0 47 42 81t116 44q67 176 135 273 q-10 2 -88 38.5t-168.5 68.5t-150.5 32q-127 0 -188.5 -51t-61.5 -134q0 -69 69.5 -115t182.5 -46q0 -46 -33.5 -86.5t-75.5 -40.5q-33 0 -69.5 15t-70 42.5t-55.5 75.5t-22 106q0 155 118 264t310 109q75 0 151.5 -17.5t125 -38.5t91 -41t52.5 -22q37 59 84 83t88 24 q33 0 54.5 -23t21.5 -51q0 -41 -17 -76t-45 -60t-53 -41t-53 -28q-55 -84 -129 -272q36 -9 63 -23q21 19 42 46.5t33 47t40.5 69t42.5 73.5q126 217 254.5 319.5t267.5 102.5q64 0 114 -37t50 -105q0 -82 -72.5 -150.5t-167.5 -68.5q-40 0 -63 36.5t-23 86.5q106 0 177 36.5 t71 90.5q0 25 -22 41t-43 16q-81 0 -150 -73.5t-158 -233.5q-66 -120 -153.5 -224.5t-147.5 -135.5q74 -74 74 -178q0 -79 -38 -174t-38 -164q0 -152 123 -152q59 0 102.5 45t43.5 123q0 67 -44.5 104t-127.5 37q0 24 21 53t56 29q69 0 117.5 -52.5t48.5 -141.5 q0 -119 -90 -196t-209 -77q-116 0 -174.5 60.5t-58.5 148.5q0 66 40 171.5t40 152.5q0 44 -24 68.5t-46 29.5q-32 -19 -59 -31q-31 -75 -59 -135t-68 -127.5t-81.5 -118.5t-96.5 -99.5t-116 -80t-138 -50.5t-164 -19q-162 0 -251 88.5t-89 216.5z" />
<glyph unicode="L" horiz-adv-x="901" d="M-299 137q0 86 69 142.5t162 56.5q96 0 189.5 -38.5t202.5 -135.5q62 89 121 230t131.5 343.5t125.5 325.5q-155 59 -155 235q0 44 15.5 78.5t38 51.5t42 25.5t31.5 8.5q43 0 73.5 -27.5t30.5 -70.5q-41 0 -72.5 -33.5t-31.5 -79.5q0 -84 61 -123q101 201 213 312.5 t248 111.5q190 0 190 -157q0 -92 -64.5 -170t-159 -124t-199.5 -61q-55 -153 -93 -251.5t-93.5 -224.5t-103.5 -211t-110.5 -167t-128.5 -135q59 -66 120.5 -143.5t97.5 -124.5t75.5 -90t74 -62.5t72.5 -19.5q33 0 53.5 20.5t20.5 53.5q0 135 -229 135q0 135 112 135 q76 0 136.5 -66t60.5 -153q0 -51 -18 -91.5t-45.5 -64.5t-63.5 -39.5t-69 -21.5t-66 -6q-58 0 -105.5 15.5t-84 35t-96.5 83.5t-101 112t-139 170q-9 11 -13 16q-102 -29 -213 -29q-147 0 -230 60t-83 163zM-193 102q0 -48 55 -86.5t152 -38.5q84 0 152 35 q-72 73 -144 114.5t-128 41.5q-46 0 -66.5 -19t-20.5 -47zM997 1112q142 28 236 103t94 165q0 24 -16 41t-41 17q-74 0 -136.5 -81.5t-136.5 -244.5z" />
<glyph unicode="M" horiz-adv-x="1425" d="M-420 207q0 95 54.5 145.5t123.5 50.5q53 0 77 -28t24 -68q-62 0 -108 -33.5t-46 -113.5q0 -73 50.5 -128t158.5 -55q78 0 149.5 29t138.5 100t115 130t113 181t97 187t99 210q3 7 5 11l5 10t5 11q96 207 202.5 337t200.5 130q54 0 80.5 -29t26.5 -63q0 -8 -46.5 -129 t-102.5 -271.5t-102.5 -329.5t-47.5 -288l4 -2q29 114 142.5 330.5t247 426.5t268.5 366.5t200 156.5q50 0 80.5 -25.5t30.5 -77.5q0 -22 -29.5 -69t-76 -112.5t-103 -148t-113.5 -185.5t-103.5 -213.5t-76 -245t-29.5 -267.5q0 -59 22.5 -117.5t71.5 -100.5t113 -42 q0 -56 -58 -96.5t-108 -40.5q-108 0 -182 113t-74 335q0 78 23 172.5t57 180t84.5 184t92 169.5t94.5 152t78 116l55 77h-4q-64 -55 -165 -190.5t-203.5 -301t-188 -352.5t-113.5 -325q-13 -68 -47.5 -112t-67.5 -44q-58 0 -96.5 44.5t-38.5 139.5q0 375 289 1004l-4 2 q-44 -30 -114 -126t-136 -243q-38 -85 -63 -139t-63.5 -131.5t-68.5 -128t-72 -114t-79.5 -104t-86.5 -83t-97.5 -66.5t-107 -39.5t-120.5 -15.5q-163 0 -249.5 83t-86.5 210z" />
<glyph unicode="N" horiz-adv-x="1222" d="M-260 207q0 95 54.5 145.5t123.5 50.5q53 0 76.5 -28t23.5 -68q-62 0 -107.5 -33.5t-45.5 -113.5q0 -73 50.5 -128t158.5 -55q91 0 177 46t155.5 124t134.5 179t119.5 212.5t105 223t96 212.5t87.5 179t84.5 124t82.5 46q62 0 109 -41.5t47 -93.5q0 -21 -26.5 -72.5 t-64 -129t-75 -178t-64 -250.5t-26.5 -316h4q95 383 233.5 677t296 453.5t308.5 159.5q61 0 102.5 -15.5t60.5 -42t26 -49.5t7 -49q-119 0 -233 -40.5t-230.5 -137t-215 -241.5t-183 -368t-137.5 -503q-19 -99 -39 -135.5t-58 -36.5q-77 0 -115 67.5t-38 186.5 q0 137 23.5 288t61.5 280.5t67.5 213.5t58.5 152h-4q-17 -16 -48 -77.5t-67 -147t-86.5 -191.5t-106 -212.5t-126.5 -208t-146 -179t-168 -125t-188 -47.5q-163 0 -249.5 83t-86.5 210z" />
<glyph unicode="O" horiz-adv-x="1388" d="M35 373q0 145 52 287t143 258t207.5 206t253.5 139.5t272 49.5q230 0 327 -156q14 2 43 2q118 0 187 -74t69 -190q0 -127 -80.5 -224.5t-216.5 -140.5q-67 -180 -201 -322.5t-292 -218t-310 -75.5q-112 0 -200 35.5t-142.5 99t-83 145.5t-28.5 179zM289 334 q0 -85 24 -146t66 -93.5t89.5 -47t102.5 -14.5q129 0 253.5 58t224.5 166.5t157 250.5q-62 -10 -119 -10q-203 0 -339 126.5t-136 338.5q0 45 25 106q-154 -112 -251 -299.5t-97 -435.5zM848 905q0 -156 87.5 -243t219.5 -87q34 0 78 7q39 128 39 266q0 105 -31 186 q-45 -24 -70.5 -69.5t-25.5 -96.5q-41 0 -73 13.5t-32 33.5q0 71 35.5 123.5t95.5 83.5q-56 43 -120 43q-84 0 -143.5 -69t-59.5 -191zM1317 602q90 32 142 99.5t52 164.5q0 87 -46.5 136.5t-133.5 52.5q23 -94 23 -195q0 -140 -37 -258z" />
<glyph unicode="P" horiz-adv-x="1304" d="M-223 207q0 95 55 148t123 53q53 0 76.5 -30t23.5 -71q-62 0 -107.5 -33.5t-45.5 -113.5q0 -72 54 -133.5t155 -61.5q84 0 163 53t145.5 144t129 202.5t122.5 239.5t115.5 244t120 225.5t123.5 175.5q-14 2 -43 2q-97 0 -182 -18.5t-141.5 -47t-97.5 -63t-60 -66.5 t-19 -57q0 -57 36 -79.5t147 -22.5q0 -46 -33.5 -86.5t-75.5 -40.5q-58 0 -109 57t-51 142q0 49 27 97.5t83.5 93t135 78.5t190 54.5t240.5 20.5h10q111 106 242 106q113 0 113 -41q0 -13 -15 -18.5t-57 -5.5q-71 0 -133 -64q128 -27 213.5 -119.5t85.5 -212.5 q0 -93 -41.5 -175.5t-104 -137.5t-137 -96t-141 -59.5t-115.5 -18.5q-50 0 -85 39.5t-40 97.5q-39 -87 -72 -152.5t-78.5 -143t-89 -133.5t-101.5 -111t-118.5 -89.5t-136.5 -55.5t-159 -21q-162 0 -251 88.5t-89 216.5zM895 659q126 4 234 46t176.5 120.5t68.5 178.5 q0 90 -54 146t-136 75q-32 -39 -62 -87t-62.5 -114.5t-52.5 -110t-58.5 -131.5t-53.5 -123z" />
<glyph unicode="Q" horiz-adv-x="1245" d="M-113 72q0 72 42 127t102 80.5t125 25.5q209 0 424 -258q95 31 189 81t186 125t161.5 162.5t112.5 201.5t43 235q0 171 -97.5 259.5t-248.5 88.5q-87 0 -172.5 -29t-156 -80t-125 -117.5t-85 -145.5t-31.5 -158v-7q0 -278 228 -278q121 0 200.5 77.5t79.5 166.5 q0 59 -26.5 89t-65.5 30q-45 0 -68.5 -35t-23.5 -68q-54 0 -80.5 20t-26.5 52q0 48 48.5 87.5t126.5 39.5q90 0 142 -48.5t52 -138.5q0 -149 -123 -249.5t-303 -100.5q-85 0 -154.5 23t-115 60t-76 86t-43.5 100q-12 46 -12 95v7q1 68 24.5 141t67 143.5t110.5 134 t147.5 111.5t184.5 76.5t217 28.5q124 0 221.5 -36.5t156.5 -98.5t89.5 -140t30.5 -166q0 -142 -49.5 -272t-127.5 -225.5t-180 -175t-200 -129t-195 -78.5q22 -29 62 -81t60 -77t53.5 -66.5t53.5 -62.5t49 -50.5t50.5 -44t48 -29.5t52 -21t51.5 -6q147 0 147 114 q0 58 -55 84.5t-133 26.5q0 51 29.5 86t84.5 35q84 0 147.5 -45t63.5 -117t-50.5 -129t-126.5 -86t-159 -29q-174 0 -313.5 91t-331.5 329q-109 -39 -256 -39q-68 0 -123 20t-92 66t-37 111zM8 33q0 -45 43.5 -69.5t116.5 -24.5q87 0 190 32q-64 82 -119.5 113t-121.5 31 q-41 0 -75 -21t-34 -61z" />
<glyph unicode="R" horiz-adv-x="1474" d="M-223 207q0 95 55 148t123 53q53 0 76.5 -30t23.5 -71q-62 0 -107.5 -33.5t-45.5 -113.5q0 -72 54 -133.5t155 -61.5q47 0 93 17.5t85.5 46.5t81 75.5t75 94t72 113.5t68.5 123.5t67 133.5q-49 30 -49 80q0 40 28.5 69.5t112.5 41.5q83 176 149 294t136 195q-14 2 -43 2 q-97 0 -182 -18.5t-141.5 -47t-97.5 -63t-60 -66.5t-19 -57q0 -57 36 -79.5t147 -22.5q0 -46 -33.5 -86.5t-75.5 -40.5q-58 0 -110 57.5t-52 141.5q0 61 44.5 121.5t126.5 110.5t214.5 81t292.5 31h10q111 106 242 106q113 0 113 -41q0 -13 -15 -18.5t-57 -5.5 q-71 0 -133 -64q128 -27 210.5 -113.5t82.5 -199.5q0 -68 -23.5 -127.5t-60 -101.5t-85 -76.5t-94 -54.5t-91.5 -33q18 -40 18 -86q0 -79 -38 -174t-38 -164q0 -152 123 -152q59 0 102 45t43 123q0 67 -44.5 104t-127.5 37q0 23 21.5 52.5t56.5 29.5q69 0 117.5 -52.5 t48.5 -141.5q0 -119 -90 -196t-209 -77q-116 0 -174.5 60.5t-58.5 148.5q0 66 40 171.5t40 152.5q0 38 -12.5 62.5t-28.5 29.5q-58 -4 -119 -8q-43 -93 -82.5 -165.5t-91.5 -150.5t-108.5 -134.5t-124 -103t-149 -70t-173.5 -23.5q-162 0 -251 88.5t-89 216.5zM938 760 q51 -11 106 -41q136 23 233 100t97 185q0 92 -49 139.5t-143 75.5q-43 -54 -89.5 -137.5t-74.5 -143.5t-80 -178z" />
<glyph unicode="S" horiz-adv-x="978" d="M-256 268q0 66 30.5 121.5t79 91t107 55t117.5 19.5q53 0 76.5 -28t23.5 -68q-131 0 -220 -66t-89 -172q0 -28 9.5 -61.5t36 -74t66.5 -72.5t109 -54t156 -22q62 0 125.5 12.5t128 42t114 72t80.5 109t31 146.5q0 66 -34 124t-65 84.5t-102 76.5q-11 8 -16 12 q-101 73 -147 116t-66 97q-148 22 -236 85t-88 147q0 36 12 64.5t28.5 44.5t37 26.5t35.5 14t25 3.5q37 0 56 -18t19 -61q-44 0 -79 -27t-35 -76q0 -52 55 -94.5t158 -60.5q-4 36 -4 61q0 97 79.5 185t199 139t239.5 51q159 0 236 -56t77 -141q0 -86 -75 -150t-195.5 -98.5 t-278.5 -44.5q25 -18 79.5 -49.5t76.5 -46.5q254 -165 254 -362q0 -81 -28.5 -151t-75 -119.5t-109 -89t-127.5 -63.5t-133.5 -40t-124 -22.5t-101.5 -6.5q-115 0 -207.5 25.5t-151 65.5t-98 93.5t-55.5 105.5t-16 105zM483 942q0 -36 31 -76q98 5 185 20.5t158 42t113 67 t42 89.5q0 113 -195 113q-140 0 -237 -75t-97 -181z" />
<glyph unicode="T" horiz-adv-x="870" d="M-223 207q0 95 55 148t123 53q53 0 76.5 -30t23.5 -71q-62 0 -107.5 -33.5t-45.5 -113.5q0 -33 12.5 -65.5t37.5 -62.5t69 -48.5t100 -18.5q95 0 173.5 41.5t134.5 114t101.5 162t84.5 196t74 204t79.5 197.5t91.5 167q-10 2 -88 38.5t-168.5 68.5t-150.5 32 q-127 0 -188.5 -51t-61.5 -134q0 -69 69.5 -115t182.5 -46q0 -46 -33.5 -86.5t-75.5 -40.5q-33 0 -69.5 15t-70 42.5t-55.5 75.5t-22 106q0 155 118 264t310 109q84 0 163.5 -21.5t139.5 -52t115 -61.5t111 -52.5t106 -21.5q77 0 135.5 32.5t58.5 94.5q0 74 -78 119t-221 45 q0 73 39 121.5t95 48.5q76 0 149 -30t124.5 -92.5t51.5 -143.5q0 -119 -132.5 -204t-348.5 -85q-42 -64 -84.5 -155.5t-74.5 -178t-74.5 -185t-84.5 -182.5t-104 -163t-133.5 -134.5t-172 -88.5t-220.5 -33q-162 0 -251 88.5t-89 216.5z" />
<glyph unicode="U" horiz-adv-x="1181" d="M-45 985q0 174 136.5 300t328.5 126q83 0 149.5 -25t107.5 -64.5t68.5 -91.5t38.5 -103t11 -103q0 -77 -30.5 -156.5t-76.5 -144.5t-100 -139.5t-100 -140t-76.5 -147t-30.5 -159.5q0 -79 33 -118t90 -39q87 0 169.5 87.5t156.5 240t139.5 313.5t149 355t155.5 318 q8 6 32.5 12.5t53.5 6.5q38 0 67 -19t29 -55q0 -18 -5.5 -35.5t-11 -29t-28.5 -54.5q-189 -343 -291 -615.5t-102 -389.5q0 -13 9.5 -23t21.5 -10q55 0 110.5 46t122.5 136q10 0 17.5 -6t7.5 -16q-60 -103 -151 -176.5t-187 -73.5q-119 0 -119 121q0 103 39 217h-4 q-174 -420 -453 -420q-113 0 -171 83t-58 212q0 81 30 161.5t74.5 142t97 129.5t97 126t74.5 130t30 142q0 64 -11.5 115.5t-37 93.5t-71 65t-107.5 23q-147 0 -246.5 -89.5t-99.5 -229.5q0 -213 166 -213q75 0 123.5 71.5t48.5 155.5q42 0 73 -22.5t31 -59.5 q0 -97 -90.5 -173.5t-200.5 -76.5q-113 0 -171 82.5t-58 206.5z" />
<glyph unicode="V" horiz-adv-x="1525" d="M59 -25q0 33 18.5 49.5t43.5 16.5q49 0 49 -59q73 0 135 40t109.5 111t89 158.5t82 191.5t79 201t89.5 196t106 167q-10 2 -90 38.5t-173 68.5t-153 32q-127 0 -188 -51t-61 -134q0 -68 73 -114.5t187 -46.5q0 -46 -33.5 -86.5t-75.5 -40.5q-33 0 -69.5 15t-70 42.5 t-55.5 75.5t-22 106q0 155 118 264t310 109q75 0 151.5 -17.5t125 -38.5t91 -41t52.5 -22q37 59 84 83t88 24q33 0 54.5 -23t21.5 -51q0 -41 -17 -76t-45 -60t-53 -41t-53 -28q-57 -79 -116.5 -209t-108.5 -250.5t-107.5 -240t-139.5 -211t-179 -131.5v-4q210 29 415 117.5 t365 212.5t259 285.5t99 324.5q0 112 -53.5 172.5t-126.5 60.5q0 55 56.5 103.5t121.5 48.5q79 0 142 -73.5t63 -199.5q0 -150 -59 -290t-159 -250.5t-232.5 -206.5t-280 -164.5t-300.5 -117.5t-295.5 -73t-262.5 -24q-45 0 -72 15.5t-27 45.5z" />
<glyph unicode="W" horiz-adv-x="2236" d="M59 -25q0 33 18.5 49.5t43.5 16.5q49 0 49 -59q73 0 135 40t109.5 111t89 158.5t82 191.5t79 201t89.5 196t106 167q-10 2 -90 38.5t-173 68.5t-153 32q-127 0 -188 -51t-61 -134q0 -68 73 -114.5t187 -46.5q0 -46 -33.5 -86.5t-75.5 -40.5q-33 0 -69.5 15t-70 42.5 t-55.5 75.5t-22 106q0 155 118 264t310 109q75 0 151.5 -17.5t125 -38.5t91 -41t52.5 -22q37 59 84 83t88 24q33 0 54.5 -23t21.5 -51q0 -41 -17 -76t-45 -60t-53 -41t-53 -28q-57 -79 -116.5 -209t-108.5 -250.5t-107.5 -240t-139.5 -211t-179 -131.5v-4q166 23 377 184 t416 412.5t368 543.5q30 54 63 91.5t58 55t57 27t45.5 10.5t38.5 1q33 0 54.5 -23t21.5 -51q0 -41 -17 -76t-45 -60t-53 -41t-53 -28q-49 -68 -100 -172t-89 -202t-88 -207t-99.5 -196t-121 -159.5t-154.5 -105.5v-4q138 19 283 74.5t275.5 135t246.5 182t200.5 212 t133.5 228.5t49 229q0 76 -27 139t-67.5 99t-82.5 55.5t-77 19.5q0 55 57 103t122 48q81 0 145.5 -50.5t98.5 -130.5t34 -171q0 -132 -47.5 -261.5t-130.5 -239.5t-194.5 -212t-239 -183t-265 -147.5t-272 -111t-260 -68.5t-229.5 -24q-45 0 -72 15.5t-27 45.5 q0 33 18.5 49.5t43.5 16.5q49 0 49 -59q45 0 85 16t72 41t63 67t54 81.5t49.5 97t44.5 102t43.5 108t43.5 103.5h-5q-196 -252 -381 -403.5t-366.5 -216t-394.5 -64.5q-45 0 -72 15.5t-27 45.5z" />
<glyph unicode="X" horiz-adv-x="1703" d="M-174 207q0 95 54.5 145.5t123.5 50.5q53 0 76.5 -28t23.5 -68q-62 0 -107.5 -33.5t-45.5 -113.5q0 -71 56 -127t165 -56q103 0 204 44.5t188 129t153.5 197.5t104.5 260t38 307q0 147 -57.5 233.5t-177.5 86.5q-93 0 -168.5 -46t-115.5 -116.5t-40 -146.5 q0 -58 30.5 -92.5t65.5 -34.5q47 0 72 30t25 58q41 0 72.5 -13.5t31.5 -33.5q0 -50 -46.5 -94t-123.5 -44q-90 0 -145.5 52.5t-55.5 142.5q0 178 128 297t337 119q149 0 253 -70t147 -199q82 115 240 192t345 77q63 0 116 -13.5t97.5 -41.5t69.5 -78.5t25 -118.5 q0 -89 -67 -144t-132 -55q-53 0 -76.5 28t-23.5 68q29 0 55.5 6t54.5 20t45 44t17 72q0 64 -48.5 106.5t-134.5 42.5q-104 0 -218 -77t-208 -202.5t-155.5 -301.5t-61.5 -357q0 -146 58 -232.5t178 -86.5q70 0 131.5 27t103 71t65 99.5t23.5 111.5q0 58 -30.5 92.5 t-65.5 34.5q-47 0 -71.5 -29.5t-24.5 -58.5q-41 0 -73 13.5t-32 33.5q0 50 46.5 93.5t123.5 43.5q90 0 145.5 -52t55.5 -142q0 -178 -128 -297t-337 -119q-149 0 -252.5 69.5t-146.5 198.5q-59 -55 -98.5 -87.5t-99.5 -71.5t-117.5 -59.5t-137.5 -35t-174 -14.5 q-164 0 -256 83.5t-92 209.5z" />
<glyph unicode="Y" horiz-adv-x="1222" d="M-88 -166q0 95 55 148t123 53q53 0 76.5 -30t23.5 -71q-62 0 -107.5 -33.5t-45.5 -113.5q0 -33 12.5 -65.5t37.5 -62.5t69 -48.5t100 -18.5q72 0 136.5 18.5t117 50t102.5 82.5t89.5 106.5t80.5 133t74 151t72 169.5h-4q-41 -65 -76.5 -114.5t-83 -100t-94 -82.5 t-105.5 -52t-123 -20q-95 0 -159 70t-64 191q0 92 37.5 185.5t90.5 172.5t106.5 156t91 162.5t37.5 164.5q0 64 -12 115.5t-37.5 93.5t-71 65t-107.5 23q-147 0 -246.5 -89.5t-99.5 -229.5q0 -213 166 -213q75 0 123.5 71.5t48.5 155.5q42 0 73.5 -22.5t31.5 -59.5 q0 -97 -90.5 -173.5t-200.5 -76.5q-113 0 -171.5 83t-58.5 206q0 174 136.5 300t328.5 126q83 0 149.5 -25t107.5 -64.5t68.5 -91.5t38.5 -103t11 -103q0 -74 -20.5 -147t-54 -134.5t-73.5 -121.5t-79.5 -118.5t-73 -115.5t-54 -122.5t-20.5 -129.5q0 -66 32 -93.5t77 -27.5 q49 0 98 21t90 52t85 84t76.5 99.5t72.5 116.5t64.5 117t60.5 119q8 16 115 265t182 378q13 23 40.5 35t47.5 12q44 0 73 -23.5t29 -58.5q0 -49 -37 -111q-53 -88 -108 -198.5t-98.5 -211.5t-93.5 -214t-94.5 -211.5t-100 -198.5t-110.5 -181t-125.5 -152.5t-146.5 -120 t-171 -76t-201 -27.5q-162 0 -251 88.5t-89 216.5z" />
<glyph unicode="Z" horiz-adv-x="999" d="M-68 106q0 46 107.5 142t269 211.5t328.5 233.5t310 233.5t190 185.5q-16 -9 -42 -23t-93 -37.5t-117 -23.5q-51 0 -102 17.5t-93 42t-81 49t-80.5 42t-77.5 17.5q-116 0 -183 -48t-67 -108q0 -62 77 -108q68 -40 170 -40q13 0 27 1q0 -64 -43.5 -110t-89.5 -46 q-33 0 -69.5 15t-70 43t-55.5 76t-22 106q0 153 113 263t286 110q65 0 132.5 -24t114 -53t103.5 -53t103 -24q44 0 86.5 15.5t68 34.5t47 34.5t29.5 15.5q37 0 74 -27.5t37 -82.5q0 -46 -180.5 -194t-402 -306.5t-428 -318.5t-245.5 -220q199 129 334 129q55 0 103 -20.5 t83 -50t66.5 -59t66 -50t68.5 -20.5q67 0 146 55.5t135 144.5q13 0 24 -8.5t11 -19.5q-52 -80 -123.5 -153.5t-160 -127t-163.5 -53.5q-40 0 -80.5 23.5t-68 51t-68 51t-80.5 23.5q-54 0 -117.5 -30t-114.5 -60t-75 -30q-41 0 -79 41t-38 122z" />
<glyph unicode="[" horiz-adv-x="497" d="M-12 -102q0 10 41.5 112t113 277t121.5 307q44 116 109 301.5t98 272.5t43 87q23 0 196.5 -5.5t186.5 -8.5q0 -22 -8 -61.5t-17 -61.5q-28 0 -108 9.5t-98 9.5q-60 -101 -234 -551q-224 -582 -219 -619q6 -4 36.5 -4.5t73 1t50.5 1.5q0 -14 -20 -64.5t-27 -50.5 q-31 0 -184.5 18t-153.5 30z" />
<glyph unicode="\" horiz-adv-x="419" d="M41 1223q0 16 25 24t57 8q10 0 23.5 -69.5t44 -253.5t59.5 -334q29 -153 64 -319.5t50 -241t15 -96.5q0 -13 -19 -20t-38 -7q-16 0 -29.5 74t-39.5 255t-56 332q-35 179 -74.5 336t-60.5 229t-21 83z" />
<glyph unicode="]" horiz-adv-x="559" d="M-78 -180q0 22 8 61.5t17 61.5q28 0 108.5 -9.5t98.5 -9.5q59 101 233 551q224 582 219 619q-6 4 -36.5 4.5t-73 -1t-50.5 -1.5q0 14 20.5 64t27.5 50q32 0 184.5 -17.5t152.5 -29.5q0 -10 -41.5 -112.5t-113.5 -278t-121 -305.5q-44 -117 -109 -302t-98 -272.5 t-43 -87.5q-22 0 -196 6t-187 9z" />
<glyph unicode="^" horiz-adv-x="567" d="M145 365q0 20 48 66t174 153q176 -206 176 -246q0 -18 -27 -31.5t-59 -13.5q-7 0 -23.5 29t-41.5 74t-44 71q-18 -12 -58.5 -45t-72.5 -58.5t-39 -25.5q-33 0 -33 27z" />
<glyph unicode="_" horiz-adv-x="284" d="M0 -244h285v-43h-285v43z" />
<glyph unicode="`" d="M379 1151q0 25 29 57.5t71 32.5q8 -39 43 -86t65.5 -84t30.5 -55v-2q0 -7 -1 -10.5t-7.5 -7t-19.5 -3.5q-11 15 -111 72.5t-100 85.5z" />
<glyph unicode="a" horiz-adv-x="729" d="M2 152q0 143 86.5 326.5t217.5 316.5t245 133q96 0 96 -119h4q13 35 30 64t29 42t17 13q57 0 91 -29.5t34 -56.5q0 -42 -57 -135q-65 -104 -147.5 -310t-82.5 -305q141 20 236 176q24 0 24 -18q-10 -27 -39 -67.5t-72 -84.5t-104 -75t-121 -31q-36 0 -61 22.5t-25 61.5 q0 84 54 213h-4q-156 -297 -324 -297q-22 0 -41 6t-40 21.5t-33.5 49.5t-12.5 83zM182 199q0 -64 54 -64q55 0 145.5 126t158.5 278.5t68 228.5q0 41 -35 41q-64 0 -158 -109t-163.5 -255.5t-69.5 -245.5z" />
<glyph unicode="b" horiz-adv-x="774" d="M16 147q0 79 42 230q42 155 112.5 331t152 337.5t171 267.5t157.5 106q45 0 94.5 -29t49.5 -65q0 -136 -98 -277.5t-220 -181.5q-107 -170 -181.5 -353.5t-74.5 -293.5q0 -55 18 -71.5t50 -16.5q53 0 121.5 53t117.5 117.5t62 106.5q-47 102 -47 182q0 71 19 137 t45.5 108t53 67.5t44.5 25.5q54 0 94.5 -25.5t40.5 -75.5q0 -58 -41 -175.5t-105 -231.5q9 -39 35 -39q30 0 77.5 33.5t86.5 89.5q24 0 27 -23q-32 -54 -103 -120t-121 -66q-19 0 -34 9.5t-20 18.5l-5 9q-99 -163 -217 -251.5t-268 -88.5q-67 0 -101.5 42t-34.5 113z M502 928q62 25 122 110t60 154q-27 -18 -77 -85.5t-105 -178.5zM666 506q3 6 8 18q41 95 45 130q2 14 2 30q-23 -14 -39 -61.5t-16 -116.5z" />
<glyph unicode="c" horiz-adv-x="516" d="M0 240q0 120 51 246.5t128.5 222.5t173.5 157.5t182 61.5q56 0 92.5 -37.5t36.5 -81.5q0 -90 -51.5 -144.5t-100.5 -54.5q-33 0 -49.5 31.5t-16.5 63.5q47 0 100.5 26t53.5 60q0 30 -27 30q-44 0 -108 -50t-123.5 -128t-102 -185.5t-42.5 -209.5q0 -150 127 -150 q68 0 126.5 39.5t96.5 100.5q11 0 18.5 -11.5t7.5 -19.5q-62 -101 -159 -158t-189 -57q-103 0 -164 59.5t-61 188.5z" />
<glyph unicode="d" horiz-adv-x="757" d="M0 141q0 98 36.5 211t97 213t132 183t147.5 131.5t138 48.5q96 0 96 -107h6q70 165 140 294.5t142 216.5t124 87q45 0 94 -29t49 -65q0 -136 -97.5 -277.5t-219.5 -181.5q-78 -140 -182.5 -412t-104.5 -356q57 2 122 48.5t111 119.5q10 0 18.5 -5t8.5 -13 q-61 -104 -149 -180t-187 -76q-50 0 -76 29.5t-26 66.5q0 29 4.5 61.5t9 50.5t13.5 51.5t10 37.5h-4q-154 -297 -324 -297q-47 0 -88 40t-41 109zM182 199q0 -33 15.5 -50.5t35.5 -17.5q56 0 147.5 129t159.5 282.5t68 225.5q0 41 -35 41q-46 0 -114.5 -66t-129 -158.5 t-104 -200.5t-43.5 -185zM909 928q62 26 122.5 110.5t60.5 153.5q-27 -18 -77.5 -86t-105.5 -178z" />
<glyph unicode="e" horiz-adv-x="587" d="M0 246q0 122 55.5 248.5t138 220t181.5 153.5t184 60q74 0 124 -50t50 -108q0 -147 -137.5 -228.5t-372.5 -99.5q-41 -93 -41 -190q0 -148 144 -148q103 0 184 55.5t115 123.5q11 0 20.5 -17t9.5 -26q-39 -77 -109.5 -135t-145.5 -85.5t-146 -27.5q-124 0 -189 60 t-65 194zM246 496q128 24 226.5 110t98.5 182q0 17 -8.5 27t-17.5 10q-47 0 -147.5 -104.5t-151.5 -224.5z" />
<glyph unicode="f" horiz-adv-x="507" d="M-88 -293q0 142 51.5 355t138.5 448q-22 64 -22 111q0 36 32.5 64t75.5 42q125 297 248.5 494.5t196.5 197.5q44 0 93.5 -29t49.5 -65q0 -87 -34.5 -176t-97.5 -172.5t-127.5 -151.5t-147.5 -141q-12 -24 -27 -51q41 -88 61 -240q114 35 265 178q2 -1 7 -4.5t7 -6t4 -9.5 t2 -19q-43 -55 -121.5 -119.5t-156.5 -93.5q4 -86 4 -143q0 -138 -21 -253.5t-56 -193t-81 -132t-95 -79t-98 -24.5q-85 0 -118 56t-33 157zM90 -248q0 -46 8.5 -70t32.5 -24q31 0 65.5 39.5t64 106.5t48.5 166t19 206q0 32 -1.5 62t-2.5 44l-2 15q-11 -1 -21 -1 q-54 0 -82 23q-129 -389 -129 -567zM272 446q0 -5 11 -17t21 -21l11 -9q-5 70 -24 121q-3 -11 -7 -27.5t-7.5 -30.5t-4.5 -16zM451 870q64 44 139.5 158t75.5 164q-23 -5 -96.5 -112.5t-118.5 -209.5z" />
<glyph unicode="g" horiz-adv-x="714" d="M-2 152q0 143 86.5 326.5t217.5 316.5t245 133q98 0 98 -107h4q14 35 28 60.5t23 36t15 10.5q57 0 91 -29.5t34 -56.5q0 -34 -23 -78q-89 -166 -186 -418q-15 -38 -55.5 -143.5t-63.5 -161.5q221 104 303 233q27 0 27 -30q-101 -170 -363 -285q-43 -104 -81.5 -181 t-82.5 -145t-89.5 -103.5t-90.5 -35.5q-65 0 -101 35.5t-36 79.5q0 52 21 101.5t52.5 86.5t73.5 69.5t80 53.5t76 37q23 40 84 170t68 162h-4q-156 -297 -324 -297q-47 0 -87 37.5t-40 122.5zM100 -319q0 -15 11 -15q31 22 71.5 79t77.5 130q-67 -32 -113.5 -88t-46.5 -106z M178 199q0 -33 16 -50.5t37 -17.5q52 0 143 126.5t160.5 281t69.5 229.5q0 41 -35 41q-64 0 -158 -109t-163.5 -255.5t-69.5 -245.5z" />
<glyph unicode="h" horiz-adv-x="727" d="M0 86q0 66 43 222t114.5 343t153.5 361t172 290.5t158 116.5q45 0 94 -29t49 -65q0 -136 -100.5 -277.5t-222.5 -181.5q-59 -82 -115 -213.5t-94 -255.5h4q294 531 410 531q50 0 94.5 -30.5t44.5 -90.5q0 -18 -6.5 -41.5t-22.5 -57.5t-28 -56.5t-37 -69t-35 -64.5 q-139 -261 -139 -366q0 -48 41 -48q40 0 102.5 54t85.5 110q27 0 27 -14q0 -18 -15 -49t-44.5 -68t-66.5 -69.5t-86.5 -54t-99.5 -21.5q-52 0 -84 32t-32 91q0 71 34 170t75.5 179t79 158t42.5 109q-47 -12 -137 -112t-172 -229t-105 -214q-10 -36 -10 -78q0 -56 -12 -81 t-47 -25q-55 0 -84 25t-29 69zM485 928q63 26 126 111t63 153q-29 -20 -82 -87.5t-107 -176.5z" />
<glyph unicode="i" horiz-adv-x="356" d="M0 80q0 107 66.5 315t143 370.5t105.5 162.5q60 0 99 -24.5t39 -55.5q0 -30 -54 -127q-67 -125 -139 -313.5t-86 -303.5q57 2 120.5 45.5t100.5 114.5q9 0 18 -5.5t9 -14.5q-15 -34 -47.5 -76t-75.5 -82t-98.5 -67t-106.5 -27t-72.5 26.5t-21.5 61.5zM365 1087 q0 44 31.5 72.5t76.5 28.5t77 -28.5t32 -72.5q0 -43 -32 -71.5t-77 -28.5t-76.5 28.5t-31.5 71.5z" />
<glyph unicode="j" horiz-adv-x="346" d="M-406 -391q0 52 21.5 101.5t54 87t76 70.5t82 54t76.5 37q24 40 83.5 203.5t117 329.5t117.5 301t89 135q59 0 100.5 -28.5t41.5 -57.5q0 -34 -23 -78q-56 -104 -147.5 -309t-173.5 -414q225 106 303 229q28 0 28 -28q-49 -84 -149.5 -158.5t-214.5 -124.5 q-43 -104 -81.5 -181t-82.5 -145t-89.5 -103.5t-90.5 -35.5q-65 0 -101.5 36t-36.5 79zM-299 -319q0 -15 10 -15q32 23 76.5 81.5t79.5 129.5q-68 -33 -117 -90t-49 -106zM356 1087q0 44 32 72.5t77 28.5t76.5 -28.5t31.5 -72.5q0 -43 -31.5 -71.5t-76.5 -28.5t-77 28.5 t-32 71.5z" />
<glyph unicode="k" horiz-adv-x="727" d="M0 86q0 66 43 222t114.5 343t153.5 361t172 290.5t158 116.5q45 0 94 -29t49 -65q0 -136 -100.5 -277.5t-222.5 -181.5q-66 -100 -132 -250.5t-77 -218.5h4q154 268 221 360q125 169 223 171q53 0 90 -30t37 -91q0 -102 -76 -192.5t-204 -129.5q57 -28 57 -86 q0 -48 -33.5 -133.5t-33.5 -113.5q0 -48 41 -48q43 0 104.5 55t87.5 117q27 0 27 -14q0 -23 -24.5 -66.5t-64.5 -89.5t-101.5 -80t-125.5 -34q-52 0 -84 32t-32 91q0 30 34.5 121.5t34.5 128.5q0 49 -37 57q-22 6 -22 29q0 39 37 45q206 39 206 235q-34 0 -129.5 -100.5 t-189.5 -235.5t-117 -219q-10 -36 -10 -78q0 -56 -12 -81t-47 -25q-55 0 -84 25t-29 69zM485 928q63 26 126 111t63 153q-29 -20 -82 -87.5t-107 -176.5z" />
<glyph unicode="l" horiz-adv-x="366" d="M-2 88q0 122 72 349.5t169 443.5t205 377t172 161q41 0 92.5 -29.5t51.5 -64.5q0 -87 -40 -183.5t-104.5 -181t-132 -153t-137.5 -123.5q-47 -86 -110.5 -285t-63.5 -303q69 2 145 45t125 123q10 0 17.5 -6.5t7.5 -15.5q-60 -98 -161 -174t-206 -76q-42 0 -72 25t-30 71z M412 819q63 43 150 182.5t87 190.5q-22 -5 -106.5 -136.5t-130.5 -236.5z" />
<glyph unicode="m" horiz-adv-x="1097" d="M0 86q0 69 29 180t71.5 222.5t87.5 212.5t81 164t48 63q57 0 91 -29.5t34 -56.5q0 -32 -20 -78q-7 -14 -29 -55.5t-34.5 -67.5t-32.5 -67.5t-38.5 -85.5t-35.5 -91h4q294 531 410 531q50 0 94.5 -30.5t44.5 -90.5q0 -20 -31.5 -77t-78 -150.5t-72.5 -182.5h4 q294 531 409 531q50 0 95 -30.5t45 -90.5q0 -18 -6.5 -41.5t-22.5 -57.5t-28 -56.5t-37 -69t-35 -64.5q-140 -263 -140 -366q0 -48 41 -48q40 0 103 54t86 110q26 0 26 -14q0 -18 -15 -49t-44 -68t-66 -69.5t-86.5 -54t-99.5 -21.5q-52 0 -84.5 32t-32.5 91q0 71 34 170 t75.5 179t79.5 158t43 109q-47 -12 -137 -112t-172 -229t-105 -214q-10 -36 -10 -78q0 -56 -12 -81t-48 -25q-50 0 -81 32t-31 62q0 84 32.5 193t71 191.5t77 161.5t44.5 99q-47 -12 -137 -112t-172 -229t-105 -214q-10 -36 -10 -78q0 -56 -12 -81t-47 -25q-50 0 -81.5 32 t-31.5 62z" />
<glyph unicode="n" horiz-adv-x="727" d="M0 86q0 69 29 180t71.5 222.5t87.5 212.5t81 164t48 63q57 0 91 -29.5t34 -56.5q0 -32 -20 -78q-7 -14 -29 -55.5t-34.5 -67.5t-32.5 -67.5t-38.5 -85.5t-35.5 -91h4q294 531 410 531q50 0 94.5 -30.5t44.5 -90.5q0 -18 -6.5 -41.5t-22.5 -57.5t-28 -56.5t-37 -69 t-35 -64.5q-139 -261 -139 -366q0 -48 41 -48q40 0 102.5 54t85.5 110q27 0 27 -14q0 -18 -15 -49t-44.5 -68t-66.5 -69.5t-86.5 -54t-99.5 -21.5q-52 0 -84 32t-32 91q0 71 34 170t75.5 179t79 158t42.5 109q-47 -12 -137 -112t-172 -229t-105 -214q-10 -36 -10 -78 q0 -56 -12 -81t-47 -25q-50 0 -81.5 32t-31.5 62z" />
<glyph unicode="o" d="M2 225q0 137 49.5 269.5t125.5 226t167.5 150.5t173.5 57q92 0 137 -78.5t45 -202.5q0 -46 -16 -112q94 52 162 127q2 -1 6 -4t5.5 -4.5t4 -5t3.5 -7.5t1 -10q-31 -43 -85.5 -92t-118.5 -84q-29 -84 -74 -162.5t-105 -147.5t-138 -111t-161 -42q-85 0 -133.5 67.5 t-48.5 165.5zM184 252q0 -150 86 -150q70 0 156.5 93t138.5 219q-59 -19 -110 -19q-79 0 -134 44t-59 124q-29 -44 -53.5 -139t-24.5 -172zM395 637q0 -154 133 -154q22 0 64 11q18 74 18 116q0 178 -100 178q-38 0 -76.5 -43.5t-38.5 -107.5z" />
<glyph unicode="p" horiz-adv-x="868" d="M-104 -412q0 158 38.5 353t95 363t115.5 312.5t104.5 228t57.5 83.5q57 0 91 -29.5t34 -56.5q0 -36 -22 -78q-5 -9 -24 -46.5t-27.5 -54t-26.5 -54t-30.5 -65.5t-28.5 -67.5t-31 -79.5h4q71 129 127.5 217.5t119.5 164t127 112.5t130 37q27 0 52 -9t52.5 -31.5t44 -72 t16.5 -119.5q0 -111 -44 -236t-114.5 -228.5t-168.5 -171.5t-197 -68q-143 0 -143 131q0 74 59.5 132t122.5 58q22 0 38 -33q7 -14 7 -30q0 -22 -14 -47q-29 7 -54 7q-33 0 -61 -11q-49 -19 -49 -64q0 -32 18.5 -45.5t59.5 -13.5q78 0 163 92t140 227t55 254q0 33 -5.5 58.5 t-14 40t-18 24.5t-17 13t-12.5 3q-57 0 -150.5 -95t-178.5 -220.5t-138 -236.5q-51 -136 -91 -317.5t-40 -317.5q0 -56 -12 -81.5t-48 -25.5q-50 0 -81 32t-31 62z" />
<glyph unicode="q" horiz-adv-x="714" d="M-2 152q0 143 86.5 326.5t217.5 316.5t245 133q98 0 98 -107h4q14 35 28 60.5t23 36t15 10.5q57 0 91 -29.5t34 -56.5q0 -35 -52 -131q-64 -125 -157 -365q-125 -324 -182 -450q80 -14 124 -41q0 -13 -5.5 -25t-12.5 -12q-38 19 -129 28q-163 -352 -291 -352 q-65 0 -101 35.5t-36 79.5q0 59 17.5 107t44 78.5t64.5 53t71 34t73 20.5q45 77 111.5 215t73.5 172h-4q-156 -297 -324 -297q-47 0 -87 37.5t-40 122.5zM100 -319q0 -15 11 -15q30 21 68 72.5t57 95.5q-34 -5 -85 -56.5t-51 -96.5zM178 199q0 -33 16 -50.5t37 -17.5 q52 0 143 126.5t160.5 281t69.5 229.5q0 41 -35 41q-64 0 -158 -109t-163.5 -255.5t-69.5 -245.5z" />
<glyph unicode="r" horiz-adv-x="645" d="M0 86q0 69 29 180t71.5 222.5t87.5 212.5t81 164t48 63q57 0 91 -29.5t34 -56.5q0 -32 -20 -78q-6 -12 -45 -84t-64 -126.5t-49 -119.5h4q145 263 227.5 373.5t155.5 110.5q39 0 80 -57t41 -120q0 -33 -30.5 -58.5t-66.5 -40.5t-66.5 -40.5t-30.5 -58.5q0 -56 81 -56 q90 0 146 35q7 0 11.5 -10t4.5 -18q-13 -19 -88.5 -41.5t-148.5 -22.5q-26 0 -43.5 1t-42.5 7.5t-40.5 17.5t-26.5 33.5t-11 53.5q0 30 32 85t60 93h-4q-45 -26 -167.5 -219.5t-158.5 -325.5q-10 -36 -10 -78q0 -56 -12 -81t-47 -25q-50 0 -81.5 32t-31.5 62z" />
<glyph unicode="s" horiz-adv-x="577" d="M-66 147q0 48 42.5 104t103.5 56q18 0 31 -21.5t19 -48.5t19 -54t29 -36q59 7 137 80t78 119q0 36 -25.5 64t-62 49.5t-73 44.5t-62 60.5t-25.5 86.5q0 50 22 95.5t56.5 77.5t75.5 56t80 36t70 12q65 0 112 -38.5t47 -107.5q0 -46 -23 -84t-60.5 -64t-73.5 -44.5 t-74.5 -35.5t-52.5 -26q7 -5 47.5 -20.5t75.5 -33.5t65.5 -61t30.5 -102q0 -36 -18 -70t-47 -59.5t-55 -43t-52 -29.5v-5q67 14 142.5 66.5t119.5 122.5q29 0 29 -27q-75 -122 -201 -198t-285 -76q-61 0 -110.5 18.5t-76.5 45t-41 50.5t-14 41zM252 657q0 -66 51 -114 q156 89 156 184q0 59 -58 59q-53 0 -101 -38t-48 -91z" />
<glyph unicode="t" horiz-adv-x="417" d="M0 80q0 101 71 307t173 432q-28 4 -43 4q-45 0 -45 41q0 8 12.5 17t43.5 18t73 10q152 318 188 318q60 0 96.5 -24.5t36.5 -55.5q0 -39 -47 -123q-67 -123 -72 -133q91 -23 91 -78q0 -23 -24 -53.5t-56 -30.5q-8 0 -76 31q-94 -190 -165 -370.5t-83 -285.5q64 2 176.5 58 t147.5 123q9 0 17.5 -5.5t8.5 -15.5q-19 -44 -93.5 -108t-171.5 -114t-165 -50q-51 0 -72.5 26.5t-21.5 61.5z" />
<glyph unicode="u" horiz-adv-x="741" d="M10 152q0 102 46 243t105.5 255.5t114 196t72.5 81.5q59 0 92 -26.5t33 -59.5q0 -28 -10.5 -52.5t-42.5 -68.5q-230 -309 -230 -522q0 -33 16.5 -50.5t37.5 -17.5q38 0 85 55t96.5 152t87.5 182t82.5 193.5t57.5 138.5q34 76 74 76q57 0 91 -29.5t34 -56.5 q0 -37 -47 -123q-76 -139 -153 -331.5t-77 -289.5q65 2 135.5 47t116.5 119q27 0 27 -24q-66 -100 -159 -174t-197 -74q-31 0 -58.5 22.5t-27.5 65.5q0 82 53 209h-4q-156 -297 -324 -297q-47 0 -87 37.5t-40 122.5z" />
<glyph unicode="v" horiz-adv-x="724" d="M14 152q0 82 28.5 191.5t70.5 208.5t86.5 185.5t81.5 138.5t51 52q60 0 92.5 -29t32.5 -70q0 -32 -27 -71q-59 -81 -107.5 -164t-88 -193.5t-39.5 -201.5q0 -33 16 -50.5t37 -17.5q53 0 108 31.5t95 77.5t68 90.5t38 77.5q-31 104 -31 219q0 112 54 206.5t112 94.5 q50 0 82.5 -25t32.5 -76q0 -58 -40.5 -175.5t-104.5 -231.5q9 -39 34 -39q30 0 77.5 33.5t86.5 89.5q21 0 21 -29q-42 -66 -104.5 -123t-112.5 -57q-19 0 -34 9.5t-20 18.5l-6 9q-86 -141 -213 -240.5t-250 -99.5q-47 0 -87 37.5t-40 122.5zM633 506q76 178 76 250 q-22 -13 -49 -94.5t-27 -155.5z" />
<glyph unicode="w" horiz-adv-x="1126" d="M14 152q0 82 28.5 191.5t70.5 208.5t86.5 185.5t81.5 138.5t51 52q60 0 92.5 -29t32.5 -70q0 -32 -27 -71q-59 -81 -107.5 -164t-88 -193.5t-39.5 -201.5q0 -33 16 -50.5t37 -17.5q84 0 172 78q8 83 39 186.5t71 194t81.5 168.5t74.5 124t47 46q60 0 92.5 -29t32.5 -70 q0 -32 -27 -71q-59 -81 -107.5 -164t-88 -193.5t-39.5 -201.5q0 -33 16 -50.5t37 -17.5q53 0 108 31.5t95 77.5t68 90.5t38 77.5q-30 104 -30 213q0 117 52.5 212t113.5 95q50 0 82 -25t32 -76q0 -58 -40.5 -175.5t-104.5 -231.5q9 -39 35 -39q30 0 77.5 33.5t86.5 89.5 q24 0 24 -23q-45 -73 -107.5 -129.5t-113.5 -56.5q-19 0 -34 9.5t-20 18.5l-5 9q-86 -141 -213 -240.5t-250 -99.5q-40 0 -78 29t-47 92q-145 -121 -277 -121q-47 0 -87 37.5t-40 122.5zM1034 506q76 178 76 250q-22 -13 -49 -94.5t-27 -155.5z" />
<glyph unicode="x" horiz-adv-x="684" d="M0 100q0 212 209 455q-43 174 -43 281q0 42 26 67t58 25q70 0 96 -35.5t37 -153.5q94 86 180.5 137.5t145.5 51.5q32 0 66 -33.5t34 -71.5q0 -20 -12.5 -35.5t-30.5 -15.5q-145 0 -369 -194q16 -109 35 -190t44.5 -148t59.5 -101.5t76 -34.5q110 0 162 111q9 0 17 -6.5 t8 -20.5q-38 -80 -122.5 -138t-170.5 -58q-104 0 -148 88q-31 61 -65.5 160t-48.5 178q-147 -193 -164 -340q-10 -86 -39 -86q-41 0 -41 108z" />
<glyph unicode="y" horiz-adv-x="749" d="M8 152q0 102 45.5 243t104 255.5t112.5 196t72 81.5q60 0 92.5 -29t32.5 -70q0 -32 -27 -71q-252 -343 -252 -559q0 -33 16.5 -50.5t37.5 -17.5q38 0 85 55t96.5 152t87.5 182t82.5 193.5t57.5 138.5q34 76 74 76q57 0 91 -29.5t34 -56.5q0 -36 -49 -129 q-34 -61 -91.5 -199t-120 -299t-67.5 -174q225 106 303 229q12 0 19.5 -9t7.5 -23q-49 -83 -148 -155.5t-215 -123.5q-43 -104 -81.5 -181t-82.5 -145t-89.5 -103.5t-90.5 -35.5q-65 0 -101 35.5t-36 79.5q0 52 21 101.5t52.5 86.5t73.5 69.5t80 53.5t76 37q23 40 84 170 t68 162h-4q-156 -297 -324 -297q-47 0 -87 37.5t-40 122.5zM111 -319q0 -15 10 -15q31 22 71.5 79t77.5 130q-67 -32 -113 -88t-46 -106z" />
<glyph unicode="z" horiz-adv-x="614" d="M-23 184q0 44 42 99.5t105 107.5t137.5 108t139 101t110 86t50.5 64q-23 -7 -41 -7q-29 0 -95 27t-97 27q-47 0 -62.5 -21t-15.5 -65q-109 0 -109 86q0 65 52 105t137 40q47 0 136.5 -28.5t143.5 -28.5q41 0 65.5 -21.5t24.5 -56.5q0 -44 -60.5 -109.5t-146 -133.5 t-171.5 -138t-146.5 -142t-60.5 -126q24 20 73 38.5t74 18.5q36 0 109.5 -48t99.5 -48q34 0 86 30.5t88 88.5q25 0 25 -33q-48 -72 -140 -146.5t-141 -74.5q-23 0 -67.5 22.5t-71.5 22.5q-5 0 -61.5 -13.5t-86.5 -13.5q-40 0 -82.5 50t-42.5 132z" />
<glyph unicode="{" horiz-adv-x="327" d="M-78 -236q0 84 38 225.5t76 263.5t38 159q0 31 -11 50t-32 19q-10 0 -16.5 7.5t-6.5 17.5q0 35 33 35q32 0 67.5 19t51.5 56q51 127 86 211t74 166t69.5 131t64 88t66 55.5t68.5 16.5q57 0 88 -25t31 -69q-62 0 -130.5 -101.5t-154.5 -328.5q-43 -116 -115.5 -184.5 t-159.5 -83.5q30 -20 48 -63.5t18 -88.5q0 -68 -61.5 -297t-61.5 -291q0 -148 55 -182q-96 0 -159.5 46t-63.5 148z" />
<glyph unicode="|" horiz-adv-x="333" d="M41 18q0 10 39 102t107 255t118 297q43 116 107.5 298.5t96.5 266.5t42 84q28 0 46.5 -9t18.5 -24q0 -10 -39 -96.5t-107.5 -241.5t-119.5 -286q-43 -112 -109 -302.5t-102 -280t-53 -89.5t-31 7t-14 19z" />
<glyph unicode="}" horiz-adv-x="452" d="M-205 -346q62 0 130.5 101.5t154.5 328.5q43 116 115 184.5t159 83.5q-30 19 -47.5 63t-17.5 89q0 67 61.5 296.5t61.5 291.5q0 147 -56 182q96 0 160 -46.5t64 -148.5q0 -84 -38 -225t-76 -263t-38 -159q0 -31 11 -50.5t32 -19.5q10 0 16.5 -7.5t6.5 -16.5 q0 -35 -33 -35q-32 0 -67.5 -19.5t-51.5 -56.5q-150 -377 -238 -522t-190 -145q-57 0 -88 25t-31 69z" />
<glyph unicode="~" horiz-adv-x="657" d="M82 453q0 41 38.5 75.5t94.5 34.5q43 0 87.5 -17t74.5 -37t67 -37t68 -17q86 0 106 84q48 -16 48 -56q0 -45 -36 -77.5t-98 -32.5q-43 0 -87 17t-74 37t-67 37t-68 17q-87 0 -107 -84q-47 16 -47 56z" />
<glyph unicode="&#xa1;" horiz-adv-x="399" d="M-80 -186q0 21 32.5 69.5t85.5 121.5t111.5 163t120.5 219.5t103 265.5q17 60 63 60q16 0 28.5 -23t12.5 -47q0 -117 -73.5 -340t-171.5 -403.5t-158 -180.5q-45 0 -99.5 30t-54.5 65zM379 934q0 46 33.5 76t81.5 30t81 -30t33 -76q0 -47 -33 -77t-81 -30t-81.5 30.5 t-33.5 76.5z" />
<glyph unicode="&#xa2;" horiz-adv-x="516" d="M0 240q0 120 51 246.5t128.5 222.5t173.5 157.5t182 61.5q18 0 26 -2q83 225 94 225q28 0 47 -9t19 -24q0 -7 -96 -225q39 -39 39 -84q0 -90 -51.5 -144.5t-100.5 -54.5h-10q-4 -12 -47 -116q-63 -167 -142 -396h11q68 0 126.5 39.5t96.5 100.5q11 0 18.5 -11.5 t7.5 -19.5q-53 -87 -134 -142t-163 -69q-65 -174 -86 -174q-17 0 -31 7t-14 19q0 11 58 144q-203 14 -203 248zM197 248q0 -100 57 -133q114 273 156 387q12 32 51 141q-15 30 -15 62q11 0 39 4q6 17 17.5 49t17.5 49q-49 -24 -105 -80t-105 -129.5t-81 -167t-32 -182.5z M555 733q45 27 45 58q0 17 -10 24q-15 -35 -35 -82z" />
<glyph unicode="&#xa3;" horiz-adv-x="684" d="M-29 27q0 19 14 41t34.5 48t41.5 59t36 86.5t16 117.5h-19q-29 0 -48 13t-19 28q0 21 88 24q8 127 53 233t111 173t144.5 104t158.5 37q61 0 106.5 -17t70 -44.5t36.5 -57.5t12 -61q0 -61 -36 -99t-73 -38q0 237 -172 237q-246 0 -254 -473q126 -12 258 -33.5t132 -33.5 q0 -38 -12 -63t-36 -25q-10 0 -62 11.5t-137 30.5t-147 31q-9 -84 -53.5 -154t-101.5 -89v-4q59 0 107 -16.5t81.5 -40.5t66 -48t77 -40.5t98.5 -16.5q89 0 112 108q22 0 43 -25t21 -55q0 -69 -49 -112t-119 -43q-57 0 -107.5 20t-86 48.5t-67.5 57t-68 48.5t-72 20 q-39 0 -67.5 -25t-35.5 -55q-32 0 -54 27t-22 66z" />
<glyph unicode="&#xa5;" horiz-adv-x="1222" d="M-98 981q0 113 65 204.5t173.5 142t236.5 50.5q84 0 151.5 -21.5t112 -56.5t74 -81.5t42.5 -95t13 -99.5q0 -83 -20.5 -160.5t-54 -139t-73.5 -120.5t-79.5 -114.5t-73 -109.5t-54 -117.5t-20.5 -127.5q0 -66 32 -93.5t77 -27.5q65 0 128.5 33.5t120.5 96t103.5 131 t95.5 157.5q-118 25 -168 25q-29 0 -48 13t-19 28q0 26 145 26q45 0 131 -12q24 44 39 74q-82 14 -121 14q-29 0 -48 13t-19 28q0 27 145 27q27 0 80 -6q20 43 71 165t104 237t104 202q13 23 40.5 35t47.5 12q44 0 73 -23.5t29 -58.5q0 -49 -37 -111q-91 -152 -241 -487 q172 -30 172 -45q0 -38 -12 -63t-36 -25q-17 0 -163 41q-4 -10 -13.5 -31t-13.5 -31q111 -25 111 -35q0 -38 -12 -63t-36 -25q-8 0 -106 25q-49 -109 -89.5 -191.5t-95 -175.5t-106.5 -160t-120 -132t-139.5 -105t-160.5 -64t-188 -24q-162 0 -251 88.5t-89 216.5 q0 95 55 148t123 53q53 0 76.5 -30t23.5 -71q-62 0 -107.5 -33.5t-45.5 -113.5q0 -33 12.5 -65.5t37.5 -62.5t69 -48.5t100 -18.5q72 0 136.5 18.5t117 50t102.5 82.5t89.5 106.5t80.5 133t74 151t72 169.5h-4q-41 -65 -76.5 -114.5t-83 -100t-94 -82.5t-105.5 -52t-123 -20 q-95 0 -159 70t-64 191q0 92 37.5 185.5t90.5 172.5t106.5 156t91 162.5t37.5 164.5q0 126 -60.5 195t-185.5 69q-152 0 -254 -76.5t-102 -213.5q0 -90 49.5 -139.5t142.5 -49.5q76 0 125 57t49 130q41 0 73 -13.5t32 -33.5q0 -77 -43.5 -134t-109 -83.5t-140.5 -26.5 q-118 0 -187 74t-69 190z" />
<glyph unicode="&#xa6;" horiz-adv-x="333" d="M41 18q0 10 33.5 89.5t96.5 228.5t110 270l45 -8q-28 -76 -64 -176.5t-59.5 -168.5t-47.5 -132.5t-41 -96.5t-28 -32q-17 0 -31 7t-14 19zM319 709q40 107 101.5 282.5t91 252.5t39.5 77q28 0 46.5 -9t18.5 -24q0 -10 -35.5 -89.5t-100.5 -226.5t-115 -270z" />
<glyph unicode="&#xa7;" horiz-adv-x="696" d="M-43 -18q0 58 34 88t77 30q0 -17 9 -40t26 -48t49.5 -42t72.5 -17q52 0 90.5 16.5t58.5 44t29 55.5t9 58q0 108 -84 231q-27 40 -33.5 49.5t-26 42.5t-25.5 49t-13 42t-7 49q0 77 62 135.5t184 58.5q36 0 55 -8q-34 51 -49 77t-29 64.5t-14 75.5q0 36 14 70.5t42.5 65.5 t80.5 50t121 19q78 0 132.5 -42t54.5 -97q0 -58 -31 -85.5t-74 -27.5q0 25 -5.5 49t-18.5 49.5t-41 41.5t-66 16q-72 0 -101.5 -28t-29.5 -83q0 -52 19.5 -102t47.5 -90.5t56 -81.5t47.5 -92t19.5 -105q0 -103 -64 -172t-179 -82q43 -72 43 -160q0 -113 -97 -187.5 t-239 -74.5q-90 0 -148.5 41.5t-58.5 96.5zM309 578q0 -82 74 -203q5 0 16 -1t17 -1q100 0 148 51.5t48 116.5q0 59 -40 102t-115 43q-72 0 -110 -30.5t-38 -77.5z" />
<glyph unicode="&#xa8;" horiz-adv-x="729" d="M561 1133q0 39 28 64.5t68 25.5q42 0 70.5 -25.5t28.5 -64.5t-28.5 -65t-70.5 -26q-40 0 -68 26t-28 65zM797 1133q0 39 28 64.5t70 25.5q40 0 68 -25.5t28 -64.5t-28 -65t-68 -26q-42 0 -70 26t-28 65z" />
<glyph unicode="&#xa9;" horiz-adv-x="970" d="M25 240q0 174 50 341.5t133 297t186 229t214.5 152.5t212.5 53q102 0 175 -82t73 -236q0 -109 -24.5 -232t-68.5 -243.5t-110 -231.5t-143.5 -195t-174.5 -134.5t-198 -50.5q-157 0 -241 92t-84 240zM174 231q0 -139 39.5 -204.5t136.5 -65.5q108 0 219 99t203 262 q-68 -63 -147.5 -101.5t-153.5 -38.5q-81 0 -130.5 48t-49.5 151q0 96 41 197t103 178t139 126.5t145 49.5q44 0 73 -30.5t29 -65.5q0 -72 -41 -115t-80 -43q-26 0 -38.5 24.5t-12.5 49.5q37 0 80 21t43 48q0 10 -6 17.5t-16 7.5q-35 0 -86 -40.5t-99 -102.5t-82 -148.5 t-34 -167.5q0 -119 102 -119q83 0 157 56t117 131q75 129 113.5 276.5t38.5 284.5q0 221 -139 221q-57 0 -128 -33t-145 -93t-144 -151t-125 -199t-88.5 -246.5t-33.5 -283.5z" />
<glyph unicode="&#xaa;" horiz-adv-x="778" d="M229 469q0 27 146 27q74 0 219 -17.5t145 -34.5q0 -88 -47 -88q-4 0 -160.5 36t-234.5 36q-29 0 -48.5 13t-19.5 28zM297 692q0 85 42 195t105 203.5t143 158t148 64.5q78 0 78 -94h2q12 28 25.5 51t23 33t13.5 10q46 0 73 -23t27 -45q0 -35 -19 -63 q-71 -113 -140.5 -284t-69.5 -253q113 17 188 141q18 0 18 -14q-7 -21 -30 -54t-57.5 -68t-83.5 -60t-97 -25q-28 0 -48 18t-20 50q0 73 41 170h-2q-123 -238 -260 -238q-100 0 -100 127zM440 731q0 -51 43 -51q44 0 117 100.5t127.5 223t54.5 182.5q0 33 -28 33 q-51 0 -126.5 -87t-131.5 -204.5t-56 -196.5z" />
<glyph unicode="&#xab;" horiz-adv-x="737" d="M106 436q48 51 151 118t142 67q20 0 37 -26.5t17 -53.5q0 -8 -40.5 -27.5t-98 -48t-85.5 -49.5q27 -35 61 -73.5t51 -58t17 -26.5q0 -25 -33.5 -45t-62.5 -20q-14 0 -37 44t-56 106t-63 93zM360 395q48 51 151 118t142 67q20 0 37 -26.5t17 -53.5q0 -8 -40.5 -27.5 t-98 -48t-85.5 -49.5q27 -35 61 -73.5t51 -58t17 -26.5q0 -25 -33.5 -45t-62.5 -20q-14 0 -37 44t-56 106t-63 93z" />
<glyph unicode="&#xac;" horiz-adv-x="567" d="M90 453q0 11 150.5 16.5t273.5 5.5q-12 -38 -26.5 -120.5t-14.5 -118.5q0 -29 -13 -48.5t-28 -19.5q-26 0 -26 145q0 35 6 90q-215 9 -254 9q-29 0 -48.5 13t-19.5 28z" />
<glyph unicode="&#xad;" horiz-adv-x="466" d="M53 453q0 26 146 26q82 0 171 -8t89 -25q0 -88 -47 -88q-4 0 -108.5 27t-182.5 27q-29 0 -48.5 13t-19.5 28z" />
<glyph unicode="&#xae;" horiz-adv-x="970" d="M25 240q0 174 50 341.5t133 297t186 229t214.5 152.5t212.5 53q102 0 175 -82t73 -236q0 -109 -24.5 -232t-68.5 -243.5t-110 -231.5t-143.5 -195t-174.5 -134.5t-198 -50.5q-157 0 -241 92t-84 240zM174 231q0 -139 39.5 -204.5t136.5 -65.5q99 0 204 86.5t189 221.5 t144 298q-69 -26 -146 -26q-22 0 -35.5 1t-34 5.5t-32 13.5t-20.5 27t-9 43q0 24 27 70t47 71h-4q-36 -20 -133.5 -174.5t-126.5 -261.5q-8 -31 -8 -62q0 -45 -9 -65.5t-38 -20.5q-40 0 -65.5 26t-25.5 50q0 89 57 255.5t118.5 292.5t78.5 126q45 0 72 -23.5t27 -46.5 q0 -30 -17 -61q-7 -13 -36 -68t-49.5 -99t-39.5 -97h2q118 211 183 299t125 88q31 0 63.5 -45t32.5 -97q0 -26 -24.5 -46.5t-53.5 -32t-53.5 -32t-24.5 -46.5q0 -45 66 -45q57 0 98 18q78 224 78 412q0 221 -139 221q-57 0 -128 -33t-145 -93t-144 -151t-125 -199 t-88.5 -246.5t-33.5 -283.5z" />
<glyph unicode="&#xaf;" horiz-adv-x="729" d="M528 1149q0 27 146 27q82 0 171 -8t89 -25q0 -88 -47 -88q-4 0 -108.5 26.5t-182.5 26.5q-29 0 -48.5 13t-19.5 28z" />
<glyph unicode="&#xb0;" horiz-adv-x="512" d="M182 821q0 98 34.5 191t88 157.5t119 104t125.5 39.5q53 0 93 -45.5t40 -137.5q0 -74 -25 -156.5t-67.5 -154t-107.5 -118t-136 -46.5q-79 0 -121.5 45.5t-42.5 120.5zM332 848q0 -103 65 -103q86 0 153.5 118t67.5 267q0 40 -15 60t-36 20q-33 0 -73 -26t-76.5 -71 t-61 -115.5t-24.5 -149.5z" />
<glyph unicode="&#xb1;" horiz-adv-x="567" d="M41 231q0 27 145 27q75 0 220 -17t145 -34q0 -88 -47 -88q-4 0 -160.5 35.5t-234.5 35.5q-29 0 -48.5 13t-19.5 28zM180 584q0 26 146 26q7 0 28.5 -1t36.5 -1q14 83 32 149t28 66q88 0 88 -47q0 -8 -7.5 -31.5t-22.5 -66.5t-26 -78q207 -21 207 -41q0 -88 -47 -88 q-8 0 -32 5.5t-71 17t-79 18.5q-19 -97 -19 -152q0 -29 -13 -48t-28 -19q-26 0 -26 145q0 34 6 90q-88 15 -133 15q-29 0 -48.5 13t-19.5 28z" />
<glyph unicode="&#xb2;" horiz-adv-x="716" d="M203 555q0 41 49 86t118.5 86.5t139.5 83.5t119 91.5t49 96.5q0 42 -31 73.5t-90 31.5q-56 0 -95.5 -26.5t-39.5 -61.5q-37 0 -59.5 17t-22.5 46q0 52 69.5 96t180.5 44q75 0 135.5 -50.5t60.5 -128.5q0 -57 -43 -113.5t-107.5 -101.5t-130 -84.5t-121.5 -76t-71 -62.5 q22 5 106.5 13t160.5 8q49 0 76.5 -18t27.5 -48q0 -37 -22 -66.5t-54 -29.5q-42 33 -354 33q-20 0 -35.5 16.5t-15.5 44.5z" />
<glyph unicode="&#xb3;" horiz-adv-x="675" d="M162 268q0 39 23 59.5t53 20.5q0 -123 112 -123q56 0 110.5 22t100.5 64t74.5 110t28.5 152q0 56 -30.5 87.5t-72.5 31.5q-45 0 -73.5 -13t-43.5 -25.5t-28 -12.5q-19 0 -32 15.5t-13 41.5q0 28 43.5 66t97 70.5t102 69.5t56.5 61q-24 61 -244 61q0 111 109 111 q140 0 215 -36.5t75 -94.5q0 -24 -35.5 -52t-81.5 -51.5t-100.5 -58t-83.5 -66.5q66 27 117 27q69 0 114.5 -45t45.5 -127q0 -102 -46.5 -191t-119.5 -147t-161.5 -91.5t-174.5 -33.5q-67 0 -102 28.5t-35 69.5z" />
<glyph unicode="&#xb4;" horiz-adv-x="714" d="M500 1004.5v11.5t51.5 49.5t117 93t89.5 82.5q45 0 72.5 -32t27.5 -70q0 -23 -75.5 -55t-161 -59t-93.5 -32q-14 0 -21 4.5t-7 7z" />
<glyph unicode="&#xb6;" horiz-adv-x="704" d="M61 -444q0 18 295 749q-8 0 -22 -1t-19 -1q-105 0 -161 61t-56 160q0 116 33.5 227.5t89 198t124 153t143 101.5t141.5 35q53 0 122.5 -25t94.5 -47q12 43 20 43q29 0 47.5 -8.5t18.5 -23.5q0 -11 -50 -129t-130.5 -308.5t-130.5 -318.5q-44 -115 -128 -358.5 t-138.5 -389t-71.5 -145.5t-31 7t-14 20q0 10 48 133.5t130 331t129 329.5q-56 -20 -144 -37q-31 -85 -111 -319.5t-124 -349.5t-60 -115q-17 0 -31 7t-14 20zM440 420q29 5 58.5 14t57.5 19.5t32 11.5q37 97 114.5 313t108.5 297q-6 2 -32.5 14.5t-45.5 18.5 q-222 -512 -293 -688z" />
<glyph unicode="&#xb7;" horiz-adv-x="458" d="M199 500q0 46 33 76t81 30t81.5 -30t33.5 -76t-33.5 -76.5t-81.5 -30.5t-81 30t-33 77z" />
<glyph unicode="&#xb8;" horiz-adv-x="516" d="M-45 -113q0 23 75.5 55t161 59t93.5 32q14 0 21 -4.5t7 -7v-11.5t-51.5 -49.5t-117 -93t-89.5 -82.5q-45 0 -72.5 32t-27.5 70z" />
<glyph unicode="&#xb9;" horiz-adv-x="403" d="M190 440q0 115 87 303.5t161 282.5h-2q-33 -29 -54 -45.5t-54 -31.5t-62 -15q-12 0 -22.5 12t-10.5 33q52 11 97 37t69.5 50t49.5 43t43 19q31 0 57 -17.5t26 -39.5q0 -11 -3 -20.5t-10.5 -22t-8.5 -14.5q-223 -378 -223 -578q0 -31 -20 -49t-44 -18q-40 0 -58 21.5 t-18 49.5z" />
<glyph unicode="&#xba;" horiz-adv-x="778" d="M90 453q0 26 146 26q75 0 219.5 -17t144.5 -34q0 -88 -47 -88q-4 0 -160.5 36t-234.5 36q-29 0 -48.5 13t-19.5 28zM330 752q0 110 41 215.5t103.5 180t137.5 120t142 45.5q56 0 97.5 -39t41.5 -111q0 -59 -21 -159q90 50 132 96q13 -10 15 -16q1 -4 1 -9 q-25 -35 -75 -75.5t-97 -67.5q-62 -175 -154 -271t-200 -96q-80 0 -122 50t-42 137zM475 772q0 -60 18 -89.5t60 -29.5q61 0 119 69t102 179q-42 -14 -82 -14q-146 0 -155 135q-23 -35 -42.5 -111.5t-19.5 -138.5zM643 1057q0 -55 20 -77t72 -22q7 0 62 11q18 73 18 135 q0 98 -61 98q-39 0 -75 -39t-36 -106z" />
<glyph unicode="&#xbb;" horiz-adv-x="745" d="M102 283q0 8 40.5 27.5t98 48t85.5 49.5q-27 35 -61 73t-51 57.5t-17 26.5q0 25 33.5 45.5t62.5 20.5q14 0 37 -44t56 -106.5t63 -93.5q-47 -51 -150.5 -117.5t-142.5 -66.5q-20 0 -37 26.5t-17 53.5zM381 233q0 8 40 27.5t97.5 48t85.5 49.5q-27 35 -61 73.5t-51 58 t-17 26.5q0 25 33.5 45.5t62.5 20.5q14 0 37 -44t56 -106.5t63 -93.5q-47 -51 -150.5 -117.5t-142.5 -66.5q-20 0 -36.5 26t-16.5 53z" />
<glyph unicode="&#xbc;" horiz-adv-x="1222" d="M14 -272q0 11 49.5 85t168.5 247t219 325t215.5 334.5t162 252.5t56.5 70q28 0 46.5 -8.5t18.5 -23.5q0 -10 -52.5 -79.5t-170 -231.5t-233.5 -337q-99 -149 -210.5 -331.5t-160 -256t-64.5 -73.5q-17 0 -31 7t-14 20zM190 440q0 115 87 303.5t161 282.5h-2 q-33 -29 -54 -45.5t-54 -31.5t-62 -15q-12 0 -22.5 12t-10.5 33q52 11 97 37t69.5 50t49.5 43t43 19q31 0 57 -17.5t26 -39.5q0 -11 -3 -20.5t-10.5 -22t-8.5 -14.5q-223 -378 -223 -578q0 -31 -20 -49t-44 -18q-40 0 -58 21.5t-18 49.5zM555 236q0 18 136.5 162t285 281.5 t174.5 137.5q31 0 57.5 -17t26.5 -38q0 -25 -23 -57q-125 -186 -247 -467q170 -18 170 -35q0 -30 -17.5 -64.5t-30.5 -34.5q-5 0 -25 4.5t-58.5 13t-79.5 15.5q-56 -156 -56 -229q0 -31 -19.5 -48.5t-43.5 -17.5q-41 0 -58.5 21.5t-17.5 48.5q0 75 70 242q-74 10 -205 10 q-16 0 -27.5 25t-11.5 47zM666 260q106 0 172 -8q59 128 135 261t125 204h-2q-38 -16 -144 -121t-196 -210.5t-90 -125.5z" />
<glyph unicode="&#xbd;" horiz-adv-x="1222" d="M14 -272q0 11 49.5 85t168.5 247t219 325t215.5 334.5t162 252.5t56.5 70q28 0 46.5 -8.5t18.5 -23.5q0 -10 -52.5 -79.5t-170 -231.5t-233.5 -337q-99 -149 -210.5 -331.5t-160 -256t-64.5 -73.5q-17 0 -31 7t-14 20zM190 440q0 115 87 303.5t161 282.5h-2 q-33 -29 -54 -45.5t-54 -31.5t-62 -15q-12 0 -22.5 12t-10.5 33q52 11 97 37t69.5 50t49.5 43t43 19q31 0 57 -17.5t26 -39.5q0 -11 -3 -20.5t-10.5 -22t-8.5 -14.5q-223 -378 -223 -578q0 -31 -20 -49t-44 -18q-40 0 -58 21.5t-18 49.5zM602 -14q0 41 49 86t119 86.5 t139.5 83.5t118.5 91.5t49 96.5q0 42 -31 73.5t-90 31.5q-56 0 -95.5 -27t-39.5 -62q-37 0 -59.5 17.5t-22.5 46.5q0 52 69.5 95.5t180.5 43.5q75 0 136 -50t61 -128q0 -57 -43 -113.5t-107.5 -101.5t-130 -84.5t-121.5 -76t-71 -62.5q21 5 105.5 12.5t160.5 7.5 q49 0 76.5 -17.5t27.5 -47.5q0 -37 -21.5 -67t-53.5 -30q-42 33 -355 33q-20 0 -35.5 17t-15.5 45z" />
<glyph unicode="&#xbe;" horiz-adv-x="1396" d="M66 354q0 40 22.5 60t52.5 20q0 -52 25.5 -87.5t87.5 -35.5q56 0 110.5 22t100 64t74 110t28.5 152q0 57 -30 88t-72 31q-45 0 -74 -13t-44 -25.5t-28 -12.5q-19 0 -32 15.5t-13 41.5q0 28 43.5 66t97 70.5t102 69.5t56.5 61q-24 61 -243 61q0 111 108 111 q140 0 215.5 -36.5t75.5 -94.5q0 -24 -35.5 -52t-81.5 -51.5t-100.5 -58t-83.5 -66.5q66 27 117 27q69 0 114.5 -45t45.5 -127q0 -102 -46.5 -191t-119.5 -147t-161.5 -91.5t-174.5 -33.5q-67 0 -102 28.5t-35 69.5zM188 -272q0 11 49.5 85t168.5 247t219 325t215.5 334.5 t162 252.5t56.5 70q28 0 46.5 -8.5t18.5 -23.5q0 -10 -52.5 -79.5t-170 -231.5t-233.5 -337q-99 -149 -210.5 -331.5t-160 -256t-64.5 -73.5q-17 0 -31 7t-14 20zM729 236q0 18 136.5 162t285 281.5t174.5 137.5q31 0 57.5 -17t26.5 -38q0 -25 -23 -57q-125 -186 -247 -467 q170 -18 170 -35q0 -30 -17 -64.5t-30 -34.5q-6 0 -25.5 4.5t-58.5 13t-80 15.5q-56 -156 -56 -229q0 -31 -19.5 -48.5t-43.5 -17.5q-41 0 -58.5 21.5t-17.5 48.5q0 75 70 242q-74 10 -205 10q-16 0 -27.5 25t-11.5 47zM840 260q106 0 172 -8q59 128 135 261t125 204h-2 q-38 -16 -144 -121t-196 -210.5t-90 -125.5z" />
<glyph unicode="&#xbf;" horiz-adv-x="716" d="M-12 -61q0 66 28.5 127t73.5 107t100 88.5t110 78.5t100 69.5t73.5 69t28.5 70.5q0 125 108 125q31 0 51.5 -20.5t20.5 -55.5q0 -42 -30.5 -81t-80 -72t-109 -67t-118.5 -72t-108.5 -80.5t-80 -99.5t-30.5 -122q0 -54 39.5 -97.5t111.5 -43.5q77 0 130 42t53 87 q46 0 74 -21t28 -57q0 -69 -82.5 -132t-220.5 -63q-69 0 -129 24.5t-100.5 76t-40.5 119.5zM588 850q0 46 33 76t81 30t81.5 -30t33.5 -76t-33.5 -76.5t-81.5 -30.5t-81 30t-33 77z" />
<glyph unicode="&#xc0;" horiz-adv-x="1107" d="M-418 195q0 95 54.5 145.5t123.5 50.5q53 0 77 -28t24 -68q-27 0 -53 -7.5t-50.5 -24.5t-39.5 -48.5t-15 -73.5q0 -68 45.5 -116t134.5 -48q203 0 451 330q-25 27 -43.5 64.5t-18.5 72.5q0 43 15.5 84t45.5 76.5t81 57.5t116 22q24 0 64 -10q91 133 175.5 235t181 192.5 t197.5 139.5t198 49q62 0 102.5 -28t40.5 -70q0 -36 -22 -59t-54 -23q-27 0 -47 19t-20 49q-97 0 -197 -74q-71 -121 -141 -345.5t-70 -428.5q64 31 100.5 71t36.5 74q0 26 -21.5 41.5t-58.5 15.5q0 33 25.5 57.5t58.5 24.5q25 0 46.5 -22t21.5 -60q0 -69 -54 -140 t-155 -120q2 -150 38 -215t128 -65q0 -36 -36 -76.5t-77 -40.5q-49 0 -86 20.5t-58 52.5t-34 79t-17.5 92.5t-4.5 101.5q-96 -22 -207 -22q-53 0 -111 14q-126 -142 -262 -220.5t-295 -78.5q-164 0 -249 77.5t-85 203.5zM354 420q0 -24 21 -58q77 105 119 166 q-53 7 -96.5 -21t-43.5 -87zM518 266q52 -10 111 -10q89 0 162 18q0 65 -35.5 114.5t-87.5 80.5q-73 -108 -150 -203zM758 602q52 -43 96 -104q13 105 62 241t98 238h-4q-38 -44 -80 -106t-95.5 -148t-76.5 -121zM1106 1530q0 25 29 57.5t71 32.5q8 -39 43 -86t66 -84 t31 -55q0 -6 -0.5 -8t-2.5 -6.5t-8.5 -6.5t-17.5 -2q-11 15 -111 72.5t-100 85.5z" />
<glyph unicode="&#xc1;" horiz-adv-x="1107" d="M-418 195q0 95 54.5 145.5t123.5 50.5q53 0 77 -28t24 -68q-27 0 -53 -7.5t-50.5 -24.5t-39.5 -48.5t-15 -73.5q0 -68 45.5 -116t134.5 -48q203 0 451 330q-25 27 -43.5 64.5t-18.5 72.5q0 43 15.5 84t45.5 76.5t81 57.5t116 22q24 0 64 -10q91 133 175.5 235t181 192.5 t197.5 139.5t198 49q62 0 102.5 -28t40.5 -70q0 -36 -22 -59t-54 -23q-27 0 -47 19t-20 49q-97 0 -197 -74q-71 -121 -141 -345.5t-70 -428.5q64 31 100.5 71t36.5 74q0 26 -21.5 41.5t-58.5 15.5q0 33 25.5 57.5t58.5 24.5q25 0 46.5 -22t21.5 -60q0 -69 -54 -140 t-155 -120q2 -150 38 -215t128 -65q0 -36 -36 -76.5t-77 -40.5q-49 0 -86 20.5t-58 52.5t-34 79t-17.5 92.5t-4.5 101.5q-96 -22 -207 -22q-53 0 -111 14q-126 -142 -262 -220.5t-295 -78.5q-164 0 -249 77.5t-85 203.5zM354 420q0 -24 21 -58q77 105 119 166 q-53 7 -96.5 -21t-43.5 -87zM518 266q52 -10 111 -10q89 0 162 18q0 65 -35.5 114.5t-87.5 80.5q-73 -108 -150 -203zM758 602q52 -43 96 -104q13 105 62 241t98 238h-4q-38 -44 -80 -106t-95.5 -148t-76.5 -121zM1249 1397q0 9 51.5 49.5t117 93t89.5 82.5q45 0 73 -32 t28 -70q0 -23 -75.5 -55t-161 -59t-93.5 -32q-11 0 -17.5 2t-8.5 6.5t-2.5 6.5t-0.5 8z" />
<glyph unicode="&#xc2;" horiz-adv-x="1107" d="M-418 195q0 95 54.5 145.5t123.5 50.5q53 0 77 -28t24 -68q-27 0 -53 -7.5t-50.5 -24.5t-39.5 -48.5t-15 -73.5q0 -68 45.5 -116t134.5 -48q203 0 451 330q-25 27 -43.5 64.5t-18.5 72.5q0 43 15.5 84t45.5 76.5t81 57.5t116 22q24 0 64 -10q91 133 175.5 235t181 192.5 t197.5 139.5t198 49q62 0 102.5 -28t40.5 -70q0 -36 -22 -59t-54 -23q-27 0 -47 19t-20 49q-97 0 -197 -74q-71 -121 -141 -345.5t-70 -428.5q64 31 100.5 71t36.5 74q0 26 -21.5 41.5t-58.5 15.5q0 33 25.5 57.5t58.5 24.5q25 0 46.5 -22t21.5 -60q0 -69 -54 -140 t-155 -120q2 -150 38 -215t128 -65q0 -36 -36 -76.5t-77 -40.5q-49 0 -86 20.5t-58 52.5t-34 79t-17.5 92.5t-4.5 101.5q-96 -22 -207 -22q-53 0 -111 14q-126 -142 -262 -220.5t-295 -78.5q-164 0 -249 77.5t-85 203.5zM354 420q0 -24 21 -58q77 105 119 166 q-53 7 -96.5 -21t-43.5 -87zM518 266q52 -10 111 -10q89 0 162 18q0 65 -35.5 114.5t-87.5 80.5q-73 -108 -150 -203zM758 602q52 -43 96 -104q13 105 62 241t98 238h-4q-38 -44 -80 -106t-95.5 -148t-76.5 -121zM1067 1362q0 13 59 72.5t134.5 115.5t111.5 56 q37 0 82 -57.5t72.5 -115t27.5 -71.5v-2q0 -7 -1 -10.5t-7.5 -7t-19.5 -3.5q-20 27 -68.5 76t-85.5 72q-49 -9 -147 -66.5t-129 -81.5q-11 0 -17.5 2t-8.5 6.5t-2.5 6.5t-0.5 8z" />
<glyph unicode="&#xc3;" horiz-adv-x="1107" d="M-418 195q0 95 54.5 145.5t123.5 50.5q53 0 77 -28t24 -68q-27 0 -53 -7.5t-50.5 -24.5t-39.5 -48.5t-15 -73.5q0 -68 45.5 -116t134.5 -48q203 0 451 330q-25 27 -43.5 64.5t-18.5 72.5q0 43 15.5 84t45.5 76.5t81 57.5t116 22q24 0 64 -10q91 133 175.5 235t181 192.5 t197.5 139.5t198 49q62 0 102.5 -28t40.5 -70q0 -36 -22 -59t-54 -23q-27 0 -47 19t-20 49q-97 0 -197 -74q-71 -121 -141 -345.5t-70 -428.5q64 31 100.5 71t36.5 74q0 26 -21.5 41.5t-58.5 15.5q0 33 25.5 57.5t58.5 24.5q25 0 46.5 -22t21.5 -60q0 -69 -54 -140 t-155 -120q2 -150 38 -215t128 -65q0 -36 -36 -76.5t-77 -40.5q-49 0 -86 20.5t-58 52.5t-34 79t-17.5 92.5t-4.5 101.5q-96 -22 -207 -22q-53 0 -111 14q-126 -142 -262 -220.5t-295 -78.5q-164 0 -249 77.5t-85 203.5zM354 420q0 -24 21 -58q77 105 119 166 q-53 7 -96.5 -21t-43.5 -87zM518 266q52 -10 111 -10q89 0 162 18q0 65 -35.5 114.5t-87.5 80.5q-73 -108 -150 -203zM758 602q52 -43 96 -104q13 105 62 241t98 238h-4q-38 -44 -80 -106t-95.5 -148t-76.5 -121zM969 1448q0 42 41 71t96 29q39 0 76.5 -15.5t62 -34.5 t57 -34.5t62.5 -15.5q38 0 60 22.5t22 53.5q20 0 35.5 -16t15.5 -38q0 -43 -40.5 -81.5t-98.5 -38.5q-46 0 -85 15.5t-62 33.5t-57.5 33.5t-72.5 15.5q-29 0 -47.5 -12.5t-21.5 -32.5q-17 0 -30 13t-13 32z" />
<glyph unicode="&#xc4;" horiz-adv-x="1107" d="M-418 195q0 95 54.5 145.5t123.5 50.5q53 0 77 -28t24 -68q-27 0 -53 -7.5t-50.5 -24.5t-39.5 -48.5t-15 -73.5q0 -68 45.5 -116t134.5 -48q203 0 451 330q-25 27 -43.5 64.5t-18.5 72.5q0 43 15.5 84t45.5 76.5t81 57.5t116 22q24 0 64 -10q91 133 175.5 235t181 192.5 t197.5 139.5t198 49q62 0 102.5 -28t40.5 -70q0 -36 -22 -59t-54 -23q-27 0 -47 19t-20 49q-97 0 -197 -74q-71 -121 -141 -345.5t-70 -428.5q64 31 100.5 71t36.5 74q0 26 -21.5 41.5t-58.5 15.5q0 33 25.5 57.5t58.5 24.5q25 0 46.5 -22t21.5 -60q0 -69 -54 -140 t-155 -120q2 -150 38 -215t128 -65q0 -36 -36 -76.5t-77 -40.5q-49 0 -86 20.5t-58 52.5t-34 79t-17.5 92.5t-4.5 101.5q-96 -22 -207 -22q-53 0 -111 14q-126 -142 -262 -220.5t-295 -78.5q-164 0 -249 77.5t-85 203.5zM354 420q0 -24 21 -58q77 105 119 166 q-53 7 -96.5 -21t-43.5 -87zM518 266q52 -10 111 -10q89 0 162 18q0 65 -35.5 114.5t-87.5 80.5q-73 -108 -150 -203zM758 602q52 -43 96 -104q13 105 62 241t98 238h-4q-38 -44 -80 -106t-95.5 -148t-76.5 -121zM1149 1432q0 39 28 64.5t68 25.5q42 0 70 -25.5t28 -64.5 t-28 -65t-70 -26q-40 0 -68 26t-28 65zM1384 1432q0 39 28.5 64.5t70.5 25.5q40 0 68 -25.5t28 -64.5t-28 -65t-68 -26q-42 0 -70.5 26t-28.5 65z" />
<glyph unicode="&#xc5;" horiz-adv-x="1107" d="M-418 195q0 95 54.5 145.5t123.5 50.5q53 0 77 -28t24 -68q-27 0 -53 -7.5t-50.5 -24.5t-39.5 -48.5t-15 -73.5q0 -68 45.5 -116t134.5 -48q203 0 451 330q-25 27 -43.5 64.5t-18.5 72.5q0 43 15.5 84t45.5 76.5t81 57.5t116 22q24 0 64 -10q91 133 175.5 235t181 192.5 t197.5 139.5t198 49q62 0 102.5 -28t40.5 -70q0 -36 -22 -59t-54 -23q-27 0 -47 19t-20 49q-97 0 -197 -74q-71 -121 -141 -345.5t-70 -428.5q64 31 100.5 71t36.5 74q0 26 -21.5 41.5t-58.5 15.5q0 33 25.5 57.5t58.5 24.5q25 0 46.5 -22t21.5 -60q0 -69 -54 -140 t-155 -120q2 -150 38 -215t128 -65q0 -36 -36 -76.5t-77 -40.5q-49 0 -86 20.5t-58 52.5t-34 79t-17.5 92.5t-4.5 101.5q-96 -22 -207 -22q-53 0 -111 14q-126 -142 -262 -220.5t-295 -78.5q-164 0 -249 77.5t-85 203.5zM354 420q0 -24 21 -58q77 105 119 166 q-53 7 -96.5 -21t-43.5 -87zM518 266q52 -10 111 -10q89 0 162 18q0 65 -35.5 114.5t-87.5 80.5q-73 -108 -150 -203zM758 602q52 -43 96 -104q13 105 62 241t98 238h-4q-38 -44 -80 -106t-95.5 -148t-76.5 -121zM1128 1491q0 103 76.5 175.5t169.5 72.5q58 0 93.5 -39.5 t35.5 -104.5q0 -102 -59 -173.5t-168 -71.5q-61 0 -104.5 41t-43.5 100zM1264 1516q0 -86 59 -86q56 0 89.5 37.5t33.5 105.5q0 35 -16 54.5t-39 19.5q-47 0 -87 -37.5t-40 -93.5z" />
<glyph unicode="&#xc6;" horiz-adv-x="1693" d="M-418 195q0 95 54.5 145.5t123.5 50.5q53 0 77 -28t24 -68q-27 0 -53 -7.5t-50.5 -24.5t-39.5 -48.5t-15 -73.5q0 -68 45.5 -116t134.5 -48q203 0 451 330q-25 27 -43.5 64.5t-18.5 72.5q0 43 15.5 84t45.5 76.5t81 57.5t116 22q24 0 64 -10q120 175 223 291 q-50 42 -78 89.5t-28 88.5q0 65 37 95t69 30q76 0 76 -80q-84 0 -84 -74q0 -39 53 -98q260 274 484 274q48 0 86 -18q118 41 233 41q122 0 198 -58.5t76 -138.5q0 -75 -53 -131t-145.5 -89t-201 -50t-236.5 -21q0 -31 6 -55q57 8 137 8q178 0 178 -112q0 -58 -63.5 -94.5 t-178.5 -36.5q-61 0 -119.5 25t-101.5 73l-43 -35q29 -25 29 -66q0 -61 -42.5 -124.5t-123.5 -112.5v-16q0 -139 67.5 -223.5t182.5 -84.5q163 0 263.5 84t100.5 201q0 56 -28.5 87.5t-69.5 31.5q-40 0 -70 -26.5t-30 -61.5q-41 0 -73 13.5t-32 33.5q0 51 50 94t139 43 q81 0 139.5 -55.5t58.5 -139.5q0 -114 -65.5 -206t-179 -143.5t-252.5 -51.5q-91 0 -164.5 29t-119.5 79t-73 110t-34 128q-96 -22 -207 -22q-53 0 -111 14q-126 -142 -262 -220.5t-295 -78.5q-164 0 -249 77.5t-85 203.5zM354 420q0 -24 21 -58q77 105 119 166 q-53 7 -96.5 -21t-43.5 -87zM518 266q52 -10 111 -10q89 0 162 18q0 65 -35.5 114.5t-87.5 80.5q-73 -108 -150 -203zM758 602q52 -43 96 -104q18 148 113 372l-29 13q-34 -49 -95.5 -148t-84.5 -133zM969 641q64 53 137 80q-24 57 -27 113q-37 8 -57 14q-27 -75 -53 -207z M971 928l16 -8q6 15 27 57h-4q-4 -6 -18 -22.5t-21 -26.5zM987 358q42 27 65 58.5t23 58.5q0 28 -24 43q-50 -75 -64 -160zM1038 897q29 -8 41 -10q14 123 97 219q-76 -49 -138 -209zM1305 877q528 8 528 208q0 59 -48 86t-122 27q-142 0 -243.5 -81.5t-114.5 -239.5z M1331 715q49 -74 135 -74q40 0 65.5 9.5t32.5 19t7 18.5q0 20 -27 32.5t-74 12.5q-68 0 -139 -18z" />
<glyph unicode="&#xc7;" horiz-adv-x="978" d="M-119 901q0 65 37.5 95t69.5 30q75 0 75 -80q-83 0 -83 -74q0 -42 32.5 -79t104.5 -60q80 170 222.5 303.5t310.5 205t331 71.5q121 0 191.5 -40.5t70.5 -111.5q0 -81 -58.5 -156.5t-152 -132t-210 -101t-233.5 -71t-222 -34.5q-72 -169 -72 -355q0 -147 57.5 -233 t177.5 -86q93 0 168.5 46t115.5 116.5t40 146.5q0 58 -30.5 92.5t-65.5 34.5q-47 0 -71.5 -29.5t-24.5 -58.5q-41 0 -73 13.5t-32 33.5q0 50 48.5 95.5t125.5 45.5q89 0 147 -59t58 -150q0 -176 -131 -290.5t-342 -114.5q-198 0 -313 121.5t-115 337.5q0 161 61 311 q-95 26 -155 84t-60 133zM104 -217q0 23 75.5 55t161 58.5t93.5 31.5q14 0 21 -4t7.5 -7t0.5 -11q0 -9 -51.5 -49.5t-117 -93t-89.5 -82.5q-45 0 -73 32t-28 70zM389 721q152 17 312 80t270 156.5t110 183.5q0 32 -16.5 55t-48.5 23q-92 0 -219 -75t-239.5 -191t-168.5 -232 z" />
<glyph unicode="&#xc8;" horiz-adv-x="978" d="M23 270q0 148 99.5 267.5t268.5 183.5q-23 55 -26 113q-66 15 -130.5 48t-110.5 81.5t-46 97.5q0 65 37 95t69 30q76 0 76 -80q-84 0 -84 -74q0 -39 59 -84.5t130 -60.5q10 82 50.5 153t99.5 120.5t133 84.5t150.5 51.5t151.5 16.5q122 0 198.5 -58.5t76.5 -138.5 q0 -75 -53 -131t-146 -89t-201.5 -50t-236.5 -21q0 -31 6 -55q57 8 137 8q178 0 178 -112q0 -58 -63 -94.5t-178 -36.5q-61 0 -120 25t-102 73q-180 -135 -180 -354q0 -139 67.5 -223.5t182.5 -84.5q163 0 264 84t101 201q0 56 -29 87.5t-70 31.5q-40 0 -70 -26.5t-30 -61.5 q-41 0 -72.5 13.5t-31.5 33.5q0 51 49.5 94t138.5 43q82 0 140.5 -55.5t58.5 -139.5q0 -113 -66 -200.5t-179 -134.5t-253 -47q-216 0 -330 104t-114 272zM590 877q528 8 528 208q0 59 -48 86t-122 27q-142 0 -243.5 -81.5t-114.5 -239.5zM616 715q49 -74 136 -74 q40 0 65.5 9.5t32 19t6.5 18.5q0 20 -26.5 32.5t-73.5 12.5q-70 0 -140 -18zM756 1552q0 25 29 57.5t71 32.5q8 -39 43 -86t65.5 -84t30.5 -55v-2q0 -5 -0.5 -7.5t-2.5 -6t-8.5 -5t-16.5 -1.5q-11 15 -111 72t-100 85z" />
<glyph unicode="&#xc9;" horiz-adv-x="978" d="M23 270q0 148 99.5 267.5t268.5 183.5q-23 55 -26 113q-66 15 -130.5 48t-110.5 81.5t-46 97.5q0 65 37 95t69 30q76 0 76 -80q-84 0 -84 -74q0 -39 59 -84.5t130 -60.5q10 82 50.5 153t99.5 120.5t133 84.5t150.5 51.5t151.5 16.5q122 0 198.5 -58.5t76.5 -138.5 q0 -75 -53 -131t-146 -89t-201.5 -50t-236.5 -21q0 -31 6 -55q57 8 137 8q178 0 178 -112q0 -58 -63 -94.5t-178 -36.5q-61 0 -120 25t-102 73q-180 -135 -180 -354q0 -139 67.5 -223.5t182.5 -84.5q163 0 264 84t101 201q0 56 -29 87.5t-70 31.5q-40 0 -70 -26.5t-30 -61.5 q-41 0 -72.5 13.5t-31.5 33.5q0 51 49.5 94t138.5 43q82 0 140.5 -55.5t58.5 -139.5q0 -113 -66 -200.5t-179 -134.5t-253 -47q-216 0 -330 104t-114 272zM590 877q528 8 528 208q0 59 -48 86t-122 27q-142 0 -243.5 -81.5t-114.5 -239.5zM616 715q49 -74 136 -74 q40 0 65.5 9.5t32 19t6.5 18.5q0 20 -26.5 32.5t-73.5 12.5q-70 0 -140 -18zM836 1418.5v11.5t51.5 49.5t117 93t89.5 82.5q44 0 72 -32t28 -71q0 -23 -75.5 -55t-161 -58.5t-93.5 -31.5q-14 0 -21 4.5t-7 7z" />
<glyph unicode="&#xca;" horiz-adv-x="978" d="M23 270q0 148 99.5 267.5t268.5 183.5q-23 55 -26 113q-66 15 -130.5 48t-110.5 81.5t-46 97.5q0 65 37 95t69 30q76 0 76 -80q-84 0 -84 -74q0 -39 59 -84.5t130 -60.5q10 82 50.5 153t99.5 120.5t133 84.5t150.5 51.5t151.5 16.5q122 0 198.5 -58.5t76.5 -138.5 q0 -75 -53 -131t-146 -89t-201.5 -50t-236.5 -21q0 -31 6 -55q57 8 137 8q178 0 178 -112q0 -58 -63 -94.5t-178 -36.5q-61 0 -120 25t-102 73q-180 -135 -180 -354q0 -139 67.5 -223.5t182.5 -84.5q163 0 264 84t101 201q0 56 -29 87.5t-70 31.5q-40 0 -70 -26.5t-30 -61.5 q-41 0 -72.5 13.5t-31.5 33.5q0 51 49.5 94t138.5 43q82 0 140.5 -55.5t58.5 -139.5q0 -113 -66 -200.5t-179 -134.5t-253 -47q-216 0 -330 104t-114 272zM590 877q528 8 528 208q0 59 -48 86t-122 27q-142 0 -243.5 -81.5t-114.5 -239.5zM616 715q49 -74 136 -74 q40 0 65.5 9.5t32 19t6.5 18.5q0 20 -26.5 32.5t-73.5 12.5q-70 0 -140 -18zM725 1421q0 13 59 72.5t134.5 115.5t111.5 56q37 0 82 -57.5t72.5 -115t27.5 -71.5v-2q0 -5 -0.5 -7.5t-2.5 -6t-8.5 -5t-16.5 -1.5q-19 26 -68 75t-86 72q-49 -9 -147.5 -66t-128.5 -81 q-14 0 -21 4t-7.5 7t-0.5 11z" />
<glyph unicode="&#xcb;" horiz-adv-x="978" d="M23 270q0 148 99.5 267.5t268.5 183.5q-23 55 -26 113q-66 15 -130.5 48t-110.5 81.5t-46 97.5q0 65 37 95t69 30q76 0 76 -80q-84 0 -84 -74q0 -39 59 -84.5t130 -60.5q10 82 50.5 153t99.5 120.5t133 84.5t150.5 51.5t151.5 16.5q122 0 198.5 -58.5t76.5 -138.5 q0 -75 -53 -131t-146 -89t-201.5 -50t-236.5 -21q0 -31 6 -55q57 8 137 8q178 0 178 -112q0 -58 -63 -94.5t-178 -36.5q-61 0 -120 25t-102 73q-180 -135 -180 -354q0 -139 67.5 -223.5t182.5 -84.5q163 0 264 84t101 201q0 56 -29 87.5t-70 31.5q-40 0 -70 -26.5t-30 -61.5 q-41 0 -72.5 13.5t-31.5 33.5q0 51 49.5 94t138.5 43q82 0 140.5 -55.5t58.5 -139.5q0 -113 -66 -200.5t-179 -134.5t-253 -47q-216 0 -330 104t-114 272zM590 877q528 8 528 208q0 59 -48 86t-122 27q-142 0 -243.5 -81.5t-114.5 -239.5zM616 715q49 -74 136 -74 q40 0 65.5 9.5t32 19t6.5 18.5q0 20 -26.5 32.5t-73.5 12.5q-70 0 -140 -18zM774 1501q0 39 28 64.5t68 25.5q42 0 70.5 -25.5t28.5 -64.5t-28.5 -64.5t-70.5 -25.5q-40 0 -68 25.5t-28 64.5zM1010 1501q0 39 28 64.5t70 25.5q40 0 68 -25.5t28 -64.5t-28 -64.5t-68 -25.5 q-42 0 -70 25.5t-28 64.5z" />
<glyph unicode="&#xcc;" horiz-adv-x="849" d="M-223 207q0 95 55 148t123 53q53 0 76.5 -30t23.5 -71q-62 0 -107.5 -33.5t-45.5 -113.5q0 -33 12.5 -65.5t37.5 -62.5t69 -48.5t100 -18.5q95 0 173.5 41.5t134.5 114t101.5 162t84.5 196t74 204t79.5 197.5t91.5 167q-10 2 -88 38.5t-168.5 68.5t-150.5 32 q-127 0 -188.5 -51t-61.5 -134q0 -69 69.5 -115t182.5 -46q0 -46 -33.5 -86.5t-75.5 -40.5q-33 0 -69.5 15t-70 42.5t-55.5 75.5t-22 106q0 155 118 264t310 109q75 0 151.5 -17.5t125 -38.5t91 -41t52.5 -22q37 59 84 83t88 24q33 0 54.5 -23t21.5 -51q0 -41 -17 -76 t-45 -60t-53 -41t-53 -28q-37 -56 -75.5 -143.5t-69.5 -174t-73 -186t-85 -187t-106 -170t-135.5 -141.5t-174 -94.5t-221.5 -35.5q-162 0 -251 88.5t-89 216.5zM748 1561q0 25 29 57.5t71 32.5q8 -39 43 -86.5t65.5 -84.5t30.5 -55q0 -6 -0.5 -8t-2.5 -6.5t-8.5 -6 t-17.5 -1.5q-11 15 -110.5 72.5t-99.5 85.5z" />
<glyph unicode="&#xcd;" horiz-adv-x="849" d="M-223 207q0 95 55 148t123 53q53 0 76.5 -30t23.5 -71q-62 0 -107.5 -33.5t-45.5 -113.5q0 -33 12.5 -65.5t37.5 -62.5t69 -48.5t100 -18.5q95 0 173.5 41.5t134.5 114t101.5 162t84.5 196t74 204t79.5 197.5t91.5 167q-10 2 -88 38.5t-168.5 68.5t-150.5 32 q-127 0 -188.5 -51t-61.5 -134q0 -69 69.5 -115t182.5 -46q0 -46 -33.5 -86.5t-75.5 -40.5q-33 0 -69.5 15t-70 42.5t-55.5 75.5t-22 106q0 155 118 264t310 109q75 0 151.5 -17.5t125 -38.5t91 -41t52.5 -22q37 59 84 83t88 24q33 0 54.5 -23t21.5 -51q0 -41 -17 -76 t-45 -60t-53 -41t-53 -28q-37 -56 -75.5 -143.5t-69.5 -174t-73 -186t-85 -187t-106 -170t-135.5 -141.5t-174 -94.5t-221.5 -35.5q-162 0 -251 88.5t-89 216.5zM760 1445v4v3q0 9 51.5 49.5t117 93t89.5 82.5q45 0 72.5 -32t27.5 -70q0 -23 -75.5 -55t-161 -58.5 t-93.5 -31.5q-5 0 -9 0.5t-7 1.5t-5 1.5t-3.5 2.5t-2 2.5t-1 3t-0.5 3.5z" />
<glyph unicode="&#xce;" horiz-adv-x="849" d="M-223 207q0 95 55 148t123 53q53 0 76.5 -30t23.5 -71q-62 0 -107.5 -33.5t-45.5 -113.5q0 -33 12.5 -65.5t37.5 -62.5t69 -48.5t100 -18.5q95 0 173.5 41.5t134.5 114t101.5 162t84.5 196t74 204t79.5 197.5t91.5 167q-10 2 -88 38.5t-168.5 68.5t-150.5 32 q-127 0 -188.5 -51t-61.5 -134q0 -69 69.5 -115t182.5 -46q0 -46 -33.5 -86.5t-75.5 -40.5q-33 0 -69.5 15t-70 42.5t-55.5 75.5t-22 106q0 155 118 264t310 109q75 0 151.5 -17.5t125 -38.5t91 -41t52.5 -22q37 59 84 83t88 24q33 0 54.5 -23t21.5 -51q0 -41 -17 -76 t-45 -60t-53 -41t-53 -28q-37 -56 -75.5 -143.5t-69.5 -174t-73 -186t-85 -187t-106 -170t-135.5 -141.5t-174 -94.5t-221.5 -35.5q-162 0 -251 88.5t-89 216.5zM606 1440q0 13 59 72.5t134.5 115t111.5 55.5q37 0 82.5 -57.5t73 -115t27.5 -70.5q0 -6 -0.5 -8t-2.5 -6.5 t-8.5 -6.5t-17.5 -2q-20 27 -68.5 76t-85.5 72q-49 -9 -147 -66.5t-129 -81.5q-11 0 -17.5 2t-8.5 6.5t-2.5 6.5t-0.5 8z" />
<glyph unicode="&#xcf;" horiz-adv-x="849" d="M-223 207q0 95 55 148t123 53q53 0 76.5 -30t23.5 -71q-62 0 -107.5 -33.5t-45.5 -113.5q0 -33 12.5 -65.5t37.5 -62.5t69 -48.5t100 -18.5q95 0 173.5 41.5t134.5 114t101.5 162t84.5 196t74 204t79.5 197.5t91.5 167q-10 2 -88 38.5t-168.5 68.5t-150.5 32 q-127 0 -188.5 -51t-61.5 -134q0 -69 69.5 -115t182.5 -46q0 -46 -33.5 -86.5t-75.5 -40.5q-33 0 -69.5 15t-70 42.5t-55.5 75.5t-22 106q0 155 118 264t310 109q75 0 151.5 -17.5t125 -38.5t91 -41t52.5 -22q37 59 84 83t88 24q33 0 54.5 -23t21.5 -51q0 -41 -17 -76 t-45 -60t-53 -41t-53 -28q-37 -56 -75.5 -143.5t-69.5 -174t-73 -186t-85 -187t-106 -170t-135.5 -141.5t-174 -94.5t-221.5 -35.5q-162 0 -251 88.5t-89 216.5zM690 1524q0 39 28 64.5t68 25.5q42 0 70.5 -25.5t28.5 -64.5t-28.5 -64.5t-70.5 -25.5q-40 0 -68 25.5 t-28 64.5zM926 1524q0 39 28 64.5t70 25.5q40 0 68 -25.5t28 -64.5t-28 -64.5t-68 -25.5q-42 0 -70 25.5t-28 64.5z" />
<glyph unicode="&#xd0;" horiz-adv-x="1599" d="M-119 29q0 42 44.5 70t117.5 28q38 0 78.5 -9t64 -18t71.5 -30.5t65 -28.5q122 78 237 272q-104 17 -201 17q-29 0 -48 13t-19 28q0 26 145 26q72 0 164 -10q36 66 55 105q-74 53 -116.5 138.5t-42.5 196.5q0 214 161 350t420 136h10q111 106 242 106q113 0 113 -41 q0 -13 -15 -18.5t-57 -5.5q-71 0 -133 -64q111 -32 206 -108.5t156.5 -193.5t61.5 -249q0 -130 -34 -242.5t-92 -195.5t-138 -149.5t-170.5 -110.5t-191.5 -73t-197.5 -41.5t-192.5 -12.5q-167 0 -297 29q-137 -58 -285 -58q-80 0 -131 43.5t-51 100.5zM39 -2q0 -4 4.5 -8 t22 -8.5t45.5 -4.5q35 0 84 11q-84 26 -129 26q-27 0 -27 -16zM457 0q62 -8 100 -8q122 0 241.5 27t233.5 87.5t200.5 148t139.5 219t53 290.5q0 161 -68 276t-181 170q-100 -150 -211 -456q-40 -117 -80 -197q74 -14 180 -14q0 -52 -54 -88.5t-120 -36.5q-37 0 -72 6 q-17 -33 -37 -66q103 -21 176.5 -43.5t73.5 -31.5q0 -88 -47 -88q-7 0 -40 12t-94 32.5t-120 36.5q-122 -181 -274 -276zM582 877q0 -178 133 -261q38 86 86 209q107 276 229 424q-14 2 -43 2q-179 0 -292 -98t-113 -276z" />
<glyph unicode="&#xd1;" horiz-adv-x="1222" d="M-260 207q0 95 54.5 145.5t123.5 50.5q53 0 76.5 -28t23.5 -68q-62 0 -107.5 -33.5t-45.5 -113.5q0 -73 50.5 -128t158.5 -55q91 0 177 46t155.5 124t134.5 179t119.5 212.5t105 223t96 212.5t87.5 179t84.5 124t82.5 46q62 0 109 -41.5t47 -93.5q0 -21 -26.5 -72.5 t-64 -129t-75 -178t-64 -250.5t-26.5 -316h4q95 383 233.5 677t296 453.5t308.5 159.5q61 0 102.5 -15.5t60.5 -42t26 -49.5t7 -49q-119 0 -233 -40.5t-230.5 -137t-215 -241.5t-183 -368t-137.5 -503q-19 -99 -39 -135.5t-58 -36.5q-77 0 -115 67.5t-38 186.5 q0 137 23.5 288t61.5 280.5t67.5 213.5t58.5 152h-4q-17 -16 -48 -77.5t-67 -147t-86.5 -191.5t-106 -212.5t-126.5 -208t-146 -179t-168 -125t-188 -47.5q-163 0 -249.5 83t-86.5 210zM1147 1561q0 42 41 71t96 29q39 0 76.5 -15.5t62 -34.5t57 -34.5t62.5 -15.5 q38 0 60 22t22 53q20 0 35.5 -15.5t15.5 -37.5q0 -43 -40.5 -82t-98.5 -39q-46 0 -84.5 15.5t-61.5 34t-57.5 34t-72.5 15.5q-29 0 -48 -12.5t-22 -32.5q-17 0 -30 13t-13 32z" />
<glyph unicode="&#xd2;" horiz-adv-x="1388" d="M35 373q0 145 52 287t143 258t207.5 206t253.5 139.5t272 49.5q230 0 327 -156q14 2 43 2q118 0 187 -74t69 -190q0 -127 -80.5 -224.5t-216.5 -140.5q-67 -180 -201 -322.5t-292 -218t-310 -75.5q-112 0 -200 35.5t-142.5 99t-83 145.5t-28.5 179zM289 334 q0 -85 24 -146t66 -93.5t89.5 -47t102.5 -14.5q129 0 253.5 58t224.5 166.5t157 250.5q-62 -10 -119 -10q-203 0 -339 126.5t-136 338.5q0 45 25 106q-154 -112 -251 -299.5t-97 -435.5zM848 905q0 -156 87.5 -243t219.5 -87q34 0 78 7q39 128 39 266q0 105 -31 186 q-45 -24 -70.5 -69.5t-25.5 -96.5q-41 0 -73 13.5t-32 33.5q0 71 35.5 123.5t95.5 83.5q-56 43 -120 43q-84 0 -143.5 -69t-59.5 -191zM881 1579q0 25 29 57.5t71 32.5q8 -39 43 -86t65.5 -84t30.5 -55v-2q0 -7 -1 -10.5t-7.5 -7t-19.5 -3.5q-11 15 -111 72.5t-100 85.5z M1317 602q90 32 142 99.5t52 164.5q0 87 -46.5 136.5t-133.5 52.5q23 -94 23 -195q0 -140 -37 -258z" />
<glyph unicode="&#xd3;" horiz-adv-x="1388" d="M35 373q0 145 52 287t143 258t207.5 206t253.5 139.5t272 49.5q230 0 327 -156q14 2 43 2q118 0 187 -74t69 -190q0 -127 -80.5 -224.5t-216.5 -140.5q-67 -180 -201 -322.5t-292 -218t-310 -75.5q-112 0 -200 35.5t-142.5 99t-83 145.5t-28.5 179zM289 334 q0 -85 24 -146t66 -93.5t89.5 -47t102.5 -14.5q129 0 253.5 58t224.5 166.5t157 250.5q-62 -10 -119 -10q-203 0 -339 126.5t-136 338.5q0 45 25 106q-154 -112 -251 -299.5t-97 -435.5zM848 905q0 -156 87.5 -243t219.5 -87q34 0 78 7q39 128 39 266q0 105 -31 186 q-45 -24 -70.5 -69.5t-25.5 -96.5q-41 0 -73 13.5t-32 33.5q0 71 35.5 123.5t95.5 83.5q-56 43 -120 43q-84 0 -143.5 -69t-59.5 -191zM940 1450q0 9 51.5 49.5t117 93t89.5 82.5q45 0 72.5 -32t27.5 -70q0 -23 -75 -55t-160.5 -59t-93.5 -32q-11 0 -17.5 2t-8.5 6.5 t-2.5 6.5t-0.5 8zM1317 602q90 32 142 99.5t52 164.5q0 87 -46.5 136.5t-133.5 52.5q23 -94 23 -195q0 -140 -37 -258z" />
<glyph unicode="&#xd4;" horiz-adv-x="1388" d="M35 373q0 145 52 287t143 258t207.5 206t253.5 139.5t272 49.5q230 0 327 -156q14 2 43 2q118 0 187 -74t69 -190q0 -127 -80.5 -224.5t-216.5 -140.5q-67 -180 -201 -322.5t-292 -218t-310 -75.5q-112 0 -200 35.5t-142.5 99t-83 145.5t-28.5 179zM289 334 q0 -85 24 -146t66 -93.5t89.5 -47t102.5 -14.5q129 0 253.5 58t224.5 166.5t157 250.5q-62 -10 -119 -10q-203 0 -339 126.5t-136 338.5q0 45 25 106q-154 -112 -251 -299.5t-97 -435.5zM838 1408v4v3q0 13 59 72.5t134.5 115.5t111.5 56q37 0 82 -57.5t72.5 -115 t27.5 -71.5q0 -6 -0.5 -8t-2.5 -6.5t-8.5 -6t-17.5 -1.5q-20 27 -68 75.5t-85 71.5q-49 -9 -148 -66.5t-129 -80.5q-5 0 -9 0.5t-7 1.5t-5 1.5t-3.5 2.5t-2 2.5t-1 3t-0.5 3.5zM848 905q0 -156 87.5 -243t219.5 -87q34 0 78 7q39 128 39 266q0 105 -31 186 q-45 -24 -70.5 -69.5t-25.5 -96.5q-41 0 -73 13.5t-32 33.5q0 71 35.5 123.5t95.5 83.5q-56 43 -120 43q-84 0 -143.5 -69t-59.5 -191zM1317 602q90 32 142 99.5t52 164.5q0 87 -46.5 136.5t-133.5 52.5q23 -94 23 -195q0 -140 -37 -258z" />
<glyph unicode="&#xd5;" horiz-adv-x="1388" d="M35 373q0 145 52 287t143 258t207.5 206t253.5 139.5t272 49.5q230 0 327 -156q14 2 43 2q118 0 187 -74t69 -190q0 -127 -80.5 -224.5t-216.5 -140.5q-67 -180 -201 -322.5t-292 -218t-310 -75.5q-112 0 -200 35.5t-142.5 99t-83 145.5t-28.5 179zM289 334 q0 -85 24 -146t66 -93.5t89.5 -47t102.5 -14.5q129 0 253.5 58t224.5 166.5t157 250.5q-62 -10 -119 -10q-203 0 -339 126.5t-136 338.5q0 45 25 106q-154 -112 -251 -299.5t-97 -435.5zM838 1468q0 42 41 71.5t96 29.5q39 0 76.5 -16t62 -34.5t57 -34.5t62.5 -16 q38 0 60 22.5t22 53.5q20 0 35.5 -15.5t15.5 -37.5q0 -43 -40.5 -82t-98.5 -39q-46 0 -85 15.5t-62 33.5t-57.5 33.5t-72.5 15.5q-29 0 -47.5 -12.5t-21.5 -32.5q-17 0 -30 13t-13 32zM848 905q0 -156 87.5 -243t219.5 -87q34 0 78 7q39 128 39 266q0 105 -31 186 q-45 -24 -70.5 -69.5t-25.5 -96.5q-41 0 -73 13.5t-32 33.5q0 71 35.5 123.5t95.5 83.5q-56 43 -120 43q-84 0 -143.5 -69t-59.5 -191zM1317 602q90 32 142 99.5t52 164.5q0 87 -46.5 136.5t-133.5 52.5q23 -94 23 -195q0 -140 -37 -258z" />
<glyph unicode="&#xd6;" horiz-adv-x="1388" d="M35 373q0 145 52 287t143 258t207.5 206t253.5 139.5t272 49.5q230 0 327 -156q14 2 43 2q118 0 187 -74t69 -190q0 -127 -80.5 -224.5t-216.5 -140.5q-67 -180 -201 -322.5t-292 -218t-310 -75.5q-112 0 -200 35.5t-142.5 99t-83 145.5t-28.5 179zM289 334 q0 -85 24 -146t66 -93.5t89.5 -47t102.5 -14.5q129 0 253.5 58t224.5 166.5t157 250.5q-62 -10 -119 -10q-203 0 -339 126.5t-136 338.5q0 45 25 106q-154 -112 -251 -299.5t-97 -435.5zM848 905q0 -156 87.5 -243t219.5 -87q34 0 78 7q39 128 39 266q0 105 -31 186 q-45 -24 -70.5 -69.5t-25.5 -96.5q-41 0 -73 13.5t-32 33.5q0 71 35.5 123.5t95.5 83.5q-56 43 -120 43q-84 0 -143.5 -69t-59.5 -191zM848 1501q0 39 28 64.5t68 25.5q42 0 70 -25.5t28 -64.5t-28 -64.5t-70 -25.5q-40 0 -68 25.5t-28 64.5zM1083 1501q0 39 28.5 64.5 t70.5 25.5q40 0 68 -25.5t28 -64.5t-28 -64.5t-68 -25.5q-42 0 -70.5 25.5t-28.5 64.5zM1317 602q90 32 142 99.5t52 164.5q0 87 -46.5 136.5t-133.5 52.5q23 -94 23 -195q0 -140 -37 -258z" />
<glyph unicode="&#xd7;" horiz-adv-x="567" d="M137 256q-17 17 84 121q17 17 70 59q-61 82 -84 105q-21 21 -26 44.5t5 32.5q17 20 123 -83q5 -5 20 -22.5t25 -27.5q69 50 128.5 84t66.5 27q61 -64 29 -96q-5 -5 -27.5 -16t-63.5 -31t-73 -37q129 -163 116 -176q-62 -62 -96 -29q-7 7 -98 158q-73 -47 -121 -95 q-21 -21 -45 -25.5t-33 7.5z" />
<glyph unicode="&#xd8;" horiz-adv-x="1388" d="M-45 -170q3 16 186 203q-106 118 -106 340q0 181 81.5 354.5t212 301.5t303 206t347.5 78q184 0 276 -109q149 152 158 150q29 -5 46 -16.5t14 -26.5q-2 -10 -148 -152h8q118 0 187 -74t69 -190q0 -127 -80.5 -224.5t-216.5 -140.5q-68 -181 -202 -323t-298 -217.5 t-329 -75.5q-162 0 -268 74q-182 -195 -201 -193q-17 3 -29.5 13t-9.5 22zM289 326q0 -70 18 -123q21 22 149.5 154.5t196.5 203.5q8 9 23.5 25.5t28.5 30t24 26.5q-117 127 -117 320q0 45 25 106q-154 -113 -251 -301t-97 -442zM336 143q36 -57 94 -83.5t123 -26.5 q210 0 388.5 129.5t264.5 345.5q-62 -10 -119 -10q-190 0 -321 110q-12 -13 -37 -38.5t-37 -39.5q-186 -199 -356 -387zM848 905q0 -60 16 -119q114 123 187 201q28 87 120 135q-56 43 -120 43q-84 0 -143.5 -69t-59.5 -191zM887 729q38 -74 109 -114t159 -40q34 0 78 7 q39 128 39 266q0 105 -31 186q-45 -24 -70.5 -69.5t-25.5 -96.5q-62 0 -92 27q-83 -80 -166 -166zM1317 602q90 32 142 99.5t52 164.5q0 87 -46.5 136.5t-133.5 52.5q23 -94 23 -195q0 -140 -37 -258z" />
<glyph unicode="&#xd9;" horiz-adv-x="1181" d="M-45 985q0 174 136.5 300t328.5 126q83 0 149.5 -25t107.5 -64.5t68.5 -91.5t38.5 -103t11 -103q0 -77 -30.5 -156.5t-76.5 -144.5t-100 -139.5t-100 -140t-76.5 -147t-30.5 -159.5q0 -79 33 -118t90 -39q87 0 169.5 87.5t156.5 240t139.5 313.5t149 355t155.5 318 q8 6 32.5 12.5t53.5 6.5q38 0 67 -19t29 -55q0 -18 -5.5 -35.5t-11 -29t-28.5 -54.5q-189 -343 -291 -615.5t-102 -389.5q0 -13 9.5 -23t21.5 -10q55 0 110.5 46t122.5 136q10 0 17.5 -6t7.5 -16q-60 -103 -151 -176.5t-187 -73.5q-119 0 -119 121q0 103 39 217h-4 q-174 -420 -453 -420q-113 0 -171 83t-58 212q0 81 30 161.5t74.5 142t97 129.5t97 126t74.5 130t30 142q0 64 -11.5 115.5t-37 93.5t-71 65t-107.5 23q-147 0 -246.5 -89.5t-99.5 -229.5q0 -213 166 -213q75 0 123.5 71.5t48.5 155.5q42 0 73 -22.5t31 -59.5 q0 -97 -90.5 -173.5t-200.5 -76.5q-113 0 -171 82.5t-58 206.5zM864 1575q0 24 29.5 57t71.5 33q8 -39 43 -86t65.5 -84t30.5 -55q0 -6 -0.5 -8t-2.5 -6.5t-8.5 -6.5t-17.5 -2q-11 15 -111 72.5t-100 85.5z" />
<glyph unicode="&#xda;" horiz-adv-x="1181" d="M-45 985q0 174 136.5 300t328.5 126q83 0 149.5 -25t107.5 -64.5t68.5 -91.5t38.5 -103t11 -103q0 -77 -30.5 -156.5t-76.5 -144.5t-100 -139.5t-100 -140t-76.5 -147t-30.5 -159.5q0 -79 33 -118t90 -39q87 0 169.5 87.5t156.5 240t139.5 313.5t149 355t155.5 318 q8 6 32.5 12.5t53.5 6.5q38 0 67 -19t29 -55q0 -18 -5.5 -35.5t-11 -29t-28.5 -54.5q-189 -343 -291 -615.5t-102 -389.5q0 -13 9.5 -23t21.5 -10q55 0 110.5 46t122.5 136q10 0 17.5 -6t7.5 -16q-60 -103 -151 -176.5t-187 -73.5q-119 0 -119 121q0 103 39 217h-4 q-174 -420 -453 -420q-113 0 -171 83t-58 212q0 81 30 161.5t74.5 142t97 129.5t97 126t74.5 130t30 142q0 64 -11.5 115.5t-37 93.5t-71 65t-107.5 23q-147 0 -246.5 -89.5t-99.5 -229.5q0 -213 166 -213q75 0 123.5 71.5t48.5 155.5q42 0 73 -22.5t31 -59.5 q0 -97 -90.5 -173.5t-200.5 -76.5q-113 0 -171 82.5t-58 206.5zM1081 1440q0 9 51.5 49.5t117 93t89.5 82.5q45 0 73 -32t28 -70q0 -23 -75.5 -55t-161 -59t-93.5 -32q-11 0 -17.5 2t-8.5 6.5t-2.5 6.5t-0.5 8z" />
<glyph unicode="&#xdb;" horiz-adv-x="1181" d="M-45 985q0 174 136.5 300t328.5 126q83 0 149.5 -25t107.5 -64.5t68.5 -91.5t38.5 -103t11 -103q0 -77 -30.5 -156.5t-76.5 -144.5t-100 -139.5t-100 -140t-76.5 -147t-30.5 -159.5q0 -79 33 -118t90 -39q87 0 169.5 87.5t156.5 240t139.5 313.5t149 355t155.5 318 q8 6 32.5 12.5t53.5 6.5q38 0 67 -19t29 -55q0 -18 -5.5 -35.5t-11 -29t-28.5 -54.5q-189 -343 -291 -615.5t-102 -389.5q0 -13 9.5 -23t21.5 -10q55 0 110.5 46t122.5 136q10 0 17.5 -6t7.5 -16q-60 -103 -151 -176.5t-187 -73.5q-119 0 -119 121q0 103 39 217h-4 q-174 -420 -453 -420q-113 0 -171 83t-58 212q0 81 30 161.5t74.5 142t97 129.5t97 126t74.5 130t30 142q0 64 -11.5 115.5t-37 93.5t-71 65t-107.5 23q-147 0 -246.5 -89.5t-99.5 -229.5q0 -213 166 -213q75 0 123.5 71.5t48.5 155.5q42 0 73 -22.5t31 -59.5 q0 -97 -90.5 -173.5t-200.5 -76.5q-113 0 -171 82.5t-58 206.5zM879 1463v4v3q0 13 59 72.5t134.5 115.5t111.5 56q37 0 82 -57.5t72.5 -115t27.5 -71.5q0 -6 -0.5 -8t-2.5 -6.5t-8.5 -6t-17.5 -1.5q-20 27 -68 75.5t-85 71.5q-49 -9 -148 -66.5t-129 -80.5q-5 0 -9 0.5 t-7 1.5t-5 1.5t-3.5 2.5t-2 2.5t-1 3t-0.5 3.5z" />
<glyph unicode="&#xdc;" horiz-adv-x="1181" d="M-45 985q0 174 136.5 300t328.5 126q83 0 149.5 -25t107.5 -64.5t68.5 -91.5t38.5 -103t11 -103q0 -77 -30.5 -156.5t-76.5 -144.5t-100 -139.5t-100 -140t-76.5 -147t-30.5 -159.5q0 -79 33 -118t90 -39q87 0 169.5 87.5t156.5 240t139.5 313.5t149 355t155.5 318 q8 6 32.5 12.5t53.5 6.5q38 0 67 -19t29 -55q0 -18 -5.5 -35.5t-11 -29t-28.5 -54.5q-189 -343 -291 -615.5t-102 -389.5q0 -13 9.5 -23t21.5 -10q55 0 110.5 46t122.5 136q10 0 17.5 -6t7.5 -16q-60 -103 -151 -176.5t-187 -73.5q-119 0 -119 121q0 103 39 217h-4 q-174 -420 -453 -420q-113 0 -171 83t-58 212q0 81 30 161.5t74.5 142t97 129.5t97 126t74.5 130t30 142q0 64 -11.5 115.5t-37 93.5t-71 65t-107.5 23q-147 0 -246.5 -89.5t-99.5 -229.5q0 -213 166 -213q75 0 123.5 71.5t48.5 155.5q42 0 73 -22.5t31 -59.5 q0 -97 -90.5 -173.5t-200.5 -76.5q-113 0 -171 82.5t-58 206.5zM852 1493q0 39 28 64.5t68 25.5q42 0 70.5 -25.5t28.5 -64.5t-28.5 -64.5t-70.5 -25.5q-40 0 -68 25.5t-28 64.5zM1087 1493q0 39 28.5 64.5t70.5 25.5q40 0 68 -25.5t28 -64.5t-28 -64.5t-68 -25.5 q-42 0 -70.5 25.5t-28.5 64.5z" />
<glyph unicode="&#xdd;" horiz-adv-x="1222" d="M-88 -166q0 95 55 148t123 53q53 0 76.5 -30t23.5 -71q-62 0 -107.5 -33.5t-45.5 -113.5q0 -33 12.5 -65.5t37.5 -62.5t69 -48.5t100 -18.5q72 0 136.5 18.5t117 50t102.5 82.5t89.5 106.5t80.5 133t74 151t72 169.5h-4q-41 -65 -76.5 -114.5t-83 -100t-94 -82.5 t-105.5 -52t-123 -20q-95 0 -159 70t-64 191q0 92 37.5 185.5t90.5 172.5t106.5 156t91 162.5t37.5 164.5q0 64 -12 115.5t-37.5 93.5t-71 65t-107.5 23q-147 0 -246.5 -89.5t-99.5 -229.5q0 -213 166 -213q75 0 123.5 71.5t48.5 155.5q42 0 73.5 -22.5t31.5 -59.5 q0 -97 -90.5 -173.5t-200.5 -76.5q-113 0 -171.5 83t-58.5 206q0 174 136.5 300t328.5 126q83 0 149.5 -25t107.5 -64.5t68.5 -91.5t38.5 -103t11 -103q0 -74 -20.5 -147t-54 -134.5t-73.5 -121.5t-79.5 -118.5t-73 -115.5t-54 -122.5t-20.5 -129.5q0 -66 32 -93.5t77 -27.5 q49 0 98 21t90 52t85 84t76.5 99.5t72.5 116.5t64.5 117t60.5 119q8 16 115 265t182 378q13 23 40.5 35t47.5 12q44 0 73 -23.5t29 -58.5q0 -49 -37 -111q-53 -88 -108 -198.5t-98.5 -211.5t-93.5 -214t-94.5 -211.5t-100 -198.5t-110.5 -181t-125.5 -152.5t-146.5 -120 t-171 -76t-201 -27.5q-162 0 -251 88.5t-89 216.5zM1104 1501q0 9 51.5 49.5t117 93t89.5 82.5q45 0 72.5 -32t27.5 -70q0 -23 -75 -55t-160.5 -58.5t-93.5 -31.5q-14 0 -21 4t-7.5 7t-0.5 11z" />
<glyph unicode="&#xde;" horiz-adv-x="1304" d="M-135 29q0 42 44.5 70t117.5 28q38 0 78.5 -9t63.5 -18t70.5 -30.5t65.5 -28.5q80 59 147.5 140t116 169t91.5 183t83 193t80 188t93.5 179t113.5 156q-14 2 -43 2q-97 0 -182 -18.5t-141.5 -47t-97.5 -63t-60 -66.5t-19 -57q0 -57 36 -79.5t147 -22.5q0 -46 -33.5 -86.5 t-75.5 -40.5q-57 0 -104 57t-47 142q0 49 26 97.5t81.5 93t132.5 78.5t187.5 54.5t239.5 20.5h10q111 106 242 106q113 0 113 -41q0 -13 -15 -18.5t-57 -5.5q-71 0 -133 -64q143 -29 221 -116.5t78 -204.5q0 -100 -40.5 -184.5t-101 -139t-134 -93t-138 -55t-114.5 -16.5 q-46 0 -83.5 41.5t-52.5 85.5q-127 -281 -215 -408.5t-217 -199.5q139 -33 293 -33q299 0 299 166q45 0 82 -21t37 -63q0 -76 -89.5 -132t-270.5 -56q-64 0 -141.5 11t-129.5 23.5t-113.5 28.5t-74.5 19q-137 -58 -285 -58q-80 0 -131 43.5t-51 100.5zM23 -2q0 -21 71 -21 q34 0 84 11q-84 26 -129 26q-26 0 -26 -16zM895 659q212 8 345.5 100.5t133.5 244.5q0 177 -190 221q-32 -39 -62 -87t-62.5 -114.5t-52.5 -110t-58.5 -131.5t-53.5 -123z" />
<glyph unicode="&#xdf;" horiz-adv-x="1169" d="M-66 147q0 48 42.5 104t103.5 56q18 0 31 -21.5t19.5 -48.5t19 -54t28.5 -36q59 7 137 80t78 119q0 36 -25.5 64t-62 49.5t-73 44.5t-62 60.5t-25.5 86.5q0 50 22 95.5t56.5 77.5t75.5 56t80 36t70 12q65 0 112 -38.5t47 -107.5q0 -46 -23 -84t-60.5 -64t-73.5 -44.5 t-74.5 -35.5t-52.5 -26q7 -5 47.5 -20.5t75.5 -33.5t65.5 -61t30.5 -102q0 -36 -18 -70t-47 -59.5t-55 -43t-52 -29.5v-5q41 8 98 42t90 75q66 86 115 86q18 0 31 -21.5t19.5 -48.5t19 -54t28.5 -36q59 7 137 80t78 119q0 36 -25.5 64t-62 49.5t-73 44.5t-62 60.5 t-25.5 86.5q0 62 33 116.5t81.5 88t99 53t89.5 19.5q65 0 112.5 -38.5t47.5 -107.5q0 -46 -23 -84t-60.5 -64t-73.5 -44.5t-74.5 -35.5t-52.5 -26q7 -5 47.5 -20.5t75.5 -33.5t65.5 -61t30.5 -102q0 -36 -18 -70t-47 -59.5t-55 -43t-52 -29.5v-5q67 14 142.5 66.5 t119.5 122.5q28 0 28 -27q-75 -122 -200.5 -198t-284.5 -76q-96 0 -156 40.5t-79 88.5q-152 -129 -359 -129q-61 0 -110.5 18.5t-76.5 45t-41 50.5t-14 41zM252 657q0 -66 51 -114q156 89 156 184q0 59 -58 59q-53 0 -101 -38t-48 -91zM846 657q0 -66 51 -114 q156 89 156 184q0 59 -58 59q-53 0 -101 -38t-48 -91z" />
<glyph unicode="&#xe0;" horiz-adv-x="729" d="M2 152q0 143 86.5 326.5t217.5 316.5t245 133q96 0 96 -119h4q13 35 30 64t29 42t17 13q57 0 91 -29.5t34 -56.5q0 -42 -57 -135q-65 -104 -147.5 -310t-82.5 -305q141 20 236 176q24 0 24 -18q-10 -27 -39 -67.5t-72 -84.5t-104 -75t-121 -31q-36 0 -61 22.5t-25 61.5 q0 84 54 213h-4q-156 -297 -324 -297q-22 0 -41 6t-40 21.5t-33.5 49.5t-12.5 83zM182 199q0 -64 54 -64q55 0 145.5 126t158.5 278.5t68 228.5q0 41 -35 41q-64 0 -158 -109t-163.5 -255.5t-69.5 -245.5zM479 1143q0 24 29.5 57t71.5 33q8 -39 43 -86t65.5 -84t30.5 -55 q0 -6 -0.5 -8t-2.5 -6.5t-8.5 -6.5t-17.5 -2q-11 15 -111 72.5t-100 85.5z" />
<glyph unicode="&#xe1;" horiz-adv-x="729" d="M2 152q0 143 86.5 326.5t217.5 316.5t245 133q96 0 96 -119h4q13 35 30 64t29 42t17 13q57 0 91 -29.5t34 -56.5q0 -42 -57 -135q-65 -104 -147.5 -310t-82.5 -305q141 20 236 176q24 0 24 -18q-10 -27 -39 -67.5t-72 -84.5t-104 -75t-121 -31q-36 0 -61 22.5t-25 61.5 q0 84 54 213h-4q-156 -297 -324 -297q-22 0 -41 6t-40 21.5t-33.5 49.5t-12.5 83zM182 199q0 -64 54 -64q55 0 145.5 126t158.5 278.5t68 228.5q0 41 -35 41q-64 0 -158 -109t-163.5 -255.5t-69.5 -245.5zM600 1034q0 9 51.5 50t117 93.5t89.5 82.5q44 0 72 -32t28 -71 q0 -23 -75 -55t-160.5 -58.5t-93.5 -31.5q-14 0 -21 4t-7.5 7t-0.5 11z" />
<glyph unicode="&#xe2;" horiz-adv-x="729" d="M2 152q0 143 86.5 326.5t217.5 316.5t245 133q96 0 96 -119h4q13 35 30 64t29 42t17 13q57 0 91 -29.5t34 -56.5q0 -42 -57 -135q-65 -104 -147.5 -310t-82.5 -305q141 20 236 176q24 0 24 -18q-10 -27 -39 -67.5t-72 -84.5t-104 -75t-121 -31q-36 0 -61 22.5t-25 61.5 q0 84 54 213h-4q-156 -297 -324 -297q-22 0 -41 6t-40 21.5t-33.5 49.5t-12.5 83zM182 199q0 -64 54 -64q55 0 145.5 126t158.5 278.5t68 228.5q0 41 -35 41q-64 0 -158 -109t-163.5 -255.5t-69.5 -245.5zM471 1016q0 13 59 72.5t134.5 115.5t111.5 56q37 0 82 -57.5 t72.5 -115t27.5 -71.5v-2q0 -7 -1 -10.5t-7.5 -7t-19.5 -3.5q-20 27 -68.5 76t-85.5 72q-49 -9 -147 -66.5t-129 -81.5q-11 0 -17.5 2t-8.5 6.5t-2.5 6.5t-0.5 8z" />
<glyph unicode="&#xe3;" horiz-adv-x="729" d="M2 152q0 143 86.5 326.5t217.5 316.5t245 133q96 0 96 -119h4q13 35 30 64t29 42t17 13q57 0 91 -29.5t34 -56.5q0 -42 -57 -135q-65 -104 -147.5 -310t-82.5 -305q141 20 236 176q24 0 24 -18q-10 -27 -39 -67.5t-72 -84.5t-104 -75t-121 -31q-36 0 -61 22.5t-25 61.5 q0 84 54 213h-4q-156 -297 -324 -297q-22 0 -41 6t-40 21.5t-33.5 49.5t-12.5 83zM182 199q0 -64 54 -64q55 0 145.5 126t158.5 278.5t68 228.5q0 41 -35 41q-64 0 -158 -109t-163.5 -255.5t-69.5 -245.5zM483 1124q0 42 41.5 71.5t96.5 29.5q39 0 76.5 -16t62 -34.5 t57 -34.5t62.5 -16q38 0 60 22.5t22 53.5q20 0 35.5 -15.5t15.5 -37.5q0 -43 -41 -82t-99 -39q-46 0 -84.5 15.5t-61.5 33.5t-57.5 33.5t-72.5 15.5q-29 0 -48 -12.5t-22 -32.5q-17 0 -30 13t-13 32z" />
<glyph unicode="&#xe4;" horiz-adv-x="729" d="M2 152q0 143 86.5 326.5t217.5 316.5t245 133q96 0 96 -119h4q13 35 30 64t29 42t17 13q57 0 91 -29.5t34 -56.5q0 -42 -57 -135q-65 -104 -147.5 -310t-82.5 -305q141 20 236 176q24 0 24 -18q-10 -27 -39 -67.5t-72 -84.5t-104 -75t-121 -31q-36 0 -61 22.5t-25 61.5 q0 84 54 213h-4q-156 -297 -324 -297q-22 0 -41 6t-40 21.5t-33.5 49.5t-12.5 83zM182 199q0 -64 54 -64q55 0 145.5 126t158.5 278.5t68 228.5q0 41 -35 41q-64 0 -158 -109t-163.5 -255.5t-69.5 -245.5zM524 1133q0 39 28.5 64.5t68.5 25.5q42 0 70 -25.5t28 -64.5 t-28 -65t-70 -26q-40 0 -68.5 26t-28.5 65zM760 1133q0 39 28 64.5t70 25.5q40 0 68 -25.5t28 -64.5t-28 -65t-68 -26q-42 0 -70 26t-28 65z" />
<glyph unicode="&#xe5;" horiz-adv-x="729" d="M2 152q0 143 86.5 326.5t217.5 316.5t245 133q96 0 96 -119h4q13 35 30 64t29 42t17 13q57 0 91 -29.5t34 -56.5q0 -42 -57 -135q-65 -104 -147.5 -310t-82.5 -305q141 20 236 176q24 0 24 -18q-10 -27 -39 -67.5t-72 -84.5t-104 -75t-121 -31q-36 0 -61 22.5t-25 61.5 q0 84 54 213h-4q-156 -297 -324 -297q-22 0 -41 6t-40 21.5t-33.5 49.5t-12.5 83zM182 199q0 -64 54 -64q55 0 145.5 126t158.5 278.5t68 228.5q0 41 -35 41q-64 0 -158 -109t-163.5 -255.5t-69.5 -245.5zM598 1147q0 103 76.5 175.5t169.5 72.5q58 0 93.5 -39.5 t35.5 -104.5q0 -101 -59.5 -173t-168.5 -72q-61 0 -104 41t-43 100zM733 1171q0 -86 60 -86q56 0 89 38t33 106q0 35 -16 54.5t-39 19.5q-47 0 -87 -38t-40 -94z" />
<glyph unicode="&#xe6;" horiz-adv-x="1044" d="M2 152q0 143 86.5 326.5t217.5 316.5t245 133q54 0 84.5 -53.5t30.5 -151.5h4q60 87 151.5 146t196.5 59q74 0 124 -50t50 -108q0 -54 -35.5 -104t-90.5 -86.5t-124 -66t-135 -47t-125 -24.5q-41 -93 -41 -190q0 -148 143 -148q103 0 184 55.5t115 123.5q11 0 21 -17.5 t10 -25.5q-59 -117 -179 -182.5t-251 -65.5q-109 0 -161 65.5t-52 184.5q0 46 10 98q-26 -23 -71.5 -86t-84.5 -118t-93 -99.5t-103 -44.5q-22 0 -41 6t-40 21.5t-33.5 49.5t-12.5 83zM154 199q0 -22 9.5 -34.5t24.5 -12.5q21 0 59.5 35t76.5 79.5t87 91t85 64.5 q112 275 112 346q0 41 -35 41q-63 0 -165 -121.5t-178 -269t-76 -219.5zM705 496q42 12 95 40.5t106 67t88.5 88.5t35.5 96q0 17 -8.5 27t-17.5 10q-47 0 -147.5 -104.5t-151.5 -224.5z" />
<glyph unicode="&#xe7;" horiz-adv-x="516" d="M-123 -135q0 23 75.5 55t161 58.5t93.5 31.5q14 0 21 -4t7.5 -7t0.5 -11q0 -9 -51.5 -50t-117.5 -93.5t-90 -82.5q-44 0 -72 32t-28 71zM0 240q0 120 51 246.5t128.5 222.5t173.5 157.5t182 61.5q56 0 92.5 -37.5t36.5 -81.5q0 -90 -51.5 -144.5t-100.5 -54.5 q-33 0 -49.5 31.5t-16.5 63.5q47 0 100.5 26t53.5 60q0 30 -27 30q-44 0 -108 -50t-123.5 -128t-102 -185.5t-42.5 -209.5q0 -150 127 -150q68 0 126.5 39.5t96.5 100.5q11 0 18.5 -11.5t7.5 -19.5q-62 -101 -159 -158t-189 -57q-103 0 -164 59.5t-61 188.5z" />
<glyph unicode="&#xe8;" horiz-adv-x="587" d="M0 246q0 122 55.5 248.5t138 220t181.5 153.5t184 60q74 0 124 -50t50 -108q0 -147 -137.5 -228.5t-372.5 -99.5q-41 -93 -41 -190q0 -148 144 -148q103 0 184 55.5t115 123.5q11 0 20.5 -17t9.5 -26q-39 -77 -109.5 -135t-145.5 -85.5t-146 -27.5q-124 0 -189 60 t-65 194zM246 496q128 24 226.5 110t98.5 182q0 17 -8.5 27t-17.5 10q-47 0 -147.5 -104.5t-151.5 -224.5zM426 1151q0 25 29 57.5t71 32.5q8 -39 43 -86t66 -84t31 -55q0 -6 -0.5 -8t-2.5 -6.5t-8.5 -6.5t-17.5 -2q-11 15 -111 72.5t-100 85.5z" />
<glyph unicode="&#xe9;" horiz-adv-x="587" d="M0 246q0 122 55.5 248.5t138 220t181.5 153.5t184 60q74 0 124 -50t50 -108q0 -147 -137.5 -228.5t-372.5 -99.5q-41 -93 -41 -190q0 -148 144 -148q103 0 184 55.5t115 123.5q11 0 20.5 -17t9.5 -26q-39 -77 -109.5 -135t-145.5 -85.5t-146 -27.5q-124 0 -189 60 t-65 194zM246 496q128 24 226.5 110t98.5 182q0 17 -8.5 27t-17.5 10q-47 0 -147.5 -104.5t-151.5 -224.5zM584 1004.5v11.5t51.5 49.5t117 93t89.5 82.5q45 0 72.5 -32t27.5 -70q0 -23 -75.5 -55t-161 -59t-93.5 -32q-14 0 -21 4.5t-7 7z" />
<glyph unicode="&#xea;" horiz-adv-x="587" d="M0 246q0 122 55.5 248.5t138 220t181.5 153.5t184 60q74 0 124 -50t50 -108q0 -147 -137.5 -228.5t-372.5 -99.5q-41 -93 -41 -190q0 -148 144 -148q103 0 184 55.5t115 123.5q11 0 20.5 -17t9.5 -26q-39 -77 -109.5 -135t-145.5 -85.5t-146 -27.5q-124 0 -189 60 t-65 194zM246 496q128 24 226.5 110t98.5 182q0 17 -8.5 27t-17.5 10q-47 0 -147.5 -104.5t-151.5 -224.5zM379 1016q0 13 59 72.5t134.5 115.5t111.5 56q37 0 82 -57.5t72.5 -115t27.5 -71.5v-2q0 -7 -1 -10.5t-7.5 -7t-19.5 -3.5q-20 27 -68.5 76t-85.5 72 q-49 -9 -147 -66.5t-129 -81.5q-11 0 -17.5 2t-8.5 6.5t-2.5 6.5t-0.5 8z" />
<glyph unicode="&#xeb;" horiz-adv-x="587" d="M0 246q0 122 55.5 248.5t138 220t181.5 153.5t184 60q74 0 124 -50t50 -108q0 -147 -137.5 -228.5t-372.5 -99.5q-41 -93 -41 -190q0 -148 144 -148q103 0 184 55.5t115 123.5q11 0 20.5 -17t9.5 -26q-39 -77 -109.5 -135t-145.5 -85.5t-146 -27.5q-124 0 -189 60 t-65 194zM246 496q128 24 226.5 110t98.5 182q0 17 -8.5 27t-17.5 10q-47 0 -147.5 -104.5t-151.5 -224.5zM451 1133q0 39 28 64.5t68 25.5q42 0 70 -25.5t28 -64.5t-28 -65t-70 -26q-40 0 -68 26t-28 65zM686 1133q0 39 28 64.5t70 25.5q40 0 68.5 -25.5t28.5 -64.5 t-28.5 -65t-68.5 -26q-42 0 -70 26t-28 65z" />
<glyph unicode="&#xec;" horiz-adv-x="356" d="M0 80q0 107 66.5 315t143 370.5t105.5 162.5q60 0 97 -24.5t37 -55.5q0 -36 -25 -84q-84 -155 -160 -349t-90 -311q57 2 120.5 45.5t100.5 114.5q9 0 18 -5.5t9 -14.5q-15 -34 -47.5 -76t-75.5 -82t-98.5 -67t-106.5 -27t-72.5 26.5t-21.5 61.5zM258 1151q0 25 29 57.5 t71 32.5q8 -39 43 -86t66 -84t31 -55q0 -6 -0.5 -8t-2.5 -6.5t-8.5 -6.5t-17.5 -2q-11 15 -111 72.5t-100 85.5z" />
<glyph unicode="&#xed;" horiz-adv-x="356" d="M0 80q0 107 66.5 315t143 370.5t105.5 162.5q60 0 97 -24.5t37 -55.5q0 -36 -25 -84q-84 -155 -160 -349t-90 -311q57 2 120.5 45.5t100.5 114.5q9 0 18 -5.5t9 -14.5q-15 -34 -47.5 -76t-75.5 -82t-98.5 -67t-106.5 -27t-72.5 26.5t-21.5 61.5zM395 1016q0 9 51.5 49.5 t117 93t89.5 82.5q45 0 73 -32t28 -70q0 -23 -75.5 -55t-161 -59t-93.5 -32q-11 0 -17.5 2t-8.5 6.5t-2.5 6.5t-0.5 8z" />
<glyph unicode="&#xee;" horiz-adv-x="356" d="M0 80q0 107 66.5 315t143 370.5t105.5 162.5q60 0 97 -24.5t37 -55.5q0 -36 -25 -84q-84 -155 -160 -349t-90 -311q57 2 120.5 45.5t100.5 114.5q9 0 18 -5.5t9 -14.5q-15 -34 -47.5 -76t-75.5 -82t-98.5 -67t-106.5 -27t-72.5 26.5t-21.5 61.5zM172 1016q0 13 59 72.5 t134.5 115.5t111.5 56q37 0 82 -57.5t72.5 -115t27.5 -71.5v-2q0 -7 -1 -10.5t-7.5 -7t-19.5 -3.5q-20 27 -68.5 76t-85.5 72q-49 -9 -147 -66.5t-129 -81.5q-11 0 -17.5 2t-8.5 6.5t-2.5 6.5t-0.5 8z" />
<glyph unicode="&#xef;" horiz-adv-x="356" d="M0 80q0 107 66.5 315t143 370.5t105.5 162.5q60 0 97 -24.5t37 -55.5q0 -36 -25 -84q-84 -155 -160 -349t-90 -311q57 2 120.5 45.5t100.5 114.5q9 0 18 -5.5t9 -14.5q-15 -34 -47.5 -76t-75.5 -82t-98.5 -67t-106.5 -27t-72.5 26.5t-21.5 61.5zM252 1133q0 39 28 64.5 t68 25.5q42 0 70 -25.5t28 -64.5t-28 -65t-70 -26q-40 0 -68 26t-28 65zM487 1133q0 39 28.5 64.5t70.5 25.5q40 0 68 -25.5t28 -64.5t-28 -65t-68 -26q-42 0 -70.5 26t-28.5 65z" />
<glyph unicode="&#xf0;" d="M2 225q0 136 49 266t126.5 223t174.5 151.5t191 62.5q-8 10 -26.5 23t-54 34.5t-52.5 32.5q-15 -12 -34 -27.5t-31 -25.5t-23.5 -19t-18 -13.5t-8.5 -4.5q-23 0 -40 18t-17 43q0 3 100 78q-62 45 -62 84q0 24 29.5 57t71.5 33q10 -32 63 -96q35 27 86 67t75.5 59t27.5 19 q29 0 45.5 -11t20 -24t3.5 -32q0 -4 -27 -23t-83 -57t-92 -64q41 -46 59.5 -67.5t53.5 -66t52 -74t31.5 -66t14.5 -66.5q0 -76 -27 -198q113 61 166 121q2 -1 6 -4t5.5 -4.5t4 -5t3.5 -7.5t1 -10q-32 -45 -94.5 -96t-120.5 -84q-78 -221 -193 -340t-251 -119 q-99 0 -152 62.5t-53 170.5zM184 252q0 -76 22.5 -113t76.5 -37q75 0 147 86.5t127 223.5q-65 -17 -102 -17q-90 0 -139.5 42.5t-53.5 125.5q-29 -44 -53.5 -139t-24.5 -172zM395 606q0 -68 25 -95.5t90 -27.5q14 0 76 15q24 88 24 168q0 122 -78 122q-49 0 -93 -48.5 t-44 -133.5z" />
<glyph unicode="&#xf1;" horiz-adv-x="727" d="M0 86q0 69 29 180t71.5 222.5t87.5 212.5t81 164t48 63q57 0 91 -29.5t34 -56.5q0 -32 -20 -78q-7 -14 -29 -55.5t-34.5 -67.5t-32.5 -67.5t-38.5 -85.5t-35.5 -91h4q294 531 410 531q50 0 94.5 -30.5t44.5 -90.5q0 -18 -6.5 -41.5t-22.5 -57.5t-28 -56.5t-37 -69 t-35 -64.5q-139 -261 -139 -366q0 -48 41 -48q40 0 102.5 54t85.5 110q27 0 27 -14q0 -18 -15 -49t-44.5 -68t-66.5 -69.5t-86.5 -54t-99.5 -21.5q-52 0 -84 32t-32 91q0 71 34 170t75.5 179t79 158t42.5 109q-47 -12 -137 -112t-172 -229t-105 -214q-10 -36 -10 -78 q0 -56 -11.5 -81t-47.5 -25q-50 0 -81.5 32t-31.5 62zM369 1124q0 42 41 71.5t96 29.5q39 0 76.5 -16t62 -34.5t57 -34.5t62.5 -16q38 0 60 22.5t22 53.5q20 0 35.5 -15.5t15.5 -37.5q0 -43 -40.5 -82t-98.5 -39q-46 0 -85 15.5t-62 33.5t-57.5 33.5t-72.5 15.5 q-29 0 -47.5 -12.5t-21.5 -32.5q-17 0 -30 13t-13 32z" />
<glyph unicode="&#xf2;" d="M2 225q0 137 49.5 269.5t125.5 226t167.5 150.5t173.5 57q92 0 137 -78.5t45 -202.5q0 -46 -16 -112q94 52 162 127q2 -1 6 -4t5.5 -4.5t4 -5t3.5 -7.5t1 -10q-31 -43 -85.5 -92t-118.5 -84q-29 -84 -74 -162.5t-105 -147.5t-138 -111t-161 -42q-85 0 -133.5 67.5 t-48.5 165.5zM184 252q0 -150 86 -150q70 0 156.5 93t138.5 219q-59 -19 -110 -19q-79 0 -134 44t-59 124q-29 -44 -53.5 -139t-24.5 -172zM338 1151q0 25 29 57.5t71 32.5q8 -39 43 -86t66 -84t31 -55q0 -6 -0.5 -8t-2.5 -6.5t-8.5 -6.5t-17.5 -2q-11 15 -111 72.5 t-100 85.5zM395 637q0 -154 133 -154q22 0 64 11q18 74 18 116q0 178 -100 178q-38 0 -76.5 -43.5t-38.5 -107.5z" />
<glyph unicode="&#xf3;" d="M2 225q0 137 49.5 269.5t125.5 226t167.5 150.5t173.5 57q92 0 137 -78.5t45 -202.5q0 -46 -16 -112q94 52 162 127q2 -1 6 -4t5.5 -4.5t4 -5t3.5 -7.5t1 -10q-31 -43 -85.5 -92t-118.5 -84q-29 -84 -74 -162.5t-105 -147.5t-138 -111t-161 -42q-85 0 -133.5 67.5 t-48.5 165.5zM184 252q0 -150 86 -150q70 0 156.5 93t138.5 219q-59 -19 -110 -19q-79 0 -134 44t-59 124q-29 -44 -53.5 -139t-24.5 -172zM395 637q0 -154 133 -154q22 0 64 11q18 74 18 116q0 178 -100 178q-38 0 -76.5 -43.5t-38.5 -107.5zM557 1016q0 9 51.5 49.5 t117 93t89.5 82.5q45 0 72.5 -32t27.5 -70q0 -23 -75 -55t-160.5 -59t-93.5 -32q-11 0 -17.5 2t-8.5 6.5t-2.5 6.5t-0.5 8z" />
<glyph unicode="&#xf4;" d="M2 225q0 137 49.5 269.5t125.5 226t167.5 150.5t173.5 57q92 0 137 -78.5t45 -202.5q0 -46 -16 -112q94 52 162 127q2 -1 6 -4t5.5 -4.5t4 -5t3.5 -7.5t1 -10q-31 -43 -85.5 -92t-118.5 -84q-29 -84 -74 -162.5t-105 -147.5t-138 -111t-161 -42q-85 0 -133.5 67.5 t-48.5 165.5zM184 252q0 -150 86 -150q70 0 156.5 93t138.5 219q-59 -19 -110 -19q-79 0 -134 44t-59 124q-29 -44 -53.5 -139t-24.5 -172zM309 1016q0 13 59 72.5t134.5 115.5t111.5 56q37 0 82.5 -57.5t73 -115.5t27.5 -71q0 -6 -0.5 -8t-2.5 -6.5t-8.5 -6.5t-17.5 -2 q-20 27 -68.5 76t-85.5 72q-49 -9 -147 -66.5t-129 -81.5q-11 0 -17.5 2t-8.5 6.5t-2.5 6.5t-0.5 8zM395 637q0 -154 133 -154q22 0 64 11q18 74 18 116q0 178 -100 178q-38 0 -76.5 -43.5t-38.5 -107.5z" />
<glyph unicode="&#xf5;" d="M2 225q0 137 49.5 269.5t125.5 226t167.5 150.5t173.5 57q92 0 137 -78.5t45 -202.5q0 -46 -16 -112q94 52 162 127q2 -1 6 -4t5.5 -4.5t4 -5t3.5 -7.5t1 -10q-31 -43 -85.5 -92t-118.5 -84q-29 -84 -74 -162.5t-105 -147.5t-138 -111t-161 -42q-85 0 -133.5 67.5 t-48.5 165.5zM184 252q0 -150 86 -150q70 0 156.5 93t138.5 219q-59 -19 -110 -19q-79 0 -134 44t-59 124q-29 -44 -53.5 -139t-24.5 -172zM330 1124q0 42 41 71.5t96 29.5q39 0 76.5 -16t62 -34.5t57 -34.5t62.5 -16q38 0 60 22.5t22 53.5q20 0 35.5 -15.5t15.5 -37.5 q0 -43 -40.5 -82t-98.5 -39q-46 0 -85 15.5t-62 33.5t-57.5 33.5t-72.5 15.5q-29 0 -47.5 -12.5t-21.5 -32.5q-17 0 -30 13t-13 32zM395 637q0 -154 133 -154q22 0 64 11q18 74 18 116q0 178 -100 178q-38 0 -76.5 -43.5t-38.5 -107.5z" />
<glyph unicode="&#xf6;" d="M2 225q0 137 49.5 269.5t125.5 226t167.5 150.5t173.5 57q92 0 137 -78.5t45 -202.5q0 -46 -16 -112q94 52 162 127q2 -1 6 -4t5.5 -4.5t4 -5t3.5 -7.5t1 -10q-31 -43 -85.5 -92t-118.5 -84q-29 -84 -74 -162.5t-105 -147.5t-138 -111t-161 -42q-85 0 -133.5 67.5 t-48.5 165.5zM184 252q0 -150 86 -150q70 0 156.5 93t138.5 219q-59 -19 -110 -19q-79 0 -134 44t-59 124q-29 -44 -53.5 -139t-24.5 -172zM395 637q0 -154 133 -154q22 0 64 11q18 74 18 116q0 178 -100 178q-38 0 -76.5 -43.5t-38.5 -107.5zM426 1133q0 39 28 64.5 t68 25.5q42 0 70.5 -25.5t28.5 -64.5t-28.5 -65t-70.5 -26q-40 0 -68 26t-28 65zM662 1133q0 39 28 64.5t70 25.5q40 0 68 -25.5t28 -64.5t-28 -65t-68 -26q-42 0 -70 26t-28 65z" />
<glyph unicode="&#xf7;" horiz-adv-x="567" d="M90 453q0 26 146 26q75 0 219.5 -17t144.5 -34q0 -88 -47 -88q-4 0 -160.5 36t-234.5 36q-29 0 -48.5 13t-19.5 28zM100 172q0 46 33.5 76.5t81.5 30.5t81.5 -30.5t33.5 -76.5t-33.5 -76t-81.5 -30t-81.5 30t-33.5 76zM338 729q0 46 33.5 76.5t81.5 30.5t81 -30t33 -77 q0 -46 -33 -76t-81 -30t-81.5 30t-33.5 76z" />
<glyph unicode="&#xf8;" d="M-66 -182q0 15 140 217q-72 63 -72 190q0 137 51 269.5t129.5 226t172 150.5t177.5 57q60 0 107 -35q152 240 166 240q28 0 46.5 -9t18.5 -24q0 -4 -7.5 -16t-25 -36.5t-36.5 -50t-53 -71.5t-64 -86q23 -44 23 -101q0 -76 -27 -198q113 61 166 121q2 -1 6 -4t5.5 -4.5 t4 -5t3.5 -7.5t1 -10q-32 -45 -94.5 -96t-120.5 -84q-78 -221 -193 -340t-251 -119q-43 0 -78 12q-128 -213 -149 -213q-17 0 -31.5 7.5t-14.5 19.5zM184 252q0 -35 2 -51q6 9 150 221q-68 44 -74 141q-29 -44 -53.5 -139t-24.5 -172zM209 133q25 -31 74 -31q75 0 147 86.5 t127 223.5q-65 -17 -102 -17q-43 0 -74 8q-73 -109 -172 -270zM395 606q0 -47 13 -76q22 35 159 250q-13 8 -35 8q-49 0 -93 -48.5t-44 -133.5zM442 496q26 -13 68 -13q14 0 76 15q24 88 24 168q0 36 -6 63q-142 -203 -162 -233z" />
<glyph unicode="&#xf9;" horiz-adv-x="741" d="M10 152q0 102 46 243t105.5 255.5t114 196t72.5 81.5q59 0 92 -26.5t33 -59.5q0 -28 -10.5 -52.5t-42.5 -68.5q-230 -309 -230 -522q0 -33 16.5 -50.5t37.5 -17.5q38 0 85 55t96.5 152t87.5 182t82.5 193.5t57.5 138.5q34 76 74 76q57 0 91 -29.5t34 -56.5 q0 -37 -47 -123q-76 -139 -153 -331.5t-77 -289.5q65 2 135.5 47t116.5 119q27 0 27 -24q-66 -100 -159 -174t-197 -74q-31 0 -58.5 22.5t-27.5 65.5q0 82 53 209h-4q-156 -297 -324 -297q-47 0 -87 37.5t-40 122.5zM377 1151q0 25 29 57.5t71 32.5q8 -39 43 -86t65.5 -84 t30.5 -55v-2q0 -7 -1 -10.5t-7.5 -7t-19.5 -3.5q-11 15 -111 72.5t-100 85.5z" />
<glyph unicode="&#xfa;" horiz-adv-x="741" d="M10 152q0 102 46 243t105.5 255.5t114 196t72.5 81.5q59 0 92 -26.5t33 -59.5q0 -28 -10.5 -52.5t-42.5 -68.5q-230 -309 -230 -522q0 -33 16.5 -50.5t37.5 -17.5q38 0 85 55t96.5 152t87.5 182t82.5 193.5t57.5 138.5q34 76 74 76q57 0 91 -29.5t34 -56.5 q0 -37 -47 -123q-76 -139 -153 -331.5t-77 -289.5q65 2 135.5 47t116.5 119q27 0 27 -24q-66 -100 -159 -174t-197 -74q-31 0 -58.5 22.5t-27.5 65.5q0 82 53 209h-4q-156 -297 -324 -297q-47 0 -87 37.5t-40 122.5zM606 1016q0 9 51.5 49.5t117 93t89.5 82.5q45 0 73 -32 t28 -70q0 -23 -75.5 -55t-161 -59t-93.5 -32q-11 0 -17.5 2t-8.5 6.5t-2.5 6.5t-0.5 8z" />
<glyph unicode="&#xfb;" horiz-adv-x="741" d="M10 152q0 102 46 243t105.5 255.5t114 196t72.5 81.5q59 0 92 -26.5t33 -59.5q0 -28 -10.5 -52.5t-42.5 -68.5q-230 -309 -230 -522q0 -33 16.5 -50.5t37.5 -17.5q38 0 85 55t96.5 152t87.5 182t82.5 193.5t57.5 138.5q34 76 74 76q57 0 91 -29.5t34 -56.5 q0 -37 -47 -123q-76 -139 -153 -331.5t-77 -289.5q65 2 135.5 47t116.5 119q27 0 27 -24q-66 -100 -159 -174t-197 -74q-31 0 -58.5 22.5t-27.5 65.5q0 82 53 209h-4q-156 -297 -324 -297q-47 0 -87 37.5t-40 122.5zM371 1004.5v11.5q0 13 59 72.5t134.5 115.5t111.5 56 q37 0 82 -57.5t72.5 -115t27.5 -71.5q0 -6 -0.5 -8t-2.5 -6.5t-8.5 -6.5t-17.5 -2q-20 27 -68 76t-85 72q-49 -9 -147.5 -66.5t-129.5 -81.5q-14 0 -21 4.5t-7 7z" />
<glyph unicode="&#xfc;" horiz-adv-x="741" d="M10 152q0 102 46 243t105.5 255.5t114 196t72.5 81.5q59 0 92 -26.5t33 -59.5q0 -28 -10.5 -52.5t-42.5 -68.5q-230 -309 -230 -522q0 -33 16.5 -50.5t37.5 -17.5q38 0 85 55t96.5 152t87.5 182t82.5 193.5t57.5 138.5q34 76 74 76q57 0 91 -29.5t34 -56.5 q0 -37 -47 -123q-76 -139 -153 -331.5t-77 -289.5q65 2 135.5 47t116.5 119q27 0 27 -24q-66 -100 -159 -174t-197 -74q-31 0 -58.5 22.5t-27.5 65.5q0 82 53 209h-4q-156 -297 -324 -297q-47 0 -87 37.5t-40 122.5zM449 1133q0 39 28 64.5t68 25.5q42 0 70 -25.5t28 -64.5 t-28 -65t-70 -26q-40 0 -68 26t-28 65zM684 1133q0 39 28 64.5t70 25.5q40 0 68.5 -25.5t28.5 -64.5t-28.5 -65t-68.5 -26q-42 0 -70 26t-28 65z" />
<glyph unicode="&#xfd;" horiz-adv-x="749" d="M8 152q0 102 45.5 243t104 255.5t112.5 196t72 81.5q60 0 92.5 -29t32.5 -70q0 -32 -27 -71q-252 -343 -252 -559q0 -33 16.5 -50.5t37.5 -17.5q38 0 85 55t96.5 152t87.5 182t82.5 193.5t57.5 138.5q34 76 74 76q57 0 91 -29.5t34 -56.5q0 -36 -49 -129 q-34 -61 -91.5 -199t-120 -299t-67.5 -174q225 106 303 229q12 0 19.5 -9t7.5 -23q-49 -83 -148 -155.5t-215 -123.5q-43 -104 -81.5 -181t-82.5 -145t-89.5 -103.5t-90.5 -35.5q-65 0 -101 35.5t-36 79.5q0 52 21 101.5t52.5 86.5t73.5 69.5t80 53.5t76 37q23 40 84 170 t68 162h-4q-156 -297 -324 -297q-47 0 -87 37.5t-40 122.5zM111 -319q0 -15 10 -15q31 22 71.5 79t77.5 130q-67 -32 -113 -88t-46 -106zM598 1034q0 9 51.5 50t117 93.5t89.5 82.5q44 0 72 -32t28 -71q0 -23 -75 -55t-160.5 -58.5t-93.5 -31.5q-14 0 -21 4t-7.5 7t-0.5 11z " />
<glyph unicode="&#xfe;" horiz-adv-x="868" d="M-104 -412q0 141 37.5 316.5t99.5 347t139 344.5t159 319t156 260.5t133.5 179t88.5 64.5q57 0 91 -29.5t34 -56.5q0 -34 -23 -78q-12 -23 -61.5 -83t-115.5 -140.5t-137.5 -177.5t-141.5 -219t-113 -238h4q71 129 127.5 217.5t119.5 164t127 112.5t130 37q27 0 52 -9 t52.5 -31.5t44 -72t16.5 -119.5q0 -111 -44 -236t-114.5 -228.5t-168.5 -171.5t-197 -68q-143 0 -143 131q0 74 59.5 132t122.5 58q22 0 38 -33.5t-7 -76.5q-65 15 -114.5 -4t-49.5 -64q0 -32 18.5 -45.5t59.5 -13.5q78 0 163 92t140 227t55 254q0 33 -5.5 58.5t-14 40 t-18 24.5t-17 13t-12.5 3q-57 0 -150.5 -95t-178.5 -220.5t-138 -236.5q-51 -136 -91 -317.5t-40 -317.5q0 -56 -12 -81.5t-48 -25.5q-50 0 -81 32t-31 62z" />
<glyph unicode="&#xff;" horiz-adv-x="749" d="M8 152q0 102 45.5 243t104 255.5t112.5 196t72 81.5q60 0 92.5 -29t32.5 -70q0 -32 -27 -71q-252 -343 -252 -559q0 -33 16.5 -50.5t37.5 -17.5q38 0 85 55t96.5 152t87.5 182t82.5 193.5t57.5 138.5q34 76 74 76q57 0 91 -29.5t34 -56.5q0 -36 -49 -129 q-34 -61 -91.5 -199t-120 -299t-67.5 -174q225 106 303 229q12 0 19.5 -9t7.5 -23q-49 -83 -148 -155.5t-215 -123.5q-43 -104 -81.5 -181t-82.5 -145t-89.5 -103.5t-90.5 -35.5q-65 0 -101 35.5t-36 79.5q0 52 21 101.5t52.5 86.5t73.5 69.5t80 53.5t76 37q23 40 84 170 t68 162h-4q-156 -297 -324 -297q-47 0 -87 37.5t-40 122.5zM111 -319q0 -15 10 -15q31 22 71.5 79t77.5 130q-67 -32 -113 -88t-46 -106zM475 1133q0 39 28 64.5t68 25.5q42 0 70.5 -25.5t28.5 -64.5t-28.5 -65t-70.5 -26q-40 0 -68 26t-28 65zM711 1133q0 39 28 64.5 t70 25.5q40 0 68 -25.5t28 -64.5t-28 -65t-68 -26q-42 0 -70 26t-28 65z" />
<glyph unicode="&#x152;" horiz-adv-x="1554" d="M35 373q0 145 52 287t143 258t207.5 206t253.5 139.5t272 49.5q152 0 251 -74q148 74 312 74q122 0 198 -58.5t76 -138.5q0 -149 -211 -225q-3 -145 -108 -250q-9 -38 -51 -65t-111 -37l-27 -9q-20 -51 -30 -71q34 12 79 12q82 0 140.5 -55.5t58.5 -139.5 q0 -113 -66 -200.5t-179 -134.5t-253 -47q-184 0 -297 77q-142 -57 -280 -57q-207 0 -318.5 115t-111.5 344zM289 334q0 -85 24 -146t66 -93.5t89.5 -47t102.5 -14.5q57 0 101 8q-74 95 -74 229q0 195 170 336q-156 130 -156 357q0 45 25 106q-154 -112 -251 -299.5 t-97 -435.5zM842 279q0 -93 30 -164q109 62 195.5 163t138.5 230q-62 -10 -119 -10q-95 0 -172 26q-73 -110 -73 -245zM848 922q44 -26 92 -35q16 155 152 274q-28 4 -41 4q-82 0 -140.5 -64.5t-62.5 -178.5zM850 862q9 -103 57 -168q19 11 60 27q-24 57 -27 113 q-45 9 -90 28zM909 55q68 -84 183 -84q163 0 263.5 84t100.5 201q0 56 -28.5 87.5t-69.5 31.5q-40 0 -70.5 -26.5t-30.5 -61.5q-53 0 -86 20q-102 -144 -262 -252zM997 614q48 -25 84 -32q-35 22 -59 51zM1163 825q0 -31 6 -55q29 4 99 8q4 32 4 53q-55 -6 -109 -6z M1165 877q37 0 107 4q-5 77 -31 153q-29 -16 -47 -37q-24 -63 -29 -120zM1192 715q27 -43 59 -58q11 45 13 72q-50 -9 -72 -14zM1327 641q40 0 65.5 9.5t32.5 19t7 18.5q0 19 -22.5 31.5t-63.5 13.5zM1331 1055q20 -87 23 -168q76 8 153 28q-12 64 -57.5 100.5t-118.5 39.5z M1343 1159q99 -3 163.5 -62t78.5 -153q109 54 109 141q0 59 -48 86t-122 27q-102 0 -181 -39zM1350 776q91 -10 120 -57q41 67 41 147v2q-80 -20 -157 -28q0 -24 -4 -64z" />
<glyph unicode="&#x153;" horiz-adv-x="1110" d="M2 225q0 137 51 269.5t129.5 226t172 150.5t177.5 57q70 0 122.5 -49.5t52.5 -139.5q0 -3 -5 -61q86 114 193 182t201 68q74 0 124 -50t50 -108q0 -147 -137.5 -228.5t-372.5 -99.5q-41 -93 -41 -190q0 -148 143 -148q103 0 184 55.5t115 123.5q11 0 21 -17.5t10 -25.5 q-59 -117 -179 -182.5t-251 -65.5q-98 0 -157 60t-60 171q-145 -231 -338 -231q-99 0 -152 62.5t-53 170.5zM184 252q0 -76 22.5 -113t76.5 -37q76 0 154.5 94t133.5 230q-51 -8 -90 -8q-93 0 -154 37.5t-65 107.5q-29 -44 -53.5 -139t-24.5 -172zM395 606q0 -67 26.5 -98 t90.5 -31l78 6q20 74 20 183q0 122 -78 122q-49 0 -93 -48.5t-44 -133.5zM782 496q128 24 227 110t99 182q0 17 -9 27t-18 10q-47 0 -147.5 -104.5t-151.5 -224.5z" />
<glyph unicode="&#x178;" horiz-adv-x="1222" d="M-88 -166q0 95 55 148t123 53q53 0 76.5 -30t23.5 -71q-62 0 -107.5 -33.5t-45.5 -113.5q0 -33 12.5 -65.5t37.5 -62.5t69 -48.5t100 -18.5q72 0 136.5 18.5t117 50t102.5 82.5t89.5 106.5t80.5 133t74 151t72 169.5h-4q-41 -65 -76.5 -114.5t-83 -100t-94 -82.5 t-105.5 -52t-123 -20q-95 0 -159 70t-64 191q0 92 37.5 185.5t90.5 172.5t106.5 156t91 162.5t37.5 164.5q0 64 -12 115.5t-37.5 93.5t-71 65t-107.5 23q-147 0 -246.5 -89.5t-99.5 -229.5q0 -213 166 -213q75 0 123.5 71.5t48.5 155.5q42 0 73.5 -22.5t31.5 -59.5 q0 -97 -90.5 -173.5t-200.5 -76.5q-113 0 -171.5 83t-58.5 206q0 174 136.5 300t328.5 126q83 0 149.5 -25t107.5 -64.5t68.5 -91.5t38.5 -103t11 -103q0 -74 -20.5 -147t-54 -134.5t-73.5 -121.5t-79.5 -118.5t-73 -115.5t-54 -122.5t-20.5 -129.5q0 -66 32 -93.5t77 -27.5 q49 0 98 21t90 52t85 84t76.5 99.5t72.5 116.5t64.5 117t60.5 119q8 16 115 265t182 378q13 23 40.5 35t47.5 12q44 0 73 -23.5t29 -58.5q0 -49 -37 -111q-53 -88 -108 -198.5t-98.5 -211.5t-93.5 -214t-94.5 -211.5t-100 -198.5t-110.5 -181t-125.5 -152.5t-146.5 -120 t-171 -76t-201 -27.5q-162 0 -251 88.5t-89 216.5zM870 1534q0 39 28.5 64.5t68.5 25.5q42 0 70 -25.5t28 -64.5t-28 -64.5t-70 -25.5q-40 0 -68.5 25.5t-28.5 64.5zM1106 1534q0 39 28 64.5t70 25.5q40 0 68 -25.5t28 -64.5t-28 -64.5t-68 -25.5q-42 0 -70 25.5t-28 64.5z " />
<glyph unicode="&#x2c6;" d="M369 1004.5v11.5q0 13 59 72.5t134.5 115.5t111.5 56q37 0 82 -57.5t72.5 -115t27.5 -71.5q0 -6 -0.5 -8t-2.5 -6.5t-8.5 -6.5t-17.5 -2q-20 27 -68 76t-85 72q-49 -9 -147.5 -66.5t-129.5 -81.5q-14 0 -21 4.5t-7 7z" />
<glyph unicode="&#x2dc;" d="M379 1124q0 42 41 71.5t96 29.5q39 0 76.5 -16t62 -34.5t57 -34.5t62.5 -16q38 0 60 22.5t22 53.5q20 0 35.5 -15.5t15.5 -37.5q0 -43 -40.5 -82t-98.5 -39q-46 0 -84.5 15.5t-61.5 33.5t-57.5 33.5t-72.5 15.5q-29 0 -48 -12.5t-22 -32.5q-17 0 -30 13t-13 32z" />
<glyph unicode="&#x2000;" horiz-adv-x="869" />
<glyph unicode="&#x2001;" horiz-adv-x="1739" />
<glyph unicode="&#x2002;" horiz-adv-x="869" />
<glyph unicode="&#x2003;" horiz-adv-x="1739" />
<glyph unicode="&#x2004;" horiz-adv-x="579" />
<glyph unicode="&#x2005;" horiz-adv-x="434" />
<glyph unicode="&#x2006;" horiz-adv-x="289" />
<glyph unicode="&#x2007;" horiz-adv-x="289" />
<glyph unicode="&#x2008;" horiz-adv-x="217" />
<glyph unicode="&#x2009;" horiz-adv-x="347" />
<glyph unicode="&#x200a;" horiz-adv-x="96" />
<glyph unicode="&#x2010;" horiz-adv-x="466" d="M53 453q0 26 146 26q82 0 171 -8t89 -25q0 -88 -47 -88q-4 0 -108.5 27t-182.5 27q-29 0 -48.5 13t-19.5 28z" />
<glyph unicode="&#x2011;" horiz-adv-x="466" d="M53 453q0 26 146 26q82 0 171 -8t89 -25q0 -88 -47 -88q-4 0 -108.5 27t-182.5 27q-29 0 -48.5 13t-19.5 28z" />
<glyph unicode="&#x2012;" horiz-adv-x="466" d="M53 453q0 26 146 26q82 0 171 -8t89 -25q0 -88 -47 -88q-4 0 -108.5 27t-182.5 27q-29 0 -48.5 13t-19.5 28z" />
<glyph unicode="&#x2013;" horiz-adv-x="622" d="M53 453q0 26 146 26q94 0 193 -11.5t159.5 -27t60.5 -28.5q0 -88 -47 -88q-8 0 -73 22t-168 44t-203 22q-29 0 -48.5 13t-19.5 28z" />
<glyph unicode="&#x2014;" horiz-adv-x="864" d="M53 453q0 26 146 26q147 0 309 -28.5t256 -59.5t94 -45q0 -88 -47 -88q-8 0 -74 24t-151.5 53t-215.5 53t-249 24q-29 0 -48.5 13t-19.5 28z" />
<glyph unicode="&#x2018;" horiz-adv-x="468" d="M434 1020q0 64 69 134t150 111.5t127 41.5q27 0 27 -21q0 -4 -32 -16t-71.5 -27t-77 -46t-46.5 -69q4 -23 27.5 -42t45 -30t21.5 -16q0 -43 -30.5 -90t-76.5 -47q-62 0 -97.5 32t-35.5 85z" />
<glyph unicode="&#x2019;" horiz-adv-x="468" d="M416 930q0 4 32 16t71.5 26.5t77 45.5t46.5 69q-4 23 -27.5 42t-45 30.5t-21.5 16.5q0 43 30 90t76 47q62 0 97.5 -32t35.5 -87q0 -63 -69 -132.5t-150 -111t-127 -41.5q-26 0 -26 21z" />
<glyph unicode="&#x201a;" horiz-adv-x="356" d="M-72 -145q0 4 32 16t71.5 26.5t77.5 45.5t47 69q-4 23 -28 42t-45.5 30t-21.5 16q0 43 30.5 90.5t76.5 47.5q62 0 97.5 -31t35.5 -80q0 -51 -41.5 -106.5t-98.5 -95t-114.5 -65.5t-91.5 -26q-27 0 -27 21z" />
<glyph unicode="&#x201c;" horiz-adv-x="696" d="M416 1020q0 64 69 134t150 111.5t127 41.5q26 0 26 -21q0 -4 -32 -16t-71.5 -27t-77 -46t-46.5 -69q4 -23 27.5 -42t45 -30t21.5 -16q0 -43 -30 -90t-76 -47q-62 0 -97.5 32t-35.5 85zM711 1020q0 64 69 134t150 111.5t127 41.5q26 0 26 -21q0 -4 -32 -16t-71.5 -27 t-77 -46t-46.5 -69q4 -23 27.5 -42t45 -30t21.5 -16q0 -43 -30 -90t-76 -47q-62 0 -97.5 32t-35.5 85z" />
<glyph unicode="&#x201d;" horiz-adv-x="694" d="M369 930q0 4 32 16t71.5 26.5t77 45.5t46.5 69q-4 23 -27.5 42t-45 30.5t-21.5 16.5q0 43 30 90t76 47q62 0 97.5 -31t35.5 -80q0 -51 -41.5 -106.5t-98.5 -95t-114.5 -65.5t-91.5 -26q-26 0 -26 21zM631 889q0 4 32 16t71.5 27t77 46t46.5 69q-4 23 -27.5 42t-45 30 t-21.5 16q0 43 30 90t76 47q62 0 98 -31.5t36 -79.5q0 -51 -41.5 -106.5t-99 -95t-115 -65.5t-91.5 -26q-26 0 -26 21z" />
<glyph unicode="&#x201e;" horiz-adv-x="694" d="M-41 -166q0 4 32 16t71.5 27t77 46t46.5 69q-4 23 -27.5 42t-45 30t-21.5 16q0 43 30.5 90t76.5 47q61 0 97 -30.5t36 -77.5q0 -52 -41.5 -107.5t-98.5 -95.5t-114.5 -66t-91.5 -26q-27 0 -27 20zM221 -207q0 4 32 16t71.5 27t77.5 46t47 69q-4 23 -28 42t-45.5 30 t-21.5 16q0 43 30.5 90t76.5 47q63 0 98 -32.5t35 -88.5q0 -48 -41.5 -100.5t-98.5 -91.5t-115 -64.5t-91 -25.5q-27 0 -27 20z" />
<glyph unicode="&#x2022;" horiz-adv-x="587" d="M123 371q0 98 34.5 191t88 157.5t118.5 103.5t125 39q52 0 93 -40.5t41 -116.5q0 -62 -15.5 -130.5t-46 -134t-70 -118.5t-93.5 -85t-111 -32q-79 0 -121.5 45.5t-42.5 120.5z" />
<glyph unicode="&#x2026;" horiz-adv-x="1122" d="M59 98q0 46 33.5 76.5t81.5 30.5t81.5 -30.5t33.5 -76.5t-33.5 -76t-81.5 -30t-81.5 30t-33.5 76zM444 98q0 46 33.5 76.5t81.5 30.5t81.5 -30.5t33.5 -76.5t-33.5 -76t-81.5 -30t-81.5 30t-33.5 76zM821 98q0 46 33.5 76.5t81.5 30.5t81.5 -30.5t33.5 -76.5t-33.5 -76 t-81.5 -30t-81.5 30t-33.5 76z" />
<glyph unicode="&#x202f;" horiz-adv-x="347" />
<glyph unicode="&#x2039;" horiz-adv-x="471" d="M106 436q48 51 151 118t142 67q20 0 37 -26.5t17 -53.5q0 -8 -40.5 -27.5t-98 -48t-85.5 -49.5q27 -35 61 -73.5t51 -58t17 -26.5q0 -25 -33.5 -45t-62.5 -20q-14 0 -37 44t-56 106t-63 93z" />
<glyph unicode="&#x203a;" horiz-adv-x="471" d="M102 283q0 8 40.5 27.5t98 48t85.5 49.5q-27 35 -61 73t-51 57.5t-17 26.5q0 25 33.5 45.5t62.5 20.5q14 0 37 -44t56 -106.5t63 -93.5q-47 -51 -150.5 -117.5t-142.5 -66.5q-20 0 -37 26.5t-17 53.5z" />
<glyph unicode="&#x205f;" horiz-adv-x="434" />
<glyph unicode="&#x20ac;" horiz-adv-x="772" d="M14 309q0 20 6 46t13 26h90q5 26 8 33q-62 -4 -88 -4q0 16 9 42.5t16 26.5q61 0 86 2q77 187 225 317t280 130q74 0 124.5 -50t50.5 -108q0 -148 -142.5 -237t-374.5 -107q-5 -10 -14 -37q79 6 144 16t98 18t65 22.5t36 17.5t20 14q0 -53 -32 -85t-114.5 -51t-232.5 -26 q-4 -40 -4 -63q0 -148 143 -148q103 0 184 55.5t115 123.5q11 0 21 -17.5t10 -25.5q-59 -117 -179 -182.5t-251 -65.5q-102 0 -164 56t-62 169q0 45 6 92h-92zM346 496q128 24 227 110t99 182q0 17 -9 27t-18 10q-47 0 -147.5 -104.5t-151.5 -224.5z" />
<glyph unicode="&#x2122;" horiz-adv-x="1454" d="M270 449q0 154 205 595q-31 7 -44 22t-13 28q0 41 55 41q46 0 80 57q92 158 164 158q35 0 52 -15t17 -39q0 -17 -10 -35t-41 -63.5t-59 -95.5q32 -2 60 -16t28 -29q0 -27 -26 -55.5t-48 -28.5q-8 0 -31.5 14t-40.5 17q-190 -376 -208 -535q72 0 148 63t101 152 q25 100 102.5 271t98.5 171q45 0 71.5 -23t26.5 -44q0 -35 -16 -64q-6 -11 -29 -56t-35.5 -70.5t-33 -72.5t-37.5 -94h4q234 424 328 424q40 0 75 -23.5t35 -72.5q0 -16 -25 -61.5t-62 -120t-58 -146.5h2q234 424 328 424q42 0 77 -23.5t35 -72.5q0 -18 -11 -47.5t-22 -51.5 t-36 -67.5t-35 -64.5q-111 -208 -111 -293q0 -37 33 -37t83 43t69 88q20 0 20 -12q0 -18 -20 -52t-51.5 -69.5t-80.5 -61.5t-98 -26q-40 0 -66 25.5t-26 72.5q0 72 43 177t90 196t51 121q-37 -10 -108.5 -90.5t-136.5 -183.5t-84 -171q-9 -37 -9 -63q0 -43 -10 -63.5 t-39 -20.5q-39 0 -64.5 26t-25.5 50q0 67 26 154t57.5 153.5t62 129t34.5 79.5q-37 -10 -108.5 -90.5t-136.5 -183.5t-84 -171q-9 -35 -9 -63q0 -44 -9 -64t-38 -20q-40 0 -65 26t-25 50q0 32 15 77q-29 -50 -115.5 -101.5t-159.5 -51.5q-40 0 -58 21.5t-18 48.5z" />
<glyph unicode="&#x25fc;" horiz-adv-x="931" d="M0 0v932h932v-932h-932z" />
</font>
</defs>
</svg>
